{
.appVersion = "3189";
.formatVersion = 3;
DisplayStrings = (
"ÁÁĂĂǍǍÂÂÄÄȦȦÀÀĀĀĄĄÅÅǺǺÃÃǼǼǢǢḂḂĆĆČČĈĈĊĊǄǄĎĎḊḊǅǅÉÉĔĔĚĚȨȨÊÊËËĖĖÈÈĒĒĘĘẼẼḞḞǴǴĞĞǦǦĜĜĠĠȞȞĤĤÍÍĬĬǏǏÎÎÏÏİİÌÌĪĪĮĮĨĨĴĴǨǨĹĹṀṀŃŃŇŇǸǸŊŊÑÑÓÓŎŎǑǑÔÔÖÖÒÒŐŐŌŌǪǪǾǾÕÕṖṖŔŔŘŘŚŚŠŠŞŞŜŜṠṠŤŤṪṪÚÚŬŬǓǓÛÛÜÜÙÙŰŰŪŪŲŲŮŮŨŨẂẂŴŴẄẄẀẀÝÝŶŶŸŸỲỲȲȲỸỸŹŹŽŽŻŻááăăǎǎââääȧȧààāāąąååǻǻããǽǽǣǣḃḃććččĉĉċċḋḋǆǆééĕĕěěȩȩêêëëėėèèēēęęẽẽḟḟǵǵğğǧǧĝĝģģġġȟȟĥĥííĭĭǐǐîîïïììīīįįĩĩǰǰĵĵǩǩĺĺṁṁńńŉŉňňǹǹŋŋññóóŏŏǒǒôôööòòőőōōǫǫǿǿõõṗṗŕŕřřśśššŝŝṡṡṫṫúúŭŭǔǔûûüüùùűűūūųųůůũũẃẃŵŵẅẅẁẁýýŷŷÿÿỳỳȳȳỹỹźźžžżżȮȮȯȯ"
);
customParameters = (
{
name = glyphOrder;
value = (
A,
Aacute,
Abreve,
Acaron,
Acircumflex,
Adblgrave,
Adieresis,
Adotaccent,
Agrave,
Ainvertedbreve,
Amacron,
Aogonek,
Aring,
Aringacute,
Atilde,
AE,
AEacute,
AEmacron,
B,
Bdotaccent,
C,
Cacute,
Ccaron,
Ccedilla,
Ccircumflex,
Cdotaccent,
D,
DZ,
DZcaron,
Eth,
Dcaron,
Dcroat,
Ddotaccent,
Dz,
Dzcaron,
E,
Eacute,
Ebreve,
Ecaron,
uni0228,
Ecircumflex,
Edblgrave,
Edieresis,
Edotaccent,
Egrave,
Einvertedbreve,
Emacron,
Eogonek,
Etilde,
F,
Fdotaccent,
G,
Gacute,
Gbreve,
Gcaron,
Gcircumflex,
Gcommaaccent,
Gdotaccent,
H,
Hbar,
uni021E,
Hcircumflex,
I,
IJ,
Iacute,
Ibreve,
Icaron,
Icircumflex,
Idblgrave,
Idieresis,
Idotaccent,
Igrave,
Iinvertedbreve,
Imacron,
Iogonek,
Itilde,
J,
Jcircumflex,
K,
Kcaron,
Kcommaaccent,
L,
LJ,
Lacute,
Lcaron,
Lcommaaccent,
Ldot,
Lj,
Lslash,
M,
Mdotaccent,
N,
NJ,
Nacute,
Ncaron,
Ncommaaccent,
uni01F8,
Eng,
Nj,
Ntilde,
O,
Oacute,
Obreve,
Ocaron,
Ocircumflex,
Odblgrave,
Odieresis,
Ograve,
Ohungarumlaut,
Oinvertedbreve,
Omacron,
Oogonek,
Oslash,
Oslashacute,
Otilde,
OE,
P,
Pdotaccent,
Thorn,
Q,
R,
Racute,
Rcaron,
Rcommaaccent,
Rdblgrave,
Rinvertedbreve,
S,
Sacute,
Scaron,
Scedilla,
Scircumflex,
Scommaaccent,
Sdotaccent,
Schwa,
T,
Tbar,
Tcaron,
uni021A,
Tdotaccent,
U,
Uacute,
Ubreve,
Ucaron,
Ucircumflex,
Udblgrave,
Udieresis,
Ugrave,
Uhungarumlaut,
Uinvertedbreve,
Umacron,
Uogonek,
Uring,
Utilde,
V,
W,
Wacute,
Wcircumflex,
Wdieresis,
Wgrave,
X,
Y,
Yacute,
Ycircumflex,
Ydieresis,
Ygrave,
Ymacron,
Ytilde,
Z,
Zacute,

glyphs = (
{
glyphname = A;
layers = (
{
layerId = "5DBDC0A0-6414-4D3D-B0CB-A567F0B74D18";
shapes = (
{
closed = 1;
nodes = (
(488.479,352,o),
(475.94,344.557,o),
(468.508,330.931,cs),
(335.885,87.79,ls),
(304.917,31.014,o),
(252.673,4.326,o),
(188,1.225,cs),
(164,-1.225,ls),
(113.556,-6.069,o),
(88.97,42.806,o),
(114.387,86.378,cs),
(909.613,1449.62,ls),
(942.254,1505.58,o),
(995.219,1536,o),
(1060,1536,cs),
(1116,1536,ls),
(1180.78,1536,o),
(1233.75,1505.58,o),
(1266.39,1449.62,cs),
(2061.61,86.378,ls),
(2087.03,42.806,o),
(2062.44,6.069,o),
(2012,1.225,cs),
(1988,-1.225,ls),
(1923.33,-4.326,o),
(1871.08,31.014,o),
(1840.11,87.79,cs),
(1707.49,330.931,ls),
(1700.06,344.557,o),
(1687.52,352,o),
(1672,352,cs),
(504,352,ls)
);
},
{
closed = 1;
nodes = (
(1093.95,1397.58,o),
(1082.05,1397.58,o),
(1076.09,1387.16,cs),
(587.907,532.838,ls),
(581.924,522.367,o),
(587.94,512,o),
(600,512,cs),
(1576,512,ls),
(1588.06,512,o),
(1594.08,522.367,o),
(1588.09,532.838,cs),
(1099.91,1387.16,ls)
);
}
);
width = 2176;
}
);
unicode = 65;
},
{
glyphname = Ainvertedbreve;
layers = (
{
layerId = "5DBDC0A0-6414-4D3D-B0CB-A567F0B74D18";
shapes = (
{
closed = 1;
nodes = (
(1365.75,2010,o),
(1500.58,1945,o),
(1529.94,1768.73,cs),
(1536.88,1727.06,o),
(1505.48,1690,o),
(1464.05,1690,c),
(1466.69,1690,l),
(1409.1,1690,o),
(1381.04,1712.45,o),
(1368.39,1768.63,cs),
(1358.8,1811.22,o),
(1340.09,1841.01,o),
(1312,1858,cs),
(1285,1874,o),
(1232,1882,o),
(1152,1882,cs),
(1072,1882,o),
(1020,1875,o),
(997,1861,cs),
(966.857,1842.65,o),
(946.591,1811.85,o),
(936.2,1768.6,cs),
(922.443,1711.34,o),
(895.37,1690,o),
(838.316,1690,c),
(840.738,1690,l),
(798.908,1690,o),
(767.186,1727.49,o),
(774.109,1768.74,cs),
(803.569,1944.3,o),
(938.366,2010,o),
(1152,2010,cs)
);
},
{
pos = (64,0);
ref = A;
}
);
width = 2304;
}
);
unicode = 514;
},
{
glyphname = AE;
layers = (
{
layerId = "5DBDC0A0-6414-4D3D-B0CB-A567F0B74D18";
shapes = (
{
closed = 1;
nodes = (
(1472,342.407,o),
(1462.41,352,o),
(1448,352,cs),
(606,352,ls),
(590.408,352,o),
(576.287,345.831,o),
(565.692,334.392,cs),
(323.949,73.368,ls),
(279.806,25.704,o),
(220.966,4.29,o),
(156,1.225,cs),
(100,-1.225,ls),
(54.955,-6.73,o),
(37.134,40.51,o),
(67.573,73.715,cs),
(1340.43,1462.28,ls),
(1384.33,1510.18,o),
(1443.02,1536,o),
(1508,1536,cs),
(2865,1536,ls),
(2912.56,1536,o),
(2944,1504.56,o),
(2944,1457,cs),
(2944,1455,ls),
(2944,1407.44,o),
(2912.56,1376,o),
(2865,1376,cs),
(1688,1376,ls),
(1673.59,1376,o),
(1664,1366.41,o),
(1664,1352,cs),
(1664,888,ls),
(1664,873.593,o),
(1673.59,864,o),
(1688,864,cs),
(2801,864,ls),
(2848.56,864,o),
(2880,832.562,o),
(2880,785,cs),
(2880,783,ls),
(2880,735.438,o),
(2848.56,704,o),
(2801,704,cs),
(1688,704,ls),
(1673.59,704,o),
(1664,694.407,o),
(1664,680,cs),
(1664,184,ls),
(1664,169.593,o),
(1673.59,160,o),
(1688,160,cs),
(2865,160,ls),
(2912.56,160,o),
(2944,128.562,o),
(2944,81,cs),
(2944,79,ls),
(2944,31.438,o),
(2912.56,3.85,o),
(2865,9.675,cs),
(1572,-1.225,ls),
(1511.8,-4.874,o),
(1472,39.795,o),
(1472,100,cs),
(1472,328,ls)
);
},
{
closed = 1;
nodes = (
(1472,1362.14,o),
(1462.79,1365.64,o),
(1456.06,1358.06,cs),
(719.945,529.938,ls),
(712.62,521.697,o),
(716.975,512,o),
(728,512,cs),
(1448,512,ls),
(1462.41,512,o),
(1472,521.593,o),
(1472,536,cs),
(1472,1352,ls)
);
}
);
width = 3072;
}
);
unicode = 198;
},
{
glyphname = B;
layers = (
{
layerId = "5DBDC0A0-6414-4D3D-B0CB-A567F0B74D18";
shapes = (
{
closed = 1;
nodes = (
(1920,992.565,o),
(1844.64,857.241,o),
(1687.86,834.536,cs),
(1683.51,833.906,o),
(1683.57,830.503,o),
(1687.94,830.036,cs),
(1777.14,820.495,o),
(1835.07,788.328,o),
(1882,746,cs),
(1940,694,o),
(1984,595,o),
(1984,498,cs),
(1984,321,o),
(1970,203,o),
(1880,119,cs),
(1851,92,o),
(1814,70,o),
(1766,52,cs),
(1672,17,o),
(1530,0,o),
(1343,0,cs),
(292,-1.225,ls),
(231.795,-4.874,o),
(192,39.795,o),
(192,100,cs),
(192,1436,ls),
(192,1496.2,o),
(231.795,1536,o),
(292,1536,cs),
(1473,1536,ls),
(1784,1536,o),
(1920,1466,o),
(1920,1186,cs)
);
},
{
closed = 1;
nodes = (
(1680,192,o),
(1726,210,o),
(1758,268,cs),
(1780,309,o),
(1792,379,o),
(1792,478,cs),
(1792,651,o),
(1746,696,o),
(1612,719,cs),
(1547,730,o),
(1436,736,o),
(1279,736,cs),
(408,736,ls),
(393.593,736,o),
(384,726.407,o),
(384,712,cs),
(384,184,ls),
(384,169.593,o),
(393.593,160,o),
(408,160,cs),
(1279,160,ls),
(1440,160,o),
(1545,165,o),
(1595,175,cs)
);
},
{
closed = 1;
nodes = (
(1628,928,o),
(1669,944,o),
(1698,996,cs),
(1718,1031,o),
(1728,1080,o),
(1728,1143,cs),
(1728,1250,o),
(1723,1305,o),
(1664,1340,cs),
(1623,1364,o),
(1538,1376,o),
(1409,1376,cs),
(408,1376,ls),
(393.593,1376,o),
(384,1366.41,o),
(384,1352,cs),
(384,920,ls),
(384,905.593,o),
(393.593,896,o),
(408,896,cs),
(1279,896,ls),
(1415,896,o),
(1506,901,o),
(1551,911,cs)
);
}
);
width = 2112;
}
);
unicode = 66;
},
{
glyphname = C;
layers = (
{
layerId = "5DBDC0A0-6414-4D3D-B0CB-A567F0B74D18";
shapes = (
{
closed = 1;
nodes = (
(1171,1434.63,o),
(1138.37,1402,o),
(1089,1402,cs),
(871,1402,ls),
(421.862,1402,o),
(330.02,1377.18,o),
(320.823,885.08,cs),
(319.666,823.177,o),
(284.358,780.575,o),
(223.984,767.997,cs),
(146.601,751.875,ls),
(136.065,749.68,o),
(128,756.238,o),
(128,767,cs),
(128,788,ls),
(128,1467,o),
(271,1568,o),
(871,1568,cs),
(1089,1568,ls),
(1138.37,1568,o),
(1171,1535.37,o),
(1171,1486,cs),
(1171,1484,ls)
);
},
{
closed = 1;
nodes = (
(311.935,786.32,o),
(320,779.762,o),
(320,769,cs),
(320,748,ls),
(320,182,o),
(394,134,o),
(871,134,cs),
(1089,134,ls),
(1138.37,134,o),
(1171,101.368,o),
(1171,52,cs),
(1171,50,ls),
(1171,0.632,o),
(1138.37,-32,o),
(1089,-32,cs),
(871,-32,ls),
(301.725,-32,o),
(143.844,76.925,o),
(129.167,650.937,cs),
(127.649,710.303,o),
(163.342,755.363,o),
(221.479,767.475,cs),
(301.399,784.125,ls)
);
},
{
closed = 1;
nodes = (
(1056,-32,ls),
(1006.63,-32,o),
(974,0.632,o),
(974,50,cs),
(974,52,ls),
(974,101.368,o),
(1006.63,134,o),
(1056,134,cs),
(1274,134,ls),
(1666.89,134,o),
(1800.24,166.864,o),
(1819.47,494.049,cs),
(1823,553.975,o),
(1860.14,589,o),
(1920.06,589,cs),
(1921.61,589,ls),
(1976.43,589,o),
(2014.55,548.759,o),
(2011.59,494.018,cs),
(1987.9,56.458,o),
(1786.85,-32,o),
(1274,-32,cs)
);
},
{
closed = 1;
nodes = (
(1006.63,1402,o),
(974,1434.63,o),
(974,1484,cs),
(974,1486,ls),
(974,1535.37,o),
(1006.63,1568,o),
(1056,1568,cs),
(1274,1568,ls),
(1786.85,1568,o),
(1987.9,1479.54,o),
(2011.59,1041.98,cs),
(2014.55,987.19,o),
(1976.48,947,o),
(1921.73,947,cs),
(1920.17,947,ls),
(1860.18,947,o),
(1822.99,982.067,o),
(1819.47,1041.95,cs),
(1800.24,1369.14,o),
(1666.89,1402,o),
(1274,1402,cs),
(1056,1402,ls)
);
}
);
width = 2145;
}
);
unicode = 67;
},
{
glyphname = Ccedilla;
layers = (
{
layerId = "5DBDC0A0-6414-4D3D-B0CB-A567F0B74D18";
shapes = (
{
closed = 1;
nodes = (
(1343,-468.351,o),
(1222.26,-529.509,o),
(1037.97,-541.609,cs),
(992.823,-544.574,o),
(959,-512.899,o),
(959,-467.794,cs),
(959,-454.896,ls),
(959,-411.833,o),
(985.13,-384.597,o),
(1028.16,-382.815,cs),
(1063.33,-381.357,o),
(1086.76,-378.508,o),
(1099,-374,cs),
(1134,-361,o),
(1151,-332,o),
(1151,-288,cs),
(1151,-267,o),
(1144,-253,o),
(1130,-246,cs),
(1112.07,-237.346,o),
(1083.45,-230.984,o),
(1044.12,-227.388,cs),
(988.964,-222.344,o),
(959,-189.514,o),
(959,-134.399,cs),
(959,-56,ls),
(959,-41.593,o),
(949.407,-32,o),
(935,-32,cs),
(831,-32,ls),
(604,-32,o),
(439,-4,o),
(336,54,cs),
(191,135,o),
(137,296,o),
(131,520,cs),
(129,595,o),
(128,677,o),
(128,768,cs),
(128,843,ls),
(128,1053,o),
(133,1243,o),
(216,1372,cs),
(244,1416,o),
(284,1453,o),
(336,1482,cs),
(439,1540,o),
(604,1568,o),
(831,1568,cs),
(1280,1568,ls),
(1558,1568,o),
(1747,1527,o),
(1847,1444,cs),
(1929.19,1376.46,o),
(1967.67,1281.11,o),
(1979.16,1150.95,cs),
(1983.86,1097.59,o),
(1945.78,1056,o),
(1892.53,1056,cs),
(1892.29,1056,ls),
(1829.76,1056,o),
(1793.29,1088.75,o),
(1786.59,1150.93,cs),
(1776.35,1245.97,o),
(1746.5,1311.34,o),
(1679,1352,cs),
(1587,1407,o),
(1455,1408,o),
(1298,1408,cs),
(1280,1408,l),
(831,1408,ls),
(654,1408,o),
(534,1395,o),
(471,1370,cs),
(393,1338,o),
(356,1283,o),
(338,1190,cs),
(326,1129,o),
(320,988,o),
(320,768,cs),
(320,551,o),
(325,415,o),
(336,359,cs),
(356,255,o),
(387,200,o),
(471,166,cs),
(534,141,o),
(654,128,o),
(831,128,cs),
(1280,128,ls),
(1434,128,o),
(1538,135,o),
(1590,150,cs),
(1680,175,o),
(1726,200,o),
(1758,270,cs),
(1773.2,303.855,o),
(1783.15,352.986,o),
(1787.85,417.062,cs),
(1792.29,477.689,o),
(1829.21,512,o),
(1889.81,512,cs),
(1891.51,512,ls),
(1945.57,512,o),
(1983.73,470.989,o),
(1979.84,417.075,cs),
(1964.46,203.572,o),
(1890.93,87.202,o),
(1718,24,cs),
(1617,-13,o),
(1471,-32,o),
(1280,-32,cs),
(1111,-32,ls),
(1096.59,-32,o),
(1087,-41.593,o),
(1087,-56,cs),
(1087,-103.648,ls),
(1087,-118.441,o),
(1096.17,-127.903,o),
(1110.96,-128.364,cs),
(1265.94,-133.196,o),
(1343,-186.12,o),
(1343,-288,cs)
);
}
);
width = 2111;
}
);
unicode = 199;
},
{
glyphname = D;
layers = (
{
layerId = "5DBDC0A0-6414-4D3D-B0CB-A567F0B74D18";
shapes = (
{
closed = 1;
nodes = (
(1778,223,o),
(1815,266,o),
(1836,366,cs),
(1849,427,o),
(1856,561,o),
(1856,768,cs),
(1856,975,o),
(1850,1105,o),
(1839,1158,cs),
(1818,1257,o),
(1786,1309,o),
(1703,1340,cs),
(1640,1364,o),
(1520,1376,o),
(1343,1376,cs),
(408,1376,ls),
(393.593,1376,o),
(384,1366.41,o),
(384,1352,cs),
(384,184,ls),
(384,169.593,o),
(393.593,160,o),
(408,160,cs),
(1343,160,ls),
(1520,160,o),
(1634,169,o),
(1684,188,cs)
);
},
{
closed = 1;
nodes = (
(192,1496.2,o),
(231.795,1536,o),
(292,1536,cs),
(1343,1536,ls),
(1570,1536,o),
(1735,1508,o),
(1838,1453,cs),
(1984,1375,o),
(2037,1223,o),
(2044,1006,cs),
(2046,934,o),
(2048,855,o),
(2048,768,cs),
(2048,716,ls),
(2048,505,o),
(2045,314,o),
(1960,188,cs),
(1932,146,o),
(1890,111,o),
(1838,83,cs),
(1735,28,o),
(1570,0,o),
(1343,0,cs),
(292,-1.225,ls),
(231.795,-4.874,o),
(192,39.795,o),
(192,100,cs),
(192,1436,ls)
);
}
);
width = 2176;
}
);
unicode = 68;
},
{
glyphname = Eth;
layers = (
{
layerId = "5DBDC0A0-6414-4D3D-B0CB-A567F0B74D18";
shapes = (
{
closed = 1;
nodes = (
(-1.535,838.929,o),
(25.071,864,o),
(63,864,cs),
(104,864,ls),
(118.407,864,o),
(128,873.593,o),
(128,888,cs),
(128,1436,ls),
(128,1496.2,o),
(167.795,1536,o),
(228,1536,cs),
(1279,1536,ls),
(1506,1536,o),
(1671,1508,o),
(1774,1453,cs),
(1826,1425,o),
(1868,1390,o),
(1896,1348,cs),
(1981,1222,o),
(1984,1031,o),
(1984,820,cs),
(1984,768,ls),
(1984,681,o),
(1982,602,o),
(1980,530,cs),
(1973,313,o),
(1920,161,o),
(1774,83,cs),
(1671,28,o),
(1506,0,o),
(1279,0,cs),
(228,-1.225,ls),
(167.795,-4.874,o),
(128,39.795,o),
(128,100,cs),
(128,680,ls),
(128,694.407,o),
(118.407,704,o),
(104,704,cs),
(63,704,ls),
(25.071,704,o),
(1.535,729.071,o),
(3.858,767,cs),
(-3.858,801,ls)
);
},
{
closed = 1;
nodes = (
(1456,160,o),
(1576,172,o),
(1639,196,cs),
(1722,227,o),
(1754,279,o),
(1775,378,cs),
(1786,431,o),
(1792,561,o),
(1792,768,cs),
(1792,975,o),
(1785,1109,o),
(1772,1170,cs),
(1751,1270,o),
(1714,1313,o),
(1620,1348,cs),
(1570,1367,o),
(1456,1376,o),
(1279,1376,cs),
(344,1376,ls),
(329.593,1376,o),
(320,1366.41,o),
(320,1352,cs),
(320,888,ls),
(320,873.593,o),
(329.593,864,o),
(344,864,cs),
(689,864,ls),
(736.562,864,o),
(768,832.562,o),
(768,785,cs),
(768,783,ls),
(768,735.438,o),
(736.562,704,o),
(689,704,cs),
(344,704,ls),
(329.593,704,o),
(320,694.407,o),
(320,680,cs),
(320,184,ls),
(320,169.593,o),
(329.593,160,o),
(344,160,cs),
(1279,160,ls)
);
}
);
width = 2112;
}
);
unicode = 208;
},
{
glyphname = E;
layers = (
{
layerId = "5DBDC0A0-6414-4D3D-B0CB-A567F0B74D18";
shapes = (
{
closed = 1;
nodes = (
(192,1496.2,o),
(231.795,1536,o),
(292,1536,cs),
(1621,1536,ls),
(1668.56,1536,o),
(1700,1504.56,o),
(1700,1457,cs),
(1700,1455,ls),
(1700,1407.44,o),
(1668.56,1376,o),
(1621,1376,cs),
(408,1376,ls),
(393.593,1376,o),
(384,1366.41,o),
(384,1352,cs),
(384,888,ls),
(384,873.593,o),
(393.593,864,o),
(408,864,cs),
(1566,864,ls),
(1613.56,864,o),
(1645,832.562,o),
(1645,785,cs),
(1645,783,ls),
(1645,735.438,o),
(1613.56,704,o),
(1566,704,cs),
(408,704,ls),
(393.593,704,o),
(384,694.407,o),
(384,680,cs),
(384,184,ls),
(384,169.593,o),
(393.593,160,o),
(408,160,cs),
(1649,160,ls),
(1696.56,160,o),
(1728,128.562,o),
(1728,81,cs),
(1728,79,ls),
(1728,31.438,o),
(1696.56,3.85,o),
(1649,9.675,cs),
(292,-1.225,ls),
(231.795,-4.874,o),
(192,39.795,o),
(192,100,cs),
(192,1436,ls)
);
}
);
width = 1792;
}
);
unicode = 69;
},
{
glyphname = Einvertedbreve;
layers = (
{
layerId = "5DBDC0A0-6414-4D3D-B0CB-A567F0B74D18";
shapes = (
{
closed = 1;
nodes = (
(1109.75,2010,o),
(1244.58,1945,o),
(1273.94,1768.73,cs),
(1280.88,1727.06,o),
(1249.48,1690,o),
(1208.05,1690,c),
(1210.69,1690,l),
(1153.1,1690,o),
(1125.04,1712.45,o),
(1112.39,1768.63,cs),
(1102.8,1811.22,o),
(1084.09,1841.01,o),
(1056,1858,cs),
(1029,1874,o),
(976,1882,o),
(896,1882,cs),
(816,1882,o),
(764,1875,o),
(741,1861,cs),
(710.857,1842.65,o),
(690.591,1811.85,o),
(680.2,1768.6,cs),
(666.443,1711.34,o),
(639.37,1690,o),
(582.316,1690,c),
(584.738,1690,l),
(542.908,1690,o),
(511.186,1727.49,o),
(518.109,1768.74,cs),
(547.569,1944.3,o),
(682.366,2010,o),
(896,2010,cs)
);
},
{
pos = (-63,0);
ref = E;
}
);
width = 1792;
}
);
unicode = 518;
},
{
glyphname = F;
layers = (
{
layerId = "5DBDC0A0-6414-4D3D-B0CB-A567F0B74D18";
shapes = (
{
closed = 1;
nodes = (
(192,1496.2,o),
(231.795,1536,o),
(292,1536,cs),
(1585,1536,ls),
(1632.56,1536,o),
(1664,1504.56,o),
(1664,1457,cs),
(1664,1455,ls),
(1664,1407.44,o),
(1632.56,1376,o),
(1585,1376,cs),
(408,1376,ls),
(393.593,1376,o),
(384,1366.41,o),
(384,1352,cs),
(384,888,ls),
(384,873.593,o),
(393.593,864,o),
(408,864,cs),
(1521,864,ls),
(1568.56,864,o),
(1600,832.562,o),
(1600,785,cs),
(1600,783,ls),
(1600,735.438,o),
(1568.56,704,o),
(1521,704,cs),
(408,704,ls),
(393.593,704,o),
(384,694.407,o),
(384,680,cs),
(384,95,ls),
(384,37.806,o),
(346.195,4.63,o),
(289,1.163,cs),
(287,-1.163,ls),
(229.805,-4.63,o),
(192,37.806,o),
(192,95,cs),
(192,1436,ls)
);
}
);
width = 1728;
}
);
unicode = 70;
},
{
glyphname = G;
layers = (
{
layerId = "5DBDC0A0-6414-4D3D-B0CB-A567F0B74D18";
shapes = (
{
closed = 1;
nodes = (
(1118.44,608,o),
(1087,639.438,o),
(1087,687,cs),
(1087,689,ls),
(1087,736.562,o),
(1118.44,768,o),
(1166,768,cs),
(1914,768,ls),
(1954.94,768,o),
(1968.63,730.193,o),
(1937.18,703.982,cs),
(1898.82,672.018,ls),
(1849.3,630.747,o),
(1786.47,608,o),
(1722,608,cs),
(1166,608,ls)
);
},
{
closed = 1;
nodes = (
(1171,1434.63,o),
(1138.37,1402,o),
(1089,1402,cs),
(871,1402,ls),
(421.862,1402,o),
(330.02,1377.18,o),
(320.823,885.08,cs),
(319.666,823.177,o),
(284.358,780.575,o),
(223.984,767.997,cs),
(146.601,751.875,ls),
(136.065,749.68,o),
(128,756.238,o),
(128,767,cs),
(128,788,ls),
(128,1467,o),
(271,1568,o),
(871,1568,cs),
(1089,1568,ls),
(1138.37,1568,o),
(1171,1535.37,o),
(1171,1486,cs),
(1171,1484,ls)
);
},
{
closed = 1;
nodes = (
(311.935,786.32,o),
(320,779.762,o),
(320,769,cs),
(320,748,ls),
(320,182,o),
(394,134,o),
(871,134,cs),
(1089,134,ls),
(1138.37,134,o),
(1171,101.368,o),
(1171,52,cs),
(1171,50,ls),
(1171,0.632,o),
(1138.37,-32,o),
(1089,-32,cs),
(871,-32,ls),
(301.725,-32,o),
(143.844,76.925,o),
(129.167,650.937,cs),
(127.649,710.303,o),
(163.342,755.363,o),
(221.479,767.475,cs),
(301.399,784.125,ls)
);
},
{
closed = 1;
nodes = (
(1977.56,737.632,o),
(2014,720.563,o),
(2014,679.5,cs),
(2014,589,ls),
(2014,69,o),
(1822,-32,o),
(1274,-32,cs),
(1056,-32,ls),
(1006.63,-32,o),
(974,0.632,o),
(974,50,cs),
(974,52,ls),
(974,101.368,o),
(1006.63,134,o),
(1056,134,cs),
(1274,134,ls),
(1715,134,o),
(1822,173,o),
(1822,589,cs),
(1822,599.5,ls),
(1822,605.028,o),
(1824.28,609.903,o),
(1828.53,613.442,cs),
(1946.01,711.344,ls)
);
},
{
closed = 1;
nodes = (
(1006.63,1402,o),
(974,1434.63,o),
(974,1484,cs),
(974,1486,ls),
(974,1535.37,o),
(1006.63,1568,o),
(1056,1568,cs),
(1274,1568,ls),
(1786.85,1568,o),
(1987.9,1479.54,o),
(2011.59,1041.98,cs),
(2014.55,987.19,o),
(1976.48,947,o),
(1921.73,947,cs),
(1920.17,947,ls),
(1860.18,947,o),
(1822.99,982.067,o),
(1819.47,1041.95,cs),
(1800.24,1369.14,o),
(1666.89,1402,o),
(1274,1402,cs),
(1056,1402,ls)
);
}
);
width = 2177;
}
);
unicode = 71;
},
{
glyphname = H;
layers = (
{
layerId = "5DBDC0A0-6414-4D3D-B0CB-A567F0B74D18";
shapes = (
{
closed = 1;
nodes = (
(1950.19,1536,o),
(1988,1498.19,o),
(1988,1441,cs),
(1988,95,ls),
(1988,37.806,o),
(1950.19,4.63,o),
(1893,1.163,cs),
(1891,-1.163,ls),
(1833.81,-4.63,o),
(1796,37.806,o),
(1796,95,cs),
(1796,680,ls),
(1796,694.407,o),
(1786.41,704,o),
(1772,704,cs),
(412,704,ls),
(397.593,704,o),
(388,694.407,o),
(388,680,cs),
(388,95,ls),
(388,37.806,o),
(350.195,4.63,o),
(293,1.163,cs),
(291,-1.163,ls),
(233.805,-4.63,o),
(196,37.806,o),
(196,95,cs),
(196,1441,ls),
(196,1498.19,o),
(233.805,1536,o),
(291,1536,cs),
(293,1536,ls),
(350.195,1536,o),
(388,1498.19,o),
(388,1441,cs),
(388,888,ls),
(388,873.593,o),
(397.593,864,o),
(412,864,cs),
(1772,864,ls),
(1786.41,864,o),
(1796,873.593,o),
(1796,888,cs),
(1796,1441,ls),
(1796,1498.19,o),
(1833.81,1536,o),
(1891,1536,cs),
(1893,1536,ls)
);
}
);
width = 2184;
}
);
unicode = 72;
},
{
glyphname = Hbar;
layers = (
{
layerId = "5DBDC0A0-6414-4D3D-B0CB-A567F0B74D18";
shapes = (
{
closed = 1;
nodes = (
(1946.19,1536,o),
(1984,1498.19,o),
(1984,1441,cs),
(1984,95,ls),
(1984,37.806,o),
(1946.19,4.63,o),
(1889,1.163,cs),
(1887,-1.163,ls),
(1829.81,-4.63,o),
(1792,37.806,o),
(1792,95,cs),
(1792,680,ls),
(1792,694.407,o),
(1782.41,704,o),
(1768,704,cs),
(408,704,ls),
(393.593,704,o),
(384,694.407,o),
(384,680,cs),
(384,95,ls),
(384,37.806,o),
(346.195,4.63,o),
(289,1.163,cs),
(287,-1.163,ls),
(229.805,-4.63,o),
(192,37.806,o),
(192,95,cs),
(192,1441,ls),
(192,1498.19,o),
(229.805,1536,o),
(287,1536,cs),
(289,1536,ls),
(346.195,1536,o),
(384,1498.19,o),
(384,1441,cs),
(384,888,ls),
(384,873.593,o),
(393.593,864,o),
(408,864,cs),
(1768,864,ls),
(1782.41,864,o),
(1792,873.593,o),
(1792,888,cs),
(1792,1441,ls),
(1792,1498.19,o),
(1829.81,1536,o),
(1887,1536,cs),
(1889,1536,ls)
);
}
);
width = 2176;
}
);
unicode = 294;
},
{
glyphname = Iinvertedbreve;
layers = (
{
layerId = "5DBDC0A0-6414-4D3D-B0CB-A567F0B74D18";
shapes = (
{
closed = 1;
nodes = (
(438.752,2010,o),
(573.58,1945,o),
(602.94,1768.73,cs),
(609.88,1727.06,o),
(578.483,1690,o),
(537.053,1690,c),
(539.686,1690,l),
(482.102,1690,o),
(454.036,1712.45,o),
(441.387,1768.63,cs),
(431.795,1811.22,o),
(413.093,1841.01,o),
(385,1858,cs),
(358,1874,o),
(305,1882,o),
(225,1882,cs),
(145,1882,o),
(93,1875,o),
(70,1861,cs),
(39.857,1842.65,o),
(19.591,1811.85,o),
(9.2,1768.6,cs),
(-4.557,1711.34,o),
(-31.63,1690,o),
(-88.683,1690,c),
(-86.262,1690,l),
(-128.092,1690,o),
(-159.814,1727.49,o),
(-152.891,1768.74,cs),
(-123.431,1944.3,o),
(11.367,2010,o),
(225,2010,cs)
);
},
{
pos = (-63,0);
ref = l;
}
);
width = 448;
}
);
unicode = 522;
},
{
glyphname = J;
layers = (
{
layerId = "5DBDC0A0-6414-4D3D-B0CB-A567F0B74D18";
shapes = (
{
closed = 1;
nodes = (
(1344,1441,ls),
(1344,1498.19,o),
(1381.81,1536,o),
(1439,1536,cs),
(1441,1536,ls),
(1498.19,1536,o),
(1536,1498.19,o),
(1536,1441,cs),
(1536,448,ls),
(1536,286,o),
(1499,171,o),
(1424,104,cs),
(1347,35,o),
(1214,0,o),
(1024,0,cs),
(576,0,ls),
(321,0,o),
(179,56,o),
(144,270,cs),
(133,335,o),
(128,416,o),
(128,512,cs),
(128,545,ls),
(128,563.663,o),
(140.337,576,o),
(159,576,cs),
(289,576,ls),
(307.663,576,o),
(320,563.663,o),
(320,545,cs),
(320,512,ls),
(320,359,o),
(339,260,o),
(376,214,cs),
(417,163,o),
(483,156,o),
(576,156,cs),
(1024,156,ls),
(1255,156,o),
(1344,223,o),
(1344,448,cs)
);
}
);
width = 1715;
}
);
unicode = 74;
},
{
glyphname = K;
layers = (
{
layerId = "5DBDC0A0-6414-4D3D-B0CB-A567F0B74D18";
shapes = (
{
closed = 1;
nodes = (
(1857.93,1536,o),
(1868.94,1500.71,o),
(1837.74,1479.14,cs),
(851.743,797.646,ls),
(841.098,790.288,o),
(841.06,777.658,o),
(851.662,770.237,cs),
(1870.08,57.346,ls),
(1901.32,35.475,o),
(1890.14,7.576,o),
(1852,1.225,cs),
(1764,-1.225,ls),
(1700.22,-4.435,o),
(1634.16,20.517,o),
(1581.6,56.653,cs),
(659.777,690.403,ls),
(647.162,699.076,o),
(631.308,704,o),
(616,704,cs),
(408,704,ls),
(393.593,704,o),
(384,694.407,o),
(384,680,cs),
(384,95,ls),
(384,37.806,o),
(346.195,4.63,o),
(289,1.163,cs),
(287,-1.163,ls),
(229.805,-4.63,o),
(192,37.806,o),
(192,95,cs),
(192,1441,ls),
(192,1498.19,o),
(229.805,1536,o),
(287,1536,cs),
(289,1536,ls),
(346.195,1536,o),
(384,1498.19,o),
(384,1441,cs),
(384,888,ls),
(384,873.593,o),
(393.593,864,o),
(408,864,cs),
(616,864,ls),
(631.293,864,o),
(647.209,868.883,o),
(659.87,877.46,cs),
(1549.21,1479.92,ls),
(1601.96,1515.65,o),
(1668.28,1536,o),
(1732,1536,cs),
(1820,1536,ls)
);
}
);
width = 2016;
}
);
unicode = 75;
},
{
glyphname = L;
layers = (
{
layerId = "5DBDC0A0-6414-4D3D-B0CB-A567F0B74D18";
shapes = (
{
closed = 1;
nodes = (
(192,1498.19,o),
(229.805,1536,o),
(287,1536,cs),
(289,1536,ls),
(346.195,1536,o),
(384,1498.19,o),
(384,1441,cs),
(384,184,ls),
(384,169.593,o),
(393.593,160,o),
(408,160,cs),
(1521,160,ls),
(1568.56,160,o),
(1600,128.562,o),
(1600,81,cs),
(1600,79,ls),
(1600,31.438,o),
(1568.56,3.85,o),
(1521,9.675,cs),
(292,-1.225,ls),
(231.795,-4.874,o),
(192,39.795,o),
(192,100,cs),
(192,1441,ls)
);
}
);
width = 1664;
}
);
unicode = 76;
},
{
glyphname = Lslash;
layers = (
{
layerId = "5DBDC0A0-6414-4D3D-B0CB-A567F0B74D18";
shapes = (
{
closed = 1;
nodes = (
(64,898.592,o),
(92.676,934.517,o),
(141.035,945.508,cs),
(690.964,1070.49,ls),
(734.685,1080.43,o),
(768,1053.84,o),
(768,1009,cs),
(768,1007,ls),
(768,957.408,o),
(739.324,921.483,o),
(690.964,910.492,cs),
(141.035,785.508,ls),
(97.314,775.571,o),
(64,802.164,o),
(64,847,cs),
(64,849,ls)
);
},
{
closed = 1;
nodes = (
(231.795,-4.874,o),
(192,39.795,o),
(192,100,cs),
(192,1441,ls),
(192,1498.19,o),
(229.805,1536,o),
(287,1536,cs),
(289,1536,ls),
(346.195,1536,o),
(384,1498.19,o),
(384,1441,cs),
(384,184,ls),
(384,169.593,o),
(393.593,160,o),
(408,160,cs),
(1521,160,ls),
(1568.56,160,o),
(1600,128.562,o),
(1600,81,cs),
(1600,79,ls),
(1600,31.438,o),
(1568.56,3.85,o),
(1521,9.675,cs),
(292,-1.225,ls)
);
}
);
width = 1664;
}
);
unicode = 321;
},
{
glyphname = M;
layers = (
{
layerId = "5DBDC0A0-6414-4D3D-B0CB-A567F0B74D18";
shapes = (
{
closed = 1;
nodes = (
(388,37.806,o),
(350.195,4.63,o),
(293,1.163,cs),
(291,-1.163,ls),
(233.805,-4.63,o),
(196,37.806,o),
(196,95,cs),
(196,1436,ls),
(196,1496.2,o),
(235.795,1536,o),
(296,1536,cs),
(402,1536,ls),
(467.016,1536,o),
(522.651,1507.76,o),
(561.029,1455.28,cs),
(1396.83,312.373,ls),
(1404.57,301.792,o),
(1417.36,301.839,o),
(1425.02,312.477,cs),
(2247.57,1454.85,ls),
(2285.55,1507.6,o),
(2340.99,1536,o),
(2406,1536,cs),
(2512,1536,ls),
(2572.2,1536,o),
(2612,1496.2,o),
(2612,1436,cs),
(2612,95,ls),
(2612,37.806,o),
(2574.19,4.63,o),
(2517,1.163,cs),
(2515,-1.163,ls),
(2457.81,-4.63,o),
(2420,37.806,o),
(2420,95,cs),
(2420,1338,ls),
(2420,1347.37,o),
(2411.43,1350.15,o),
(2405.94,1342.55,cs),
(1564.26,178.788,ls),
(1527.69,128.218,o),
(1474.41,101,o),
(1412,101,cs),
(1410,101,ls),
(1347.58,101,o),
(1294.12,128.069,o),
(1257.18,178.378,cs),
(402.205,1342.66,ls),
(396.624,1350.26,o),
(388,1347.43,o),
(388,1338,cs),
(388,95,ls)
);
}
);
width = 2808;
}
);
unicode = 77;
},
{
glyphname = N;
layers = (
{
layerId = "5DBDC0A0-6414-4D3D-B0CB-A567F0B74D18";
shapes = (
{
closed = 1;
nodes = (
(384,37.806,o),
(346.195,4.63,o),
(289,1.163,cs),
(287,-1.163,ls),
(229.805,-4.63,o),
(192,37.806,o),
(192,95,cs),
(192,1437,ls),
(192,1496.6,o),
(231.397,1536,o),
(291,1536,cs),
(293,1536,ls),
(356.852,1536,o),
(418.888,1513.36,o),
(467.735,1472.24,cs),
(1935,237,l),
(1935,237,o),
(1935,237,o),
(1935,237,c),
(1937,237,l),
(1937,237,o),
(1937,237,o),
(1937,237,c),
(1937,1441,ls),
(1937,1498.19,o),
(1974.81,1536,o),
(2032,1536,cs),
(2034,1536,ls),
(2091.19,1536,o),
(2129,1498.19,o),
(2129,1441,cs),
(2129,99,ls),
(2129,39.397,o),
(2089.6,4.825,o),
(2030,1.212,cs),
(2028,-1.212,ls),
(1964.13,-4.302,o),
(1902.22,22.733,o),
(1853.53,64.073,cs),
(386,1310,l),
(386,1310,o),
(386,1310,o),
(386,1310,c),
(384,1310,l),
(384,1310,o),
(384,1310,o),
(384,1310,c),
(384,95,ls)
);
}
);
width = 2321;
}
);
unicode = 78;
},
{
glyphname = O;
layers = (
{
layerId = "5DBDC0A0-6414-4D3D-B0CB-A567F0B74D18";
shapes = (
{
closed = 1;
nodes = (
(1171,1434.63,o),
(1138.37,1402,o),
(1089,1402,cs),
(871,1402,ls),
(421.862,1402,o),
(330.02,1377.18,o),
(320.823,885.08,cs),
(319.666,823.177,o),
(284.358,780.575,o),
(223.984,767.997,cs),
(146.601,751.875,ls),
(136.065,749.68,o),
(128,756.238,o),
(128,767,cs),
(128,788,ls),
(128,1467,o),
(271,1568,o),
(871,1568,cs),
(1089,1568,ls),
(1138.37,1568,o),
(1171,1535.37,o),
(1171,1486,cs),
(1171,1484,ls)
);
},
{
closed = 1;
nodes = (
(2017,756.238,o),
(2008.94,749.68,o),
(1998.4,751.875,cs),
(1921.25,767.947,ls),
(1860.73,780.556,o),
(1825.33,823.266,o),
(1824.18,885.08,cs),
(1814.98,1377.18,o),
(1723.14,1402,o),
(1274,1402,cs),
(1056,1402,ls),
(1006.63,1402,o),
(974,1434.63,o),
(974,1484,cs),
(974,1486,ls),
(974,1535.37,o),
(1006.63,1568,o),
(1056,1568,cs),
(1274,1568,ls),
(1874,1568,o),
(2017,1467,o),
(2017,788,cs),
(2017,767,ls)
);
},
{
closed = 1;
nodes = (
(311.935,786.32,o),
(320,779.762,o),
(320,769,cs),
(320,748,ls),
(320,182,o),
(394,134,o),
(871,134,cs),
(1089,134,ls),
(1138.37,134,o),
(1171,101.368,o),
(1171,52,cs),
(1171,50,ls),
(1171,0.632,o),
(1138.37,-32,o),
(1089,-32,cs),
(871,-32,ls),
(301.725,-32,o),
(143.844,76.925,o),
(129.167,650.937,cs),
(127.649,710.303,o),
(163.342,755.363,o),
(221.479,767.475,cs),
(301.399,784.125,ls)
);
},
{
closed = 1;
nodes = (
(974,101.368,o),
(1006.63,134,o),
(1056,134,cs),
(1274,134,ls),
(1751,134,o),
(1825,182,o),
(1825,748,cs),
(1825,769,ls),
(1825,779.762,o),
(1833.06,786.32,o),
(1843.6,784.125,cs),
(1923.52,767.475,ls),
(1981.66,755.363,o),
(2017.35,710.303,o),
(2015.83,650.937,cs),
(2001.16,76.925,o),
(1843.27,-32,o),
(1274,-32,cs),
(1056,-32,ls),
(1006.63,-32,o),
(974,0.632,o),
(974,50,cs),
(974,52,ls)
);
}
);
width = 2145;
}
);
unicode = 79;
},
{
glyphname = Oinvertedbreve;
layers = (
{
layerId = "5DBDC0A0-6414-4D3D-B0CB-A567F0B74D18";
shapes = (
{
closed = 1;
nodes = (
(1334.75,2010,o),
(1469.58,1945,o),
(1498.94,1768.73,cs),
(1505.88,1727.06,o),
(1474.48,1690,o),
(1433.05,1690,c),
(1435.69,1690,l),
(1378.1,1690,o),
(1350.04,1712.45,o),
(1337.39,1768.63,cs),
(1327.8,1811.22,o),
(1309.09,1841.01,o),
(1281,1858,cs),
(1254,1874,o),
(1201,1882,o),
(1121,1882,cs),
(1041,1882,o),
(989,1875,o),
(966,1861,cs),
(935.857,1842.65,o),
(915.591,1811.85,o),
(905.2,1768.6,cs),
(891.443,1711.34,o),
(864.37,1690,o),
(807.316,1690,c),
(809.738,1690,l),
(767.908,1690,o),
(736.186,1727.49,o),
(743.109,1768.74,cs),
(772.569,1944.3,o),
(907.366,2010,o),
(1121,2010,cs)
);
},
{
pos = (1,0);
ref = O;
}
);
width = 2241;
}
);
unicode = 526;
},
{
glyphname = Oslash;
layers = (
{
layerId = "5DBDC0A0-6414-4D3D-B0CB-A567F0B74D18";
shapes = (
{
closed = 1;
nodes = (
(1405.37,1568,o),
(1417.22,1576.01,o),
(1422.95,1590.27,cs),
(1472.25,1712.98,ls),
(1491.37,1760.57,o),
(1535.45,1779.42,o),
(1583.07,1760.37,cs),
(1584.93,1759.63,ls),
(1632.47,1740.61,o),
(1651.19,1696.55,o),
(1631.88,1649.13,cs),
(1605.1,1583.34,ls),
(1600.04,1570.92,o),
(1606.5,1559.97,o),
(1619.82,1558.39,cs),
(1654.95,1554.23,o),
(1695.85,1548.1,o),
(1742,1540,cs),
(1858,1520,o),
(1971,1457,o),
(2025,1372,cs),
(2110,1238,o),
(2113,1034,o),
(2113,812,cs),
(2113,768,l),
(2113,712,ls),
(2113,495,o),
(2110,297,o),
(2025,164,cs),
(1997,120,o),
(1957,83,o),
(1905,54,cs),
(1802,-4,o),
(1637,-32,o),
(1410,-32,cs),
(978,-32,ls),
(962.628,-32,o),
(950.783,-40.006,o),
(945.052,-54.27,cs),
(895.75,-176.977,ls),
(876.628,-224.569,o),
(832.55,-243.42,o),
(784.928,-224.371,cs),
(783.072,-223.629,ls),
(735.501,-204.6,o),
(716.701,-160.54,o),
(735.882,-113.03,cs),
(759.964,-53.382,ls),
(764.837,-41.312,o),
(757.974,-30.785,o),
(744.964,-30.373,cs),
(563.064,-24.619,o),
(427.076,3.213,o),
(337,54,cs),
(192,135,o),
(138,296,o),
(132,520,cs),
(130,595,o),
(129,677,o),
(129,768,cs),
(129,843,ls),
(129,1053,o),
(133,1243,o),
(216,1372,cs),
(244,1416,o),
(285,1453,o),
(337,1482,cs),
(440,1540,o),
(605,1568,o),
(832,1568,cs),
(1390,1568,ls)
);
},
{
closed = 1;
nodes = (
(394,1338,o),
(357,1283,o),
(339,1190,cs),
(327,1129,o),
(321,988,o),
(321,768,cs),
(321,551,o),
(327,415,o),
(338,359,cs),
(358,255,o),
(388,200,o),
(472,166,cs),
(535,141,o),
(655,128,o),
(832,128,cs),
(833.5,128,ls),
(856.34,128,o),
(824.273,106.353,o),
(832.813,127.536,cs),
(1340.03,1385.74,ls),
(1344.8,1397.59,o),
(1337.77,1408,o),
(1325,1408,cs),
(832,1408,ls),
(655,1408,o),
(535,1395,o),
(472,1370,cs)
);
},
{
closed = 1;
nodes = (
(1847,198,o),
(1884,253,o),
(1902,346,cs),
(1915,410,o),
(1921,551,o),
(1921,768,cs),
(1921,985,o),
(1915,1121,o),
(1904,1177,cs),
(1874,1330,o),
(1808,1385,o),
(1625,1400,cs),
(1604.64,1402.26,o),
(1582.02,1403.96,o),
(1557.97,1405.08,cs),
(1542.92,1405.78,o),
(1530.77,1397.99,o),
(1525.14,1384.01,cs),
(1027.97,150.261,ls),
(1023.2,138.411,o),
(1030.22,128,o),
(1043,128,cs),
(1410,128,ls),
(1587,128,o),
(1706,141,o),
(1769,166,cs)
);
}
);
width = 2241;
}
);
unicode = 216;
},
{
glyphname = OE;
layers = (
{
layerId = "5DBDC0A0-6414-4D3D-B0CB-A567F0B74D18";
shapes = (
{
closed = 1;
nodes = (
(1651.09,1565,o),
(1799.03,1538.01,o),
(1899.19,1484.03,cs),
(1910.06,1478.17,o),
(1920,1484.11,o),
(1920,1496.45,cs),
(1920,1505,ls),
(1920,1523.66,o),
(1932.34,1536,o),
(1951,1536,cs),
(3377,1536,ls),
(3424.56,1536,o),
(3456,1504.56,o),
(3456,1457,cs),
(3456,1455,ls),
(3456,1407.44,o),
(3424.56,1376,o),
(3377,1376,cs),
(2136,1376,ls),
(2121.59,1376,o),
(2112,1366.41,o),
(2112,1352,cs),
(2112,888,ls),
(2112,873.593,o),
(2121.59,864,o),
(2136,864,cs),
(3313,864,ls),
(3360.56,864,o),
(3392,832.562,o),
(3392,785,cs),
(3392,783,ls),
(3392,735.438,o),
(3360.56,704,o),
(3313,704,cs),
(2136,704,ls),
(2121.59,704,o),
(2112,694.407,o),
(2112,680,cs),
(2112,184,ls),
(2112,169.593,o),
(2121.59,160,o),
(2136,160,cs),
(3377,160,ls),
(3424.56,160,o),
(3456,128.562,o),
(3456,81,cs),
(3456,79,ls),
(3456,31.438,o),
(3424.56,3.85,o),
(3377,9.675,cs),
(1951,-3.796,ls),
(1932.34,-1.511,o),
(1920,12.336,o),
(1920,31,cs),
(1920,39.548,ls),
(1920,51.913,o),
(1910.06,57.879,o),
(1899.15,52.068,cs),
(1793.89,-3.977,o),
(1630.78,-32,o),
(1409,-32,cs),
(831,-32,ls),
(604,-32,o),
(439,-4,o),
(336,54,cs),
(191,135,o),
(137,296,o),
(131,520,cs),
(129,595,o),
(128,677,o),
(128,768,cs),
(128,843,ls),
(128,1053,o),
(133,1243,o),
(216,1372,cs),
(244,1416,o),
(284,1453,o),
(336,1482,cs),
(435,1537,o),
(583,1565,o),
(780,1565,cs),
(797,1565,o),
(814,1564,o),
(831,1564,cs),
(1409,1564,ls),
(1425,1564,o),
(1441,1565,o),
(1457,1565,cs)
);
},
{
closed = 1;
nodes = (
(1846,198,o),
(1883,253,o),
(1901,346,cs),
(1914,410,o),
(1920,551,o),
(1920,768,cs),
(1920,985,o),
(1915,1121,o),
(1904,1177,cs),
(1884,1280,o),
(1851,1336,o),
(1768,1370,cs),
(1691,1401,o),
(1596,1404,o),
(1484,1404,cs),
(1409,1404,l),
(831,1404,ls),
(804,1405,o),
(778,1405,o),
(753,1405,cs),
(505,1405,o),
(375,1380,o),
(338,1190,cs),
(326,1129,o),
(320,988,o),
(320,768,cs),
(320,551,o),
(325,415,o),
(336,359,cs),
(356,255,o),
(387,200,o),
(471,166,cs),
(534,141,o),
(654,128,o),
(831,128,cs),
(1409,128,ls),
(1586,128,o),
(1705,141,o),
(1768,166,cs)
);
}
);
width = 3520;
}
);
unicode = 338;
},
{
glyphname = P;
layers = (
{
layerId = "5DBDC0A0-6414-4D3D-B0CB-A567F0B74D18";
shapes = (
{
closed = 1;
nodes = (
(1611,1536,o),
(1778,1499,o),
(1848,1424,cs),
(1890,1378,o),
(1914,1312,o),
(1918,1225,cs),
(1920,1184,o),
(1920,1137,o),
(1920,1086,cs),
(1920,927,o),
(1914,808,o),
(1832,730,cs),
(1804,703,o),
(1762,681,o),
(1710,663,cs),
(1603,626,o),
(1439,608,o),
(1215,608,cs),
(408,608,ls),
(393.593,608,o),
(384,598.407,o),
(384,584,cs),
(384,95,ls),
(384,37.806,o),
(346.195,4.63,o),
(289,1.163,cs),
(287,-1.163,ls),
(229.805,-4.63,o),
(192,37.806,o),
(192,95,cs),
(192,1436,ls),
(192,1496.2,o),
(231.795,1536,o),
(292,1536,cs),
(1346,1536,ls)
);
},
{
closed = 1;
nodes = (
(1389,768,o),
(1502,773,o),
(1554,784,cs),
(1640,802,o),
(1683,818,o),
(1708,881,cs),
(1721,913,o),
(1728,966,o),
(1728,1041,cs),
(1728,1116,o),
(1728,1169,o),
(1726,1200,cs),
(1720,1305,o),
(1672,1342,o),
(1575,1360,cs),
(1515,1371,o),
(1395,1376,o),
(1215,1376,cs),
(408,1376,ls),
(393.593,1376,o),
(384,1366.41,o),
(384,1352,cs),
(384,792,ls),
(384,777.593,o),
(393.593,768,o),
(408,768,cs),
(1215,768,ls)
);
}
);
width = 1984;
}
);
unicode = 80;
},
{
glyphname = Thorn;
layers = (
{
layerId = "5DBDC0A0-6414-4D3D-B0CB-A567F0B74D18";
shapes = (
{
closed = 1;
nodes = (
(128,1498.19,o),
(165.805,1536,o),
(223,1536,cs),
(225,1536,ls),
(282.195,1536,o),
(320,1498.19,o),
(320,1441,cs),
(320,1368,ls),
(320,1353.59,o),
(329.593,1344,o),
(344,1344,cs),
(1282,1344,ls),
(1466,1344,o),
(1601,1327,o),
(1686,1294,cs),
(1729,1277,o),
(1761,1257,o),
(1784,1232,cs),
(1854,1157,o),
(1856,1040,o),
(1856,894,cs),
(1856,843,o),
(1854,796,o),
(1852,752,cs),
(1847,659,o),
(1820,587,o),
(1768,538,cs),
(1682,456,o),
(1476,416,o),
(1151,416,cs),
(344,416,ls),
(329.593,416,o),
(320,406.407,o),
(320,392,cs),
(320,95,ls),
(320,37.806,o),
(282.195,4.63,o),
(225,1.163,cs),
(223,-1.163,ls),
(165.805,-4.63,o),
(128,37.806,o),
(128,95,cs),
(128,1441,ls)
);
},
{
closed = 1;
nodes = (
(320,585.593,o),
(329.593,576,o),
(344,576,cs),
(1151,576,ls),
(1325,576,o),
(1445,583,o),
(1511,597,cs),
(1610,618,o),
(1656,664,o),
(1662,776,cs),
(1664,810,o),
(1664,862,o),
(1664,935,cs),
(1664,1106,o),
(1636,1144,o),
(1495,1170,cs),
(1446,1179,o),
(1331,1184,o),
(1151,1184,cs),
(344,1184,ls),
(329.593,1184,o),
(320,1174.41,o),
(320,1160,cs),
(320,600,ls)
);
}
);
width = 1920;
}
);
unicode = 222;
},
{
glyphname = Q;
layers = (
{
layerId = "5DBDC0A0-6414-4D3D-B0CB-A567F0B74D18";
shapes = (
{
closed = 1;
nodes = (
(2066.93,-188.782,o),
(2024.42,-193.531,o),
(1988.35,-165.285,cs),
(1166.65,478.285,ls),
(1130.89,506.285,o),
(1126.18,548.526,o),
(1154.87,583.725,cs),
(1156.13,585.275,ls),
(1185.07,620.782,o),
(1227.58,625.531,o),
(1263.65,597.285,cs),
(2085.35,-46.285,ls),
(2121.11,-74.285,o),
(2125.82,-116.526,o),
(2097.13,-151.725,cs),
(2095.87,-153.275,ls)
);
},
{
ref = O;
}
);
width = 2145;
}
);
unicode = 81;
},
{
glyphname = R;
layers = (
{
layerId = "5DBDC0A0-6414-4D3D-B0CB-A567F0B74D18";
shapes = (
{
closed = 1;
nodes = (
(1952,95,ls),
(1952,37.806,o),
(1914.19,4.63,o),
(1857,1.163,cs),
(1855,-1.163,ls),
(1797.81,-4.63,o),
(1760,37.806,o),
(1760,95,cs),
(1760,288,ls),
(1760,492,o),
(1752,556,o),
(1607,587,cs),
(1540,601,o),
(1420,608,o),
(1247,608,cs),
(408,608,ls),
(393.593,608,o),
(384,598.407,o),
(384,584,cs),
(384,95,ls),
(384,37.806,o),
(346.195,4.63,o),
(289,1.163,cs),
(287,-1.163,ls),
(229.805,-4.63,o),
(192,37.806,o),
(192,95,cs),
(192,1436,ls),
(192,1496.2,o),
(231.795,1536,o),
(292,1536,cs),
(1279,1536,ls),
(1604,1536,o),
(1810,1499,o),
(1896,1424,cs),
(1980,1350,o),
(1984,1238,o),
(1984,1078,cs),
(1984,850.142,o),
(1922.07,714.718,o),
(1730.67,676.172,cs),
(1724.27,674.884,o),
(1724.29,669.207,o),
(1730.71,667.968,cs),
(1912.4,632.892,o),
(1952,522.141,o),
(1952,288,cs)
);
},
{
closed = 1;
nodes = (
(1452,768,o),
(1566,773,o),
(1618,784,cs),
(1704,802,o),
(1747,818,o),
(1772,881,cs),
(1785,913,o),
(1792,966,o),
(1792,1041,cs),
(1792,1116,o),
(1792,1169,o),
(1790,1200,cs),
(1784,1305,o),
(1736,1342,o),
(1639,1360,cs),
(1579,1371,o),
(1459,1376,o),
(1279,1376,cs),
(408,1376,ls),
(393.593,1376,o),
(384,1366.41,o),
(384,1352,cs),
(384,792,ls),
(384,777.593,o),
(393.593,768,o),
(408,768,cs),
(1279,768,ls)
);
}
);
width = 2112;
}
);
unicode = 82;
},
{
glyphname = Rinvertedbreve;
layers = (
{
layerId = "5DBDC0A0-6414-4D3D-B0CB-A567F0B74D18";
shapes = (
{
closed = 1;
nodes = (
(885.752,2010,o),
(1020.58,1945,o),
(1049.94,1768.73,cs),
(1056.88,1727.06,o),
(1025.48,1690,o),
(984.053,1690,c),
(986.686,1690,l),
(929.102,1690,o),
(901.036,1712.45,o),
(888.387,1768.63,cs),
(878.795,1811.22,o),
(860.093,1841.01,o),
(832,1858,cs),
(805,1874,o),
(752,1882,o),
(672,1882,cs),
(592,1882,o),
(540,1875,o),
(517,1861,cs),
(486.857,1842.65,o),
(466.591,1811.85,o),
(456.2,1768.6,cs),
(442.443,1711.34,o),
(415.371,1690,o),
(358.316,1690,c),
(360.738,1690,l),
(318.908,1690,o),
(287.186,1727.49,o),
(294.109,1768.74,cs),
(323.569,1944.3,o),
(458.366,2010,o),
(672,2010,cs)
);
},
{
pos = (-63,0);
ref = R;
}
);
width = 2048;
}
);
unicode = 530;
},
{
glyphname = S;
layers = (
{
layerId = "5DBDC0A0-6414-4D3D-B0CB-A567F0B74D18";
shapes = (
{
closed = 1;
nodes = (
(1181,1434.63,o),
(1148.37,1402,o),
(1099,1402,cs),
(876,1402,ls),
(466.544,1402,o),
(354.038,1391.68,o),
(330.385,1226.84,cs),
(321.19,1162.75,o),
(285.708,1132,o),
(221.778,1132,c),
(223.237,1132,l),
(170.187,1132,o),
(131.975,1174.11,o),
(137.116,1226.91,cs),
(163.43,1497.16,o),
(324.594,1568,o),
(866,1568,cs),
(1099,1568,ls),
(1148.37,1568,o),
(1181,1535.37,o),
(1181,1486,cs),
(1181,1484,ls)
);
},
{
closed = 1;
nodes = (
(976,101.368,o),
(1008.63,134,o),
(1058,134,cs),
(1296,134,ls),
(1709.42,134,o),
(1805.09,167.051,o),
(1823.25,349.039,cs),
(1829.43,411.01,o),
(1865.88,444,o),
(1927.72,444,cs),
(1927.89,444,ls),
(1981.7,444,o),
(2019.88,402.728,o),
(2015.69,349.079,cs),
(1993.45,64.039,o),
(1849.6,-32,o),
(1306,-32,cs),
(1058,-32,ls),
(1008.63,-32,o),
(976,0.632,o),
(976,50,cs),
(976,52,ls)
);
},
{
closed = 1;
nodes = (
(1140.37,134,o),
(1173,101.368,o),
(1173,52,cs),
(1173,50,ls),
(1173,0.632,o),
(1140.37,-32,o),
(1091,-32,cs),
(853,-32,ls),
(340.253,-32,o),
(156.686,38.914,o),
(135.19,473.999,cs),
(132.472,529.011,o),
(170.534,569,o),
(225.496,569,cs),
(227.236,569,ls),
(286.84,569,o),
(324.126,533.569,o),
(327.164,474.043,cs),
(343.706,149.998,o),
(460.266,134,o),
(853,134,cs),
(1091,134,ls)
);
},
{
closed = 1;
nodes = (
(1011.63,1402,o),
(979,1434.63,o),
(979,1484,cs),
(979,1486,ls),
(979,1535.37,o),
(1011.63,1568,o),
(1061,1568,cs),
(1284,1568,ls),
(1766.58,1568,o),
(1965.77,1540.89,o),
(1989.55,1112,cs),
(1992.58,1057.24,o),
(1954.51,1017,o),
(1899.81,1017,cs),
(1898.4,1017,ls),
(1838.26,1017,o),
(1801.08,1051.98,o),
(1797.41,1112.01,cs),
(1778.07,1428.05,o),
(1646.98,1402,o),
(1284,1402,cs),
(1061,1402,ls)
);
},
{
closed = 1;
nodes = (
(285.04,1132,o),
(320.96,1100.67,o),
(329.675,1037.13,cs),
(347.941,903.951,o),
(432.722,877,o),
(796,877,cs),
(1091.5,877,ls),
(1142.37,877,o),
(1176,843.373,o),
(1176,792.5,cs),
(1176,790.5,ls),
(1176,739.627,o),
(1142.37,706,o),
(1091.5,706,cs),
(766,706,ls),
(274.679,706,o),
(156.026,791.386,o),
(136.301,1037.01,cs),
(131.855,1092.36,o),
(168.437,1132,o),
(219.906,1132,cs),
(220.906,1132,ls)
);
},
{
closed = 1;
nodes = (
(1866.6,444,o),
(1830.24,476.449,o),
(1823.11,538.928,cs),
(1806.09,688.094,o),
(1719.69,706,o),
(1316,706,cs),
(1060.5,706,ls),
(1009.63,706,o),
(976,739.627,o),
(976,790.5,cs),
(976,792.5,ls),
(976,843.373,o),
(1009.63,877,o),
(1060.5,877,cs),
(1386,877,ls),
(1888.24,877,o),
(1998.76,794.153,o),
(2016.22,539.008,cs),
(2020.01,483.6,o),
(1983.02,444,o),
(1930.48,444,cs),
(1929.48,444,ls)
);
}
);
width = 2142;
}
);
unicode = 83;
},
{
glyphname = T;
layers = (
{
layerId = "5DBDC0A0-6414-4D3D-B0CB-A567F0B74D18";
shapes = (
{
closed = 1;
nodes = (
(1856,1407.44,o),
(1824.56,1376,o),
(1777,1376,cs),
(1112,1376,ls),
(1097.59,1376,o),
(1088,1366.41,o),
(1088,1352,cs),
(1088,95,ls),
(1088,37.806,o),
(1050.19,4.63,o),
(993,1.163,cs),
(991,-1.163,ls),
(933.805,-4.63,o),
(896,37.806,o),
(896,95,cs),
(896,1352,ls),
(896,1366.41,o),
(886.407,1376,o),
(872,1376,cs),
(207,1376,ls),
(159.438,1376,o),
(128,1407.44,o),
(128,1455,cs),
(128,1457,ls),
(128,1504.56,o),
(159.438,1536,o),
(207,1536,cs),
(1777,1536,ls),
(1824.56,1536,o),
(1856,1504.56,o),
(1856,1457,cs),
(1856,1455,ls)
);
}
);
width = 1984;
}
);
unicode = 84;
},
{
glyphname = U;
layers = (
{
layerId = "5DBDC0A0-6414-4D3D-B0CB-A567F0B74D18";
shapes = (
{
closed = 1;
nodes = (
(328,824.301,o),
(292.462,780.596,o),
(232.979,768.204,cs),
(231.021,767.796,ls),
(176.796,756.499,o),
(136,789.672,o),
(136,845.061,cs),
(136,1441,ls),
(136,1498.19,o),
(173.805,1536,o),
(231,1536,cs),
(233,1536,ls),
(290.195,1536,o),
(328,1498.19,o),
(328,1441,cs),
(328,885.061,ls)
);
},
{
closed = 1;
nodes = (
(319.935,786.32,o),
(328,779.762,o),
(328,769,cs),
(328,748,ls),
(328,181,o),
(404,134,o),
(879,134,cs),
(1089,134,ls),
(1138.37,134,o),
(1171,101.368,o),
(1171,52,cs),
(1171,50,ls),
(1171,0.632,o),
(1138.37,-32,o),
(1089,-32,cs),
(879,-32,ls),
(309.725,-32,o),
(151.844,76.925,o),
(137.167,650.937,cs),
(135.649,710.303,o),
(171.342,755.363,o),
(229.479,767.475,cs),
(309.399,784.125,ls)
);
},
{
closed = 1;
nodes = (
(1827.54,780.596,o),
(1792,824.301,o),
(1792,885.061,cs),
(1792,1441,ls),
(1792,1498.19,o),
(1829.81,1536,o),
(1887,1536,cs),
(1889,1536,ls),
(1946.19,1536,o),
(1984,1498.19,o),
(1984,1441,cs),
(1984,845.061,ls),
(1984,789.672,o),
(1943.2,756.499,o),
(1888.98,767.796,cs),
(1887.02,768.204,ls)
);
},
{
closed = 1;
nodes = (
(949,101.368,o),
(981.632,134,o),
(1031,134,cs),
(1241,134,ls),
(1716,134,o),
(1792,181,o),
(1792,748,cs),
(1792,769,ls),
(1792,779.762,o),
(1800.06,786.32,o),
(1810.6,784.125,cs),
(1890.52,767.475,ls),
(1948.66,755.363,o),
(1984.35,710.303,o),
(1982.83,650.937,cs),
(1968.16,76.925,o),
(1810.27,-32,o),
(1241,-32,cs),
(1031,-32,ls),
(981.632,-32,o),
(949,0.632,o),
(949,50,cs),
(949,52,ls)
);
}
);
width = 2120;
}
);
unicode = 85;
},
{
glyphname = Uinvertedbreve;
layers = (
{
layerId = "5DBDC0A0-6414-4D3D-B0CB-A567F0B74D18";
shapes = (
{
closed = 1;
nodes = (
(1270.75,2010,o),
(1405.58,1945,o),
(1434.94,1768.73,cs),
(1441.88,1727.06,o),
(1410.48,1690,o),
(1369.05,1690,c),
(1371.69,1690,l),
(1314.1,1690,o),
(1286.04,1712.45,o),
(1273.39,1768.63,cs),
(1263.8,1811.22,o),
(1245.09,1841.01,o),
(1217,1858,cs),
(1190,1874,o),
(1137,1882,o),
(1057,1882,cs),
(977,1882,o),
(925,1875,o),
(902,1861,cs),
(871.857,1842.65,o),
(851.591,1811.85,o),
(841.2,1768.6,cs),
(827.443,1711.34,o),
(800.37,1690,o),
(743.316,1690,c),
(745.738,1690,l),
(703.908,1690,o),
(672.186,1727.49,o),
(679.109,1768.74,cs),
(708.569,1944.3,o),
(843.366,2010,o),
(1057,2010,cs)
);
},
{
ref = U;
}
);
width = 2113;
}
);
unicode = 534;
},
{
glyphname = V;
layers = (
{
layerId = "5DBDC0A0-6414-4D3D-B0CB-A567F0B74D18";
shapes = (
{
closed = 1;
nodes = (
(1935.18,1536,o),
(1960.75,1493.07,o),
(1936.37,1448.07,cs),
(1199.63,87.929,ls),
(1168.83,31.074,o),
(1116.66,4.328,o),
(1052,1.225,cs),
(996,-1.225,ls),
(931.339,-4.328,o),
(879.168,31.074,o),
(848.372,87.929,cs),
(111.628,1448.07,ls),
(87.252,1493.07,o),
(112.819,1536,o),
(164,1536,cs),
(188,1536,ls),
(252.597,1536,o),
(304.401,1504.62,o),
(334.325,1447.38,cs),
(1012.88,149.269,ls),
(1018.33,138.845,o),
(1029.67,138.845,o),
(1035.12,149.269,cs),
(1713.67,1447.38,ls),
(1743.6,1504.62,o),
(1795.4,1536,o),
(1860,1536,cs),
(1884,1536,ls)
);
}
);
width = 2048;
}
);
unicode = 86;
},
{
glyphname = W;
layers = (
{
layerId = "5DBDC0A0-6414-4D3D-B0CB-A567F0B74D18";
shapes = (
{
closed = 1;
nodes = (
(1772.31,1536,o),
(1822.74,1503.5,o),
(1849.3,1444.93,cs),
(2422.09,181.857,ls),
(2426.64,171.829,o),
(2437.25,171.881,o),
(2441.7,181.952,cs),
(2999.58,1444.53,ls),
(3025.55,1503.31,o),
(3075.74,1536,o),
(3140,1536,cs),
(3164,1536,ls),
(3216.68,1536,o),
(3244.28,1492.98,o),
(3222.33,1445.09,cs),
(2601.67,90.906,ls),
(2574.86,32.42,o),
(2524.34,4.367,o),
(2460,1.225,cs),
(2404,-1.225,ls),
(2339.69,-4.371,o),
(2289.29,32.518,o),
(2262.78,91.111,cs),
(1705.89,1322.13,ls),
(1701.33,1332.21,o),
(1690.67,1332.21,o),
(1686.11,1322.13,cs),
(1129.22,91.111,ls),
(1102.71,32.518,o),
(1052.31,4.371,o),
(988,1.225,cs),
(932,-1.225,ls),
(867.487,-4.346,o),
(816.13,31.741,o),
(787.279,89.443,cs),
(108.721,1446.56,ls),
(85.502,1493,o),
(112.079,1536,o),
(164,1536,cs),
(188,1536,ls),
(252.467,1536,o),
(303.593,1504.07,o),
(331.884,1446.14,cs),
(949.468,181.566,ls),
(954.4,171.466,o),
(965.27,171.621,o),
(969.912,181.857,cs),
(1542.7,1444.93,ls),
(1569.26,1503.5,o),
(1619.69,1536,o),
(1684,1536,cs),
(1708,1536,ls)
);
}
);
width = 3328;
}
);
unicode = 87;
},
{
glyphname = X;
layers = (
{
layerId = "5DBDC0A0-6414-4D3D-B0CB-A567F0B74D18";
shapes = (
{
closed = 1;
nodes = (
(2068.9,38.665,o),
(2054.1,7.091,o),
(2012,1.225,cs),
(1940,-1.225,ls),
(1875.34,-4.328,o),
(1813.69,23.595,o),
(1765.55,66.762,cs),
(1092.87,669.977,ls),
(1081.9,679.81,o),
(1068.2,679.692,o),
(1057.41,669.672,cs),
(409.29,68.034,ls),
(361.846,23.992,o),
(300.735,4.319,o),
(236,1.225,cs),
(164,-1.225,ls),
(121.385,-7.028,o),
(106.067,39.031,o),
(137.306,68.016,cs),
(919.406,793.676,ls),
(929.711,803.237,o),
(929.6,816.641,o),
(919.138,826.03,cs),
(202.425,1469.21,ls),
(171.09,1497.33,o),
(185.897,1536,o),
(228,1536,cs),
(300,1536,ls),
(364.663,1536,o),
(426.285,1512.38,o),
(474.385,1469.16,cs),
(1052.15,950.04,ls),
(1063.1,940.198,o),
(1076.8,940.307,o),
(1087.6,950.321,cs),
(1645.68,1467.99,ls),
(1693.14,1512.02,o),
(1754.27,1536,o),
(1819,1536,cs),
(1891,1536,ls),
(1933.62,1536,o),
(1948.95,1496.96,o),
(1917.71,1467.96,cs),
(1226.59,826.329,ls),
(1216.29,816.765,o),
(1216.4,803.361,o),
(1226.87,793.974,cs),
(2037.56,66.773,ls)
);
}
);
width = 2176;
}
);
unicode = 88;
},
{
glyphname = Y;
layers = (
{
layerId = "5DBDC0A0-6414-4D3D-B0CB-A567F0B74D18";
shapes = (
{
closed = 1;
nodes = (
(348.955,1536,o),
(407.951,1510.42,o),
(452.342,1463,cs),
(1071.6,801.521,ls),
(1081.26,791.196,o),
(1094.74,791.196,o),
(1104.4,801.521,cs),
(1723.66,1463,ls),
(1768.05,1510.42,o),
(1827.05,1536,o),
(1892,1536,cs),
(1948,1536,ls),
(1992.32,1536,o),
(2009.35,1495.92,o),
(1978.59,1464.02,cs),
(1200.66,657.276,ls),
(1189.86,646.08,o),
(1184,631.554,o),
(1184,616,cs),
(1184,95,ls),
(1184,37.806,o),
(1146.19,4.63,o),
(1089,1.163,cs),
(1087,-1.163,ls),
(1029.81,-4.63,o),
(992,37.806,o),
(992,95,cs),
(992,616,ls),
(992,631.554,o),
(986.137,646.08,o),
(975.341,657.276,cs),
(197.414,1464.02,ls),
(166.648,1495.92,o),
(183.678,1536,o),
(228,1536,cs),
(284,1536,ls)
);
}
);
width = 2200;
}
);
unicode = 89;
},
{
glyphname = Z;
layers = (
{
layerId = "5DBDC0A0-6414-4D3D-B0CB-A567F0B74D18";
shapes = (
{
closed = 1;
nodes = (
(128,132.378,o),
(149.377,177.493,o),
(189.139,210.03,cs),
(1595.43,1360.8,ls),
(1603.04,1367.03,o),
(1599.84,1376,o),
(1590,1376,cs),
(271,1376,ls),
(223.438,1376,o),
(192,1407.44,o),
(192,1455,cs),
(192,1457,ls),
(192,1504.56,o),
(223.438,1536,o),
(271,1536,cs),
(1809,1536,ls),
(1856.56,1536,o),
(1888,1504.56,o),
(1888,1457,cs),
(1888,1455,ls),
(1888,1403.62,o),
(1866.58,1358.56,o),
(1826.73,1326.13,cs),
(412.614,175.15,ls),
(405.001,168.954,o),
(408.184,160,o),
(418,160,cs),
(1841,160,ls),
(1888.56,160,o),
(1920,128.562,o),
(1920,81,cs),
(1920,79,ls),
(1920,31.438,o),
(1888.56,3.85,o),
(1841,9.675,cs),
(207,-9.675,ls),
(159.438,-3.85,o),
(128,31.438,o),
(128,79,cs),
(128,81,ls)
);
}
);
width = 2046;
}
);
unicode = 90;
},
{
glyphname = a;
layers = (
{
layerId = "5DBDC0A0-6414-4D3D-B0CB-A567F0B74D18";
shapes = (
{
closed = 1;
nodes = (
(1297.62,472.6,o),
(1289.84,457.651,o),
(1275.32,454.593,cs),
(1271.54,453.797,ls),
(1255.92,450.509,o),
(1244.07,460.172,o),
(1244.16,476.13,cs),
(1246.67,962.361,o),
(1234.01,1024,o),
(813,1024,cs),
(522.273,1024,o),
(408.163,1009.06,o),
(367.771,944.879,cs),
(313.469,858.596,o),
(301.524,852,o),
(214.317,852,c),
(241.939,852,l),
(192.74,852,o),
(154.712,898.364,o),
(164.336,946.612,cs),
(205.067,1150.79,o),
(398.214,1184,o),
(813,1184,cs),
(1352,1184,o),
(1436,1037,o),
(1436,554,cs),
(1436,95,ls),
(1436,37.806,o),
(1398.19,4.63,o),
(1341,1.163,cs),
(1339,-1.163,ls),
(1281.81,-4.63,o),
(1244,37.806,o),
(1244,95,cs),
(1244,199.169,ls),
(1244,213.037,o),
(1254.61,221.241,o),
(1268.03,217.752,cs),
(1270.2,217.189,ls),
(1283.64,213.694,o),
(1289.28,201.079,o),
(1282.92,188.734,cs),
(1204,35.467,o),
(1112.3,-22,o),
(736,-22,cs),
(391,-22,o),
(129,13,o),
(129,321,cs),
(129,634,o),
(352,669,o),
(736,669,cs),
(1118.07,669,o),
(1248.4,587.63,o),
(1291.65,486.538,cs)
);
},
{
closed = 1;
nodes = (
(1244,504,o),
(1107,513,o),
(736,513,cs),
(405,513,o),
(321,500,o),
(321,321,cs),
(321,147,o),
(405,134,o),
(736,134,cs),
(1107,134,o),
(1244,139,o),
(1244,330,cs)
);
}
);
width = 1560;
}
);
unicode = 97;
},
{
glyphname = ainvertedbreve;
layers = (
{
layerId = "5DBDC0A0-6414-4D3D-B0CB-A567F0B74D18";
shapes = (
{
closed = 1;
nodes = (
(1047.75,1562,o),
(1182.58,1497,o),
(1211.94,1320.73,cs),
(1218.88,1279.06,o),
(1187.48,1242,o),
(1146.05,1242,c),
(1148.69,1242,l),
(1091.1,1242,o),
(1063.04,1264.45,o),
(1050.39,1320.63,cs),
(1040.8,1363.22,o),
(1022.09,1393.01,o),
(994,1410,cs),
(967,1426,o),
(914,1434,o),
(834,1434,cs),
(754,1434,o),
(702,1427,o),
(679,1413,cs),
(648.857,1394.65,o),
(628.591,1363.85,o),
(618.2,1320.6,cs),
(604.443,1263.34,o),
(577.37,1242,o),
(520.316,1242,c),
(522.738,1242,l),
(480.908,1242,o),
(449.186,1279.49,o),
(456.109,1320.74,cs),
(485.569,1496.3,o),
(620.366,1562,o),
(834,1562,cs)
);
},
{
pos = (5,0);
ref = a;
}
);
width = 1600;
}
);
unicode = 515;
},
{
glyphname = ae;
layers = (
{
layerId = "5DBDC0A0-6414-4D3D-B0CB-A567F0B74D18";
shapes = (
{
closed = 1;
nodes = (
(2056,1120,o),
(2155,1114,o),
(2222,1102,cs),
(2490.87,1052.67,o),
(2615.69,916.357,o),
(2623.6,608.005,cs),
(2624.04,590.888,o),
(2621.14,564.544,o),
(2616.98,547.932,cs),
(2615.76,543.03,ls),
(2610.87,523.489,o),
(2596.16,512,o),
(2576.02,512,cs),
(1484,512,ls),
(1476.86,512,o),
(1472,507.135,o),
(1472,500,cs),
(1472,486,ls),
(1474,337,o),
(1500,237,o),
(1590,184,cs),
(1683,129,o),
(1821,128,o),
(1980,128,cs),
(2071,128,o),
(2144,131,o),
(2202,136,cs),
(2302.64,144.751,o),
(2378.81,162.543,o),
(2412.68,226.993,cs),
(2455.69,308.838,o),
(2474.17,320,o),
(2556.56,320,c),
(2538.77,320,l),
(2587.23,320,o),
(2624.91,272.752,o),
(2614.12,225.504,cs),
(2595.87,145.526,o),
(2552.36,86.226,o),
(2484,48,cs),
(2389,-5,o),
(2232,-32,o),
(2016,-32,cs),
(1743.86,-32,o),
(1519.46,-9.044,o),
(1397.37,126.62,cs),
(1387.66,137.409,o),
(1376.5,137.444,o),
(1366.71,126.701,cs),
(1295.11,48.143,o),
(1168.08,-2.758,o),
(984,-26,cs),
(931,-33,o),
(856,-36,o),
(762,-36,cs),
(459,-36,o),
(128,8,o),
(128,293,cs),
(128,453,o),
(187,558,o),
(304,606,cs),
(375,635,o),
(454,651,o),
(542,654,cs),
(630,657,o),
(703,659,o),
(763,659,cs),
(944.765,659,o),
(1176.92,637.278,o),
(1263.48,561.439,cs),
(1271.67,554.269,o),
(1279.99,558.093,o),
(1279.88,568.975,cs),
(1277.81,773.796,o),
(1248.08,894.73,o),
(1100,938,cs),
(1049,953,o),
(970,960,o),
(863,960,cs),
(756,960,o),
(673,957,o),
(615,952,cs),
(514.33,943.246,o),
(437.607,925.445,o),
(403.466,860.942,cs),
(360.087,778.987,o),
(341.84,768,o),
(259.271,768,c),
(277.296,768,l),
(228.864,768,o),
(191.076,815.248,o),
(201.72,862.496,cs),
(219.738,942.474,o),
(262.9,1001.77,o),
(332,1040,cs),
(428,1093,o),
(596,1120,o),
(834,1120,cs),
(987,1120,o),
(1093,1109,o),
(1153,1088,cs),
(1260.65,1049.02,o),
(1320.07,1004.02,o),
(1370.42,917.03,cs),
(1376.38,906.739,o),
(1387.13,906.82,o),
(1392.93,917.204,cs),
(1481.12,1074.99,o),
(1668.16,1120,o),
(1925,1120,cs)
);
},
{
closed = 1;
nodes = (
(975,128,o),
(1087,131,o),
(1184,176,cs),
(1248,206,o),
(1280,254,o),
(1280,320,cs),
(1280,385,o),
(1244,430,o),
(1170,456,cs),
(1094,483,o),
(961,496,o),
(770,496,cs),
(574,496,o),
(455,488,o),
(414,473,cs),
(340,445,o),
(320,413,o),
(320,320,cs),
(320,232,o),
(342,190,o),
(409,164,cs),
(445,150,o),
(496,141,o),
(564,136,cs),
(632,131,o),
(716,128,o),
(814,128,cs)
);
},
{
closed = 1;
nodes = (
(1482.93,774.778,o),
(1474.15,724.99,o),
(1472.35,664.028,cs),
(1471.93,649.985,o),
(1481.63,640,o),
(1495.68,640,cs),
(2408.43,640,ls),
(2422.38,640,o),
(2432.08,650.084,o),
(2431.54,664.026,cs),
(2427.24,775.164,o),
(2392.45,853.032,o),
(2328,896,cs),
(2264,939,o),
(2145,960,o),
(1972,960,cs),
(1756,960,o),
(1559,960,o),
(1498,812,cs)
);
}
);
width = 2752;
}
);
unicode = 230;
},
{
glyphname = b;
layers = (
{
layerId = "5DBDC0A0-6414-4D3D-B0CB-A567F0B74D18";
shapes = (
{
closed = 1;
nodes = (
(169.805,-4.63,o),
(132,37.806,o),
(132,95,cs),
(132,1441,ls),
(132,1498.19,o),
(169.805,1536,o),
(227,1536,cs),
(229,1536,ls),
(286.195,1536,o),
(324,1498.19,o),
(324,1441,cs),
(324,95,ls),
(324,37.806,o),
(286.195,4.63,o),
(229,1.163,cs),
(227,-1.163,ls)
);
},
{
closed = 1;
nodes = (
(804.526,1184.29,o),
(837,1152.7,o),
(837,1106.19,cs),
(837,1103.89,ls),
(837,1055.55,o),
(806.329,1024.26,o),
(758.003,1023.29,cs),
(410.004,1016.3,o),
(330.997,953.266,o),
(324.462,630.541,cs),
(323.86,600.822,o),
(304.653,582,o),
(274.979,582,cs),
(272.866,582,ls),
(244.247,582,o),
(224.877,601.845,o),
(225.571,630.456,cs),
(236.619,1086.16,o),
(408.205,1173.29,o),
(758.021,1183,cs)
);
},
{
closed = 1;
nodes = (
(837,9.301,o),
(804.567,-22.282,o),
(758.021,-21.047,cs),
(408.073,-11.758,o),
(236.489,72.502,o),
(225.558,533.536,cs),
(224.88,562.164,o),
(244.251,582,o),
(272.887,582,cs),
(275.016,582,ls),
(304.663,582,o),
(323.866,563.169,o),
(324.446,533.529,cs),
(330.87,205.491,o),
(409.728,145.25,o),
(758.027,138.667,cs),
(806.294,137.755,o),
(837,106.463,o),
(837,58.188,cs),
(837,55.864,ls)
);
},
{
closed = 1;
nodes = (
(837,1152.63,o),
(869.103,1184.18,o),
(916.013,1183.36,cs),
(1342.18,1175.95,o),
(1518.26,1098.25,o),
(1539.73,677.003,cs),
(1542.53,622.056,o),
(1504.47,582,o),
(1449.57,582,cs),
(1446.6,582,ls),
(1388.09,582,o),
(1350.56,618.464,o),
(1348.88,676.95,cs),
(1340.7,961.267,o),
(1279.85,1017.39,o),
(916.002,1023.41,cs),
(867.803,1024.21,o),
(837,1055.52,o),
(837,1103.72,cs),
(837,1105.71,ls)
);
},
{
closed = 1;
nodes = (
(869.063,-22.176,o),
(837,9.359,o),
(837,56.291,cs),
(837,58.315,ls),
(837,106.474,o),
(867.844,137.802,o),
(915.997,138.551,cs),
(1280.42,144.222,o),
(1340.89,197.823,o),
(1348.91,487.038,cs),
(1350.54,545.485,o),
(1388.08,582,o),
(1446.55,582,cs),
(1449.38,582,ls),
(1504.4,582,o),
(1542.52,541.936,o),
(1539.78,486.983,cs),
(1518.54,60.611,o),
(1342.51,-14.312,o),
(916.013,-21.396,cs)
);
}
);
width = 1638;
}
);
unicode = 98;
},
{
glyphname = c;
layers = (
{
layerId = "5DBDC0A0-6414-4D3D-B0CB-A567F0B74D18";
shapes = (
{
closed = 1;
nodes = (
(768.908,1184.18,o),
(801,1152.64,o),
(801,1105.74,cs),
(801,1103.73,ls),
(801,1055.53,o),
(770.194,1024.21,o),
(722.003,1023.41,cs),
(358.171,1017.39,o),
(297.307,961.275,o),
(289.125,677.002,cs),
(287.44,618.467,o),
(249.909,582,o),
(191.391,582,cs),
(188.554,582,ls),
(133.588,582,o),
(95.471,622.109,o),
(98.269,677.003,cs),
(119.74,1098.25,o),
(295.823,1175.95,o),
(721.987,1183.36,cs)
);
},
{
closed = 1;
nodes = (
(801,9.368,o),
(768.927,-22.176,o),
(721.987,-21.396,cs),
(295.489,-14.312,o),
(119.464,60.611,o),
(98.219,486.983,cs),
(95.478,541.993,o),
(133.541,582,o),
(188.485,582,cs),
(191.469,582,ls),
(249.928,582,o),
(287.464,545.491,o),
(289.085,487.054,cs),
(297.108,197.836,o),
(357.572,144.227,o),
(721.96,138.552,cs),
(770.16,137.801,o),
(801,106.477,o),
(801,58.321,cs),
(801,56.316,ls)
);
},
{
closed = 1;
nodes = (
(831.878,1024.18,o),
(801,1055.51,o),
(801,1103.63,cs),
(801,1105.69,ls),
(801,1152.64,o),
(833.012,1184.16,o),
(879.961,1183.43,cs),
(1245.95,1177.74,o),
(1434.69,1125.96,o),
(1469.18,879.86,cs),
(1476.06,830.776,o),
(1439.73,789,o),
(1390.92,789,c),
(1398.68,789,l),
(1330.14,789,o),
(1298.83,813.193,o),
(1281.54,879.511,cs),
(1252.29,991.691,o),
(1148.55,1019.56,o),
(879.995,1023.48,cs)
);
},
{
closed = 1;
nodes = (
(832.997,-22.157,o),
(801,9.369,o),
(801,56.368,cs),
(801,58.439,ls),
(801,106.504,o),
(831.889,137.825,o),
(879.95,138.493,cs),
(1157.16,142.34,o),
(1256.86,170.758,o),
(1283.17,293.314,cs),
(1297.08,358.12,o),
(1329.11,384,o),
(1393.64,384,c),
(1389.67,384,l),
(1439.4,384,o),
(1475.98,342.487,o),
(1469.74,293.154,cs),
(1437.1,35.285,o),
(1251.38,-15.946,o),
(880.023,-21.459,cs)
);
}
);
width = 1571;
}
);
unicode = 99;
},
{
glyphname = ccedilla;
layers = (
{
layerId = "5DBDC0A0-6414-4D3D-B0CB-A567F0B74D18";
shapes = (
{
closed = 1;
nodes = (
(915.383,-526.188,o),
(859.092,-537.484,o),
(782.997,-541.888,cs),
(737.553,-544.519,o),
(704,-512.852,o),
(704,-467.461,cs),
(704,-457.468,ls),
(704,-412.709,o),
(730.514,-384.762,o),
(775.211,-382.408,cs),
(810.386,-380.555,o),
(834.649,-377.086,o),
(848,-372,cs),
(876,-361,o),
(896,-336,o),
(896,-300,cs),
(896,-284,o),
(895,-272,o),
(893,-264,cs),
(888.198,-245.477,o),
(857.039,-233.543,o),
(799.525,-227.875,cs),
(737.259,-221.739,o),
(704,-185.042,o),
(704,-122.869,cs),
(704,-53.087,ls),
(704,-38.455,o),
(694.663,-28.596,o),
(680.053,-27.799,cs),
(432.036,-14.283,o),
(261.468,30.281,o),
(182,196,cs),
(146,272,o),
(128,388,o),
(128,544,cs),
(128,700,o),
(146,816,o),
(182,892,cs),
(222,977,o),
(293,1036,o),
(394,1070,cs),
(492,1103,o),
(638,1120,o),
(833,1120,cs),
(1080,1120,o),
(1251,1087,o),
(1345,1020,cs),
(1416.29,969.631,o),
(1453.96,898.847,o),
(1467.3,798.805,cs),
(1474.17,747.317,o),
(1436.24,704,o),
(1384.95,704,c),
(1386.72,704,l),
(1321.12,704,o),
(1285.73,734.101,o),
(1275.2,798.85,cs),
(1261.43,883.535,o),
(1220.18,907.017,o),
(1121,937,cs),
(1070,952,o),
(974,960,o),
(833,960,cs),
(664,960,o),
(544,948,o),
(473,924,cs),
(399,899,o),
(361,861,o),
(338,786,cs),
(327,750,o),
(321,669,o),
(321,544,cs),
(321,419,o),
(327,336,o),
(340,294,cs),
(374,181,o),
(477,150,o),
(618,136,cs),
(676,130,o),
(762,128,o),
(875,128,cs),
(988,128,o),
(1079,138,o),
(1148,159,cs),
(1181,169,o),
(1207,181,o),
(1225,196,cs),
(1256.79,222.065,o),
(1270.79,246.514,o),
(1276.78,289.131,cs),
(1285.76,353.087,o),
(1321.31,384,o),
(1385.1,384,c),
(1384.3,384,l),
(1435.95,384,o),
(1474.13,340.389,o),
(1467.3,289.195,cs),
(1453.96,189.153,o),
(1416.29,118.369,o),
(1345,68,cs),
(1251,1,o),
(1080,-32,o),
(833,-32,cs),
(831.5,-32,ls),
(807.665,-32,o),
(832,-7.665,o),
(832,-31.5,cs),
(832,-103.648,ls),
(832,-118.441,o),
(841.172,-127.903,o),
(855.957,-128.364,cs),
(1010.94,-133.196,o),
(1088,-186.12,o),
(1088,-288,cs),
(1088,-411,o),
(1038,-465,o),
(951,-508,cs)
);
}
);
width = 1601;
}
);
unicode = 231;
},
{
glyphname = d;
layers = (
{
layerId = "5DBDC0A0-6414-4D3D-B0CB-A567F0B74D18";
shapes = (
{
closed = 1;
nodes = (
(1506,37.806,o),
(1468.19,4.63,o),
(1411,1.163,cs),
(1409,-1.163,ls),
(1351.81,-4.63,o),
(1314,37.806,o),
(1314,95,cs),
(1314,1441,ls),
(1314,1498.19,o),
(1351.81,1536,o),
(1409,1536,cs),
(1411,1536,ls),
(1468.19,1536,o),
(1506,1498.19,o),
(1506,1441,cs),
(1506,95,ls)
);
},
{
closed = 1;
nodes = (
(801,1152.7,o),
(833.478,1184.29,o),
(879.979,1183,cs),
(1229.79,1173.29,o),
(1401.38,1086.16,o),
(1412.43,630.456,cs),
(1413.12,601.845,o),
(1393.75,582,o),
(1365.13,582,cs),
(1363.02,582,ls),
(1333.35,582,o),
(1314.14,600.823,o),
(1313.54,630.49,cs),
(1307.01,953.262,o),
(1228.01,1016.3,o),
(879.989,1023.29,cs),
(831.666,1024.26,o),
(801,1055.54,o),
(801,1103.87,cs),
(801,1106.18,ls)
);
},
{
closed = 1;
nodes = (
(833.43,-22.282,o),
(801,9.298,o),
(801,55.857,cs),
(801,58.163,ls),
(801,106.453,o),
(831.715,137.755,o),
(879.997,138.668,cs),
(1228.26,145.252,o),
(1307.12,205.494,o),
(1313.55,533.492,cs),
(1314.13,563.162,o),
(1333.35,582,o),
(1363,582,cs),
(1365.11,582,ls),
(1393.75,582,o),
(1413.12,562.164,o),
(1412.44,533.536,cs),
(1401.51,72.502,o),
(1229.93,-11.758,o),
(879.979,-21.047,cs)
);
},
{
closed = 1;
nodes = (
(768.908,1184.18,o),
(801,1152.64,o),
(801,1105.74,cs),
(801,1103.73,ls),
(801,1055.53,o),
(770.194,1024.21,o),
(722.003,1023.41,cs),
(358.171,1017.39,o),
(297.307,961.275,o),
(289.125,677.002,cs),
(287.44,618.467,o),
(249.909,582,o),
(191.391,582,cs),
(188.554,582,ls),
(133.588,582,o),
(95.471,622.109,o),
(98.269,677.003,cs),
(119.74,1098.25,o),
(295.823,1175.95,o),
(721.987,1183.36,cs)
);
},
{
closed = 1;
nodes = (
(801,9.368,o),
(768.927,-22.176,o),
(721.987,-21.396,cs),
(295.489,-14.312,o),
(119.464,60.611,o),
(98.219,486.983,cs),
(95.478,541.993,o),
(133.541,582,o),
(188.485,582,cs),
(191.469,582,ls),
(249.928,582,o),
(287.464,545.491,o),
(289.085,487.054,cs),
(297.108,197.836,o),
(357.572,144.227,o),
(721.96,138.552,cs),
(770.16,137.801,o),
(801,106.477,o),
(801,58.321,cs),
(801,56.316,ls)
);
}
);
width = 1638;
}
);
unicode = 100;
},
{
glyphname = eth;
layers = (
{
layerId = "5DBDC0A0-6414-4D3D-B0CB-A567F0B74D18";
shapes = (
{
closed = 1;
nodes = (
(1845,297,o),
(1793,134,o),
(1648,54,cs),
(1544,-4,o),
(1378,-32,o),
(1152,-32,cs),
(831,-32,ls),
(556,-32,o),
(367,8,o),
(264,88,cs),
(165,165,o),
(128,278,o),
(128,448,cs),
(128,528,o),
(138,598,o),
(157,658,cs),
(227,876,o),
(495,928,o),
(794,928,cs),
(913,928,o),
(1010,928,o),
(1083,926,cs),
(1358.68,919.502,o),
(1545.62,892.327,o),
(1643.01,843.673,cs),
(1654.25,838.059,o),
(1664,844.171,o),
(1663.85,856.687,cs),
(1662.63,958.595,o),
(1653.72,1044.34,o),
(1637.12,1112.76,cs),
(1633.88,1126.12,o),
(1621.72,1132.68,o),
(1608.78,1128.04,cs),
(1383.06,1047.16,ls),
(1347.5,1034.42,o),
(1315.58,1049.5,o),
(1302.84,1085.06,cs),
(1302.16,1086.94,ls),
(1289.42,1122.5,o),
(1304.49,1154.44,o),
(1340.04,1167.2,cs),
(1556.97,1245.09,ls),
(1569.01,1249.41,o),
(1572.74,1262.35,o),
(1564.85,1272.42,cs),
(1514.61,1336.54,o),
(1453.21,1365.19,o),
(1351,1388,cs),
(1292,1401,o),
(1183,1408,o),
(1024,1408,cs),
(820,1408,o),
(668,1395,o),
(566,1369,cs),
(516,1356,o),
(477,1341,o),
(448,1324,cs),
(397.631,1293.63,o),
(369.209,1261.07,o),
(357.856,1198.26,cs),
(348.011,1143.8,o),
(319.518,1120,o),
(265.208,1120,c),
(267.133,1120,l),
(223.87,1120,o),
(192.301,1155.4,o),
(197.238,1198.38,cs),
(205.002,1265.98,o),
(223.388,1321.45,o),
(252,1364,cs),
(375,1547,o),
(693,1568,o),
(1006,1568,cs),
(1112,1568,o),
(1203,1563,o),
(1278,1553,cs),
(1485.99,1525.46,o),
(1634.44,1451.02,o),
(1725.09,1330.53,cs),
(1734.62,1317.85,o),
(1747.42,1314.02,o),
(1762.36,1319.37,cs),
(1944.94,1384.83,ls),
(1980.5,1397.57,o),
(2012.42,1382.5,o),
(2025.16,1346.94,cs),
(2025.84,1345.06,ls),
(2038.58,1309.5,o),
(2023.5,1277.57,o),
(1987.95,1264.83,cs),
(1818.98,1204.24,ls),
(1805.04,1199.24,o),
(1799.33,1187.47,o),
(1804.03,1173.42,cs),
(1838.68,1070,o),
(1856,934.589,o),
(1856,768,cs),
(1856,677,o),
(1854,595,o),
(1852,520,cs)
);
},
{
closed = 1;
nodes = (
(328,600,o),
(320,538,o),
(320,448,cs),
(320,244,o),
(364,188,o),
(524,148,cs),
(578,135,o),
(680,128,o),
(831,128,cs),
(1152,128,ls),
(1328,128,o),
(1474,132,o),
(1566,200,cs),
(1648,261,o),
(1664,364,o),
(1664,514,cs),
(1664,595,o),
(1647,651,o),
(1613,682,cs),
(1561,730,o),
(1478,744,o),
(1376,754,cs),
(1233,768,o),
(1045,768,o),
(876,768,cs),
(868,768,l),
(821,768,ls),
(686,768,o),
(601,767,o),
(500,742,cs),
(422,723,o),
(381,696,o),
(346,632,cs)
);
}
);
width = 1984;
}
);
unicode = 240;
},
{
glyphname = dcroat;
layers = (
{
layerId = "5DBDC0A0-6414-4D3D-B0CB-A567F0B74D18";
shapes = (
{
closed = 1;
nodes = (
(1336.39,972.818,o),
(1344,975.362,o),
(1344,984.448,cs),
(1344,1225,ls),
(1344,1239.41,o),
(1334.41,1249,o),
(1320,1249,cs),
(975,1249,ls),
(927.438,1249,o),
(896,1280.44,o),
(896,1328,cs),
(896,1330,ls),
(896,1377.56,o),
(927.438,1409,o),
(975,1409,cs),
(1320,1409,ls),
(1334.41,1409,o),
(1344,1418.59,o),
(1344,1433,cs),
(1344,1473.5,ls),
(1344,1511.13,o),
(1368.87,1536,o),
(1406.5,1536,cs),
(1473.5,1536,ls),
(1511.13,1536,o),
(1536,1511.13,o),
(1536,1473.5,cs),
(1536,1433,ls),
(1536,1418.59,o),
(1545.59,1409,o),
(1560,1409,cs),
(1601,1409,ls),
(1638.93,1409,o),
(1664,1383.93,o),
(1664,1346,cs),
(1664,1312,ls),
(1664,1274.07,o),
(1638.93,1249,o),
(1601,1249,cs),
(1560,1249,ls),
(1545.59,1249,o),
(1536,1239.41,o),
(1536,1225,cs),
(1536,95,ls),
(1536,37.806,o),
(1498.19,4.63,o),
(1441,1.163,cs),
(1406.5,-7.654,ls),
(1368.87,-3.046,o),
(1344,24.872,o),
(1344,62.5,cs),
(1344,102.565,ls),
(1344,111.574,o),
(1336.36,114.104,o),
(1330.98,106.874,cs),
(1262.15,14.291,o),
(1095.55,-32,o),
(832,-32,cs),
(494,-32,o),
(250,19,o),
(166,265,cs),
(141,339,o),
(128,432,o),
(128,544,cs),
(128,870,o),
(236,1039,o),
(506,1093,cs),
(595,1111,o),
(686,1120,o),
(778,1120,cs),
(1008.24,1120,o),
(1243.88,1095.76,o),
(1330.93,980.079,cs)
);
},
{
closed = 1;
nodes = (
(826,128,ls),
(1039,128,o),
(1221,128,o),
(1296,264,cs),
(1328,322,o),
(1344,415,o),
(1344,541,cs),
(1344,770,o),
(1306,895,o),
(1135,938,cs),
(1076,953,o),
(992,960,o),
(883,960,cs),
(774,960,o),
(692,958,o),
(638,954,cs),
(499,943,o),
(395,911,o),
(352,808,cs),
(330,756,o),
(320,669,o),
(320,544,cs),
(320,419,o),
(329,336,o),
(346,295,cs),
(363,254,o),
(384,223,o),
(408,204,cs),
(497,132,o),
(658,128,o),
(824,128,cs)
);
}
);
width = 1664;
}
);
unicode = 273;
},
{
glyphname = e;
layers = (
{
layerId = "5DBDC0A0-6414-4D3D-B0CB-A567F0B74D18";
shapes = (
{
closed = 1;
nodes = (
(760.906,1184.18,o),
(793,1152.64,o),
(793,1105.74,cs),
(793,1103.73,ls),
(793,1055.53,o),
(762.197,1024.21,o),
(714.004,1023.41,cs),
(350.991,1017.38,o),
(296.038,961.254,o),
(288.951,676.997,cs),
(287.496,618.648,o),
(249.923,582,o),
(191.582,582,cs),
(188.636,582,ls),
(133.591,582,o),
(95.485,622.018,o),
(98.178,676.998,cs),
(118.814,1098.22,o),
(288.57,1175.94,o),
(713.963,1183.36,cs)
);
},
{
closed = 1;
nodes = (
(798,9.359,o),
(765.937,-22.176,o),
(719.011,-21.396,cs),
(292.779,-14.312,o),
(119.121,60.611,o),
(98.186,486.983,cs),
(95.483,542.024,o),
(133.545,582,o),
(188.52,582,cs),
(191.543,582,ls),
(249.935,582,o),
(287.484,545.426,o),
(289.022,487.054,cs),
(296.64,197.836,o),
(354.884,144.227,o),
(718.989,138.552,cs),
(767.16,137.801,o),
(798,106.477,o),
(798,58.32,cs),
(798,56.291,ls)
);
},
{
closed = 1;
nodes = (
(1297.02,597,o),
(1263,631.025,o),
(1263,682.5,cs),
(1263,770,ls),
(1263,959.173,o),
(1210.9,1016.35,o),
(872.002,1023.26,cs),
(823.653,1024.24,o),
(793,1055.53,o),
(793,1103.87,cs),
(793,1105.95,ls),
(793,1152.66,o),
(825.275,1184.21,o),
(871.973,1183.17,cs),
(1260.28,1174.47,o),
(1447,1093.77,o),
(1447,770,cs),
(1447,682.5,ls),
(1447,631.025,o),
(1412.98,597,o),
(1361.5,597,cs),
(1348.5,597,ls)
);
},
{
closed = 1;
nodes = (
(829.754,-22.11,o),
(798,9.377,o),
(798,56.614,cs),
(798,58.637,ls),
(798,106.521,o),
(829.07,137.878,o),
(876.952,138.317,cs),
(1144.42,140.771,o),
(1233.95,159.263,o),
(1259.27,253.925,cs),
(1276.8,319.443,o),
(1306.18,342,o),
(1371.33,342,c),
(1364.3,342,l),
(1412.46,342,o),
(1448.02,301.439,o),
(1441.73,253.69,cs),
(1409.84,11.75,o),
(1232.08,-18.721,o),
(876.989,-21.713,cs)
);
},
{
closed = 1;
nodes = (
(1447,552.647,o),
(1417.35,523,o),
(1372.5,523,cs),
(272.5,523,ls),
(227.647,523,o),
(198,552.647,o),
(198,597.5,cs),
(198,599.5,ls),
(198,644.353,o),
(227.647,674,o),
(272.5,674,cs),
(1372.5,674,ls),
(1417.35,674,o),
(1447,644.353,o),
(1447,599.5,cs),
(1447,597.5,ls)
);
}
);
width = 1564;
}
);
unicode = 101;
},
{
glyphname = einvertedbreve;
layers = (
{
layerId = "5DBDC0A0-6414-4D3D-B0CB-A567F0B74D18";
shapes = (
{
closed = 1;
nodes = (
(1045.75,1562,o),
(1180.58,1497,o),
(1209.94,1320.73,cs),
(1216.88,1279.06,o),
(1185.48,1242,o),
(1144.05,1242,c),
(1146.69,1242,l),
(1089.1,1242,o),
(1061.04,1264.45,o),
(1048.39,1320.63,cs),
(1038.8,1363.22,o),
(1020.09,1393.01,o),
(992,1410,cs),
(965,1426,o),
(912,1434,o),
(832,1434,cs),
(752,1434,o),
(700,1427,o),
(677,1413,cs),
(646.857,1394.65,o),
(626.591,1363.85,o),
(616.2,1320.6,cs),
(602.443,1263.34,o),
(575.37,1242,o),
(518.316,1242,c),
(520.738,1242,l),
(478.908,1242,o),
(447.186,1279.49,o),
(454.109,1320.74,cs),
(483.569,1496.3,o),
(618.366,1562,o),
(832,1562,cs)
);
},
{
pos = (32,0);
ref = e;
}
);
width = 1600;
}
);
unicode = 519;
},
{
glyphname = f;
layers = (
{
layerId = "5DBDC0A0-6414-4D3D-B0CB-A567F0B74D18";
shapes = (
{
closed = 1;
nodes = (
(512,37.806,o),
(474.195,4.63,o),
(417,1.163,cs),
(415,-1.163,ls),
(357.805,-4.63,o),
(320,37.806,o),
(320,95,cs),
(320,982,ls),
(320,996.407,o),
(310.407,1006,o),
(296,1006,cs),
(200,1006,ls),
(156.653,1006,o),
(128,1034.65,o),
(128,1078,cs),
(128,1080,ls),
(128,1123.35,o),
(156.653,1152,o),
(200,1152,cs),
(296,1152,ls),
(310.407,1152,o),
(320,1161.59,o),
(320,1176,cs),
(320,1202,ls),
(320,1530,o),
(474,1608,o),
(833,1608,cs),
(979,1608,ls),
(1025.36,1608,o),
(1056,1577.36,o),
(1056,1531,cs),
(1056,1529,ls),
(1056,1482.64,o),
(1025.36,1452,o),
(979,1452,cs),
(832,1452,ls),
(546,1452,o),
(512,1415,o),
(512,1202,cs),
(512,1176,ls),
(512,1161.59,o),
(521.593,1152,o),
(536,1152,cs),
(984,1152,ls),
(1027.35,1152,o),
(1056,1123.35,o),
(1056,1080,cs),
(1056,1078,ls),
(1056,1034.65,o),
(1027.35,1006,o),
(984,1006,cs),
(536,1006,ls),
(521.593,1006,o),
(512,996.407,o),
(512,982,cs),
(512,95,ls)
);
}
);
width = 1056;
}
);
unicode = 102;
},
{
glyphname = g;
layers = (
{
layerId = "5DBDC0A0-6414-4D3D-B0CB-A567F0B74D18";
shapes = (
{
closed = 1;
nodes = (
(1482.51,272,o),
(1504,250.511,o),
(1504,218,cs),
(1504,162,ls),
(1504,-375,o),
(1242,-433,o),
(823,-433,cs),
(503.625,-433,o),
(235.547,-420.75,o),
(173.518,-226.09,cs),
(158.711,-179.623,o),
(194.249,-131,o),
(238.217,-131,c),
(148.296,-131,l),
(305.403,-131,o),
(268.507,-117.574,o),
(388.875,-218.541,cs),
(453.173,-272.475,o),
(600.545,-273,o),
(823,-273,cs),
(1145,-273,o),
(1312,-276,o),
(1312,130,cs),
(1312,202,ls),
(1312,244.143,o),
(1339.86,272,o),
(1382,272,cs),
(1450,272,ls)
);
},
{
closed = 1;
nodes = (
(1504,159.805,o),
(1466.19,122,o),
(1409,122,cs),
(1407,122,ls),
(1349.81,122,o),
(1312,159.805,o),
(1312,217,cs),
(1312,1057,ls),
(1312,1114.19,o),
(1349.81,1152,o),
(1407,1152,cs),
(1409,1152,ls),
(1466.19,1152,o),
(1504,1114.19,o),
(1504,1057,cs),
(1504,217,ls)
);
},
{
closed = 1;
nodes = (
(799,1152.7,o),
(831.454,1184.29,o),
(877.979,1183.02,cs),
(1227.79,1173.54,o),
(1399.38,1088.05,o),
(1410.43,632.45,cs),
(1411.12,603.843,o),
(1391.76,584,o),
(1363.14,584,cs),
(1361.08,584,ls),
(1331.37,584,o),
(1312.14,602.843,o),
(1311.54,632.546,cs),
(1305,955.114,o),
(1225.99,1016.54,o),
(877.984,1023.31,cs),
(829.689,1024.25,o),
(799,1055.54,o),
(799,1103.85,cs),
(799,1106.16,ls)
);
},
{
closed = 1;
nodes = (
(831.664,5.684,o),
(799,37.289,o),
(799,83.607,cs),
(799,85.904,ls),
(799,134.441,o),
(829.475,165.693,o),
(877.997,166.914,cs),
(1223.95,175.619,o),
(1304.06,249.969,o),
(1311.42,535.465,cs),
(1312.18,565.31,o),
(1331.36,584,o),
(1361.16,584,cs),
(1363.17,584,ls),
(1391.73,584,o),
(1411.14,564.024,o),
(1410.32,535.476,cs),
(1398.34,117.62,o),
(1226.73,18.709,o),
(877.979,7.211,cs)
);
},
{
closed = 1;
nodes = (
(766.923,1184.18,o),
(799,1152.64,o),
(799,1105.72,cs),
(799,1103.7,ls),
(799,1055.53,o),
(768.174,1024.2,o),
(720.003,1023.43,cs),
(356.171,1017.6,o),
(295.307,962.958,o),
(287.125,678.959,cs),
(285.44,620.465,o),
(247.91,584,o),
(189.391,584,cs),
(186.53,584,ls),
(131.579,584,o),
(93.471,624.101,o),
(96.269,678.981,cs),
(117.74,1100.02,o),
(293.823,1176.14,o),
(719.987,1183.38,cs)
);
},
{
closed = 1;
nodes = (
(799,37.364,o),
(766.766,5.797,o),
(719.987,6.774,cs),
(296.442,15.626,o),
(119.913,104.625,o),
(96.683,489.053,cs),
(93.39,543.545,o),
(131.474,584,o),
(185.945,584,cs),
(188.844,584,ls),
(247.797,584,o),
(285.229,547.96,o),
(287.461,489.049,cs),
(296.896,240.14,o),
(360.774,174.254,o),
(719.973,166.759,cs),
(768.365,165.749,o),
(799,134.468,o),
(799,86.109,cs),
(799,84.153,ls)
);
}
);
width = 1632;
}
);
unicode = 103;
},
{
glyphname = h;
layers = (
{
layerId = "5DBDC0A0-6414-4D3D-B0CB-A567F0B74D18";
shapes = (
{
closed = 1;
nodes = (
(1284,955,o),
(1185,1024,o),
(836,1024,cs),
(436,1024,o),
(324,930,o),
(324,704,cs),
(324,95,ls),
(324,37.806,o),
(286.195,4.63,o),
(229,1.163,cs),
(227,-1.163,ls),
(169.805,-4.63,o),
(132,37.806,o),
(132,95,cs),
(132,1441,ls),
(132,1498.19,o),
(169.805,1536,o),
(227,1536,cs),
(229,1536,ls),
(286.195,1536,o),
(324,1498.19,o),
(324,1441,cs),
(324,950.182,ls),
(324,941.478,o),
(316.132,939.719,o),
(312.426,947.595,cs),
(311.175,950.253,ls),
(303.983,965.536,o),
(305.426,982.755,o),
(315.062,996.627,cs),
(401.242,1120.7,o),
(512.143,1184,o),
(870,1184,cs),
(1322,1184,o),
(1477,1054,o),
(1477,640,c),
(1476.15,95,ls),
(1476.06,37.785,o),
(1438.21,4.627,o),
(1381,1.163,cs),
(1379,-1.163,ls),
(1321.81,-4.63,o),
(1284,37.806,o),
(1284,95,cs),
(1284,640,ls)
);
}
);
width = 1601;
}
);
unicode = 104;
},
{
glyphname = hbar;
layers = (
{
layerId = "5DBDC0A0-6414-4D3D-B0CB-A567F0B74D18";
shapes = (
{
closed = 1;
nodes = (
(1138,1184,o),
(1298,1138,o),
(1377,1047,cs),
(1454,958,o),
(1473,820,o),
(1473,650,c),
(1472.15,95,ls),
(1472.06,37.786,o),
(1434.21,4.627,o),
(1377,1.163,cs),
(1375,-1.163,ls),
(1317.81,-4.63,o),
(1280,37.806,o),
(1280,95,cs),
(1280,650,ls),
(1280,782,o),
(1267,879,o),
(1200,941,cs),
(1140,996,o),
(1017,1024,o),
(832,1024,cs),
(551,1024,o),
(388,963,o),
(342,841,cs),
(328,803,o),
(320,761,o),
(320,714,cs),
(320,95,ls),
(320,37.806,o),
(282.195,4.63,o),
(225,1.163,cs),
(223,-1.163,ls),
(165.805,-4.63,o),
(128,37.806,o),
(128,95,cs),
(128,1441,ls),
(128,1498.19,o),
(165.805,1536,o),
(223,1536,cs),
(225,1536,ls),
(282.195,1536,o),
(320,1498.19,o),
(320,1441,cs),
(320,994.271,ls),
(320,986.466,o),
(326.737,984.736,o),
(330.497,991.576,cs),
(401.177,1120.14,o),
(589.678,1184,o),
(896,1184,cs)
);
}
);
width = 1601;
}
);
unicode = 295;
},
{
glyphname = i;
layers = (
{
layerId = "5DBDC0A0-6414-4D3D-B0CB-A567F0B74D18";
shapes = (
{
closed = 1;
nodes = (
(346.195,1152,o),
(384,1114.19,o),
(384,1057,cs),
(384,95,ls),
(384,37.806,o),
(346.195,4.63,o),
(289,1.163,cs),
(287,-1.163,ls),
(229.805,-4.63,o),
(192,37.806,o),
(192,95,cs),
(192,1057,ls),
(192,1114.19,o),
(229.805,1152,o),
(287,1152,cs),
(289,1152,ls)
);
},
{
closed = 1;
nodes = (
(229.805,1344,o),
(192,1381.81,o),
(192,1439,cs),
(192,1441,ls),
(192,1498.19,o),
(229.805,1536,o),
(287,1536,cs),
(289,1536,ls),
(346.195,1536,o),
(384,1498.19,o),
(384,1441,cs),
(384,1439,ls),
(384,1381.81,o),
(346.195,1344,o),
(289,1344,cs),
(287,1344,ls)
);
}
);
width = 576;
}
);
unicode = 105;
},
{
glyphname = dotlessi;
layers = (
{
layerId = "5DBDC0A0-6414-4D3D-B0CB-A567F0B74D18";
shapes = (
{
closed = 1;
nodes = (
(128,1050.19,o),
(165.805,1088,o),
(223,1088,cs),
(225,1088,ls),
(282.195,1088,o),
(320,1050.19,o),
(320,993,cs),
(320,95,ls),
(320,37.806,o),
(282.195,4.63,o),
(225,1.163,cs),
(223,-1.163,ls),
(165.805,-4.63,o),
(128,37.806,o),
(128,95,cs),
(128,993,ls)
);
}
);
width = 448;
}
);
unicode = 305;
},
{
glyphname = iinvertedbreve;
layers = (
{
layerId = "5DBDC0A0-6414-4D3D-B0CB-A567F0B74D18";
shapes = (
{
closed = 1;
nodes = (
(438.752,1562,o),
(573.58,1497,o),
(602.94,1320.73,cs),
(609.88,1279.06,o),
(578.483,1242,o),
(537.053,1242,c),
(539.686,1242,l),
(482.102,1242,o),
(454.036,1264.45,o),
(441.387,1320.63,cs),
(431.795,1363.22,o),
(413.093,1393.01,o),
(385,1410,cs),
(358,1426,o),
(305,1434,o),
(225,1434,cs),
(145,1434,o),
(93,1427,o),
(70,1413,cs),
(39.857,1394.65,o),
(19.591,1363.85,o),
(9.2,1320.6,cs),
(-4.557,1263.34,o),
(-31.63,1242,o),
(-88.683,1242,c),
(-86.262,1242,l),
(-128.092,1242,o),
(-159.814,1279.49,o),
(-152.891,1320.74,cs),
(-123.431,1496.3,o),
(11.367,1562,o),
(225,1562,cs)
);
},
{
ref = dotlessi;
}
);
width = 448;
}
);
unicode = 523;
},
{
glyphname = j;
layers = (
{
layerId = "5DBDC0A0-6414-4D3D-B0CB-A567F0B74D18";
shapes = (
{
closed = 1;
nodes = (
(-37,-252.454,o),
(-8.546,-224,o),
(34.5,-224,cs),
(108,-224,ls),
(237,-224,o),
(288,-193,o),
(288,-24,cs),
(288,1057,ls),
(288,1114.19,o),
(325.805,1152,o),
(383,1152,cs),
(385,1152,ls),
(442.195,1152,o),
(480,1114.19,o),
(480,1057,cs),
(480,-24,ls),
(480,-266,o),
(382,-384,o),
(108,-384,cs),
(34.5,-384,ls),
(-8.546,-384,o),
(-37,-355.546,o),
(-37,-312.5,cs),
(-37,-295.5,ls)
);
},
{
closed = 1;
nodes = (
(325.805,1344,o),
(288,1381.81,o),
(288,1439,cs),
(288,1441,ls),
(288,1498.19,o),
(325.805,1536,o),
(383,1536,cs),
(385,1536,ls),
(442.195,1536,o),
(480,1498.19,o),
(480,1441,cs),
(480,1439,ls),
(480,1381.81,o),
(442.195,1344,o),
(385,1344,cs),
(383,1344,ls)
);
}
);
width = 672;
}
);
unicode = 106;
},
{
glyphname = dotlessj;
layers = (
{
layerId = "5DBDC0A0-6414-4D3D-B0CB-A567F0B74D18";
shapes = (
{
closed = 1;
nodes = (
(288,1050.19,o),
(325.805,1088,o),
(383,1088,cs),
(385,1088,ls),
(442.195,1088,o),
(480,1050.19,o),
(480,993,cs),
(480,-64,ls),
(480,-165,o),
(471,-243,o),
(424,-298,cs),
(383.546,-344.927,o),
(311.016,-372.215,o),
(206.939,-380.924,cs),
(162.435,-384.648,o),
(128,-352.974,o),
(128,-308.53,c),
(128,-317.278,l),
(128,-258.639,o),
(150.323,-230.493,o),
(207.422,-217.141,cs),
(270.562,-202.375,o),
(288,-160.75,o),
(288,-64,cs),
(288,993,ls)
);
}
);
width = 608;
}
);
unicode = 567;
},
{
glyphname = k;
layers = (
{
layerId = "5DBDC0A0-6414-4D3D-B0CB-A567F0B74D18";
shapes = (
{
closed = 1;
nodes = (
(282.195,1536,o),
(320,1498.19,o),
(320,1441,cs),
(320,602.382,ls),
(320,581.732,o),
(302.596,571.298,o),
(284.382,581.029,cs),
(282.618,581.971,ls),
(264.455,591.675,o),
(263.536,611.872,o),
(280.742,623.186,cs),
(1001.44,1097.06,ls),
(1054.58,1132,o),
(1121.41,1152,o),
(1185,1152,cs),
(1276,1152,ls),
(1313.32,1152,o),
(1323.82,1117.27,o),
(1292.75,1096.59,cs),
(530.048,588.985,ls),
(509.492,575.304,o),
(488.501,586.812,o),
(488.981,611.5,cs),
(489.019,613.5,ls),
(489.499,638.187,o),
(510.919,648.869,o),
(530.926,634.398,cs),
(1326.97,58.607,ls),
(1358.31,35.943,o),
(1346.67,7.511,o),
(1308,1.225,cs),
(1222,-1.225,ls),
(1157.94,-4.401,o),
(1093.07,21.323,o),
(1041.5,59.333,cs),
(281.155,619.773,ls),
(265.665,631.191,o),
(267.342,650.053,o),
(284.603,658.558,cs),
(286.397,659.442,ls),
(303.827,668.031,o),
(320,657.97,o),
(320,638.539,cs),
(320,95,ls),
(320,37.806,o),
(282.195,4.63,o),
(225,1.163,cs),
(223,-1.163,ls),
(165.805,-4.63,o),
(128,37.806,o),
(128,95,cs),
(128,1441,ls),
(128,1498.19,o),
(165.805,1536,o),
(223,1536,cs),
(225,1536,ls)
);
}
);
width = 1408;
}
);
unicode = 107;
},
{
glyphname = kgreenlandic;
layers = (
{
layerId = "5DBDC0A0-6414-4D3D-B0CB-A567F0B74D18";
shapes = (
{
closed = 1;
nodes = (
(128,1498.19,o),
(165.805,1536,o),
(223,1536,cs),
(225,1536,ls),
(282.195,1536,o),
(320,1498.19,o),
(320,1441,cs),
(320,680,ls),
(320,665.593,o),
(329.593,656,o),
(344,656,cs),
(360,656,ls),
(375.184,656,o),
(391.514,660.611,o),
(404.456,668.552,cs),
(1002.77,1035.7,ls),
(1056.69,1068.79,o),
(1124.73,1088,o),
(1188,1088,cs),
(1276,1088,ls),
(1312.35,1088,o),
(1322.09,1054.17,o),
(1291.29,1034.85,cs),
(580.33,588.756,ls),
(569.619,582.035,o),
(569.393,569.62,o),
(579.853,562.515,cs),
(1325.28,56.188,ls),
(1356.42,35.034,o),
(1345.65,7.636,o),
(1308,1.225,cs),
(1220,-1.225,ls),
(1156.17,-4.429,o),
(1090.31,20.654,o),
(1037.91,57.106,cs),
(403.702,498.294,ls),
(391.125,507.043,o),
(375.32,512,o),
(360,512,cs),
(344,512,ls),
(329.593,512,o),
(320,502.407,o),
(320,488,cs),
(320,95,ls),
(320,37.806,o),
(282.195,4.63,o),
(225,1.163,cs),
(223,-1.163,ls),
(165.805,-4.63,o),
(128,37.806,o),
(128,95,cs),
(128,1441,ls)
);
}
);
width = 1408;
}
);
unicode = 312;
},
{
glyphname = l;
layers = (
{
layerId = "5DBDC0A0-6414-4D3D-B0CB-A567F0B74D18";
shapes = (
{
closed = 1;
nodes = (
(346.195,1536,o),
(384,1498.19,o),
(384,1441,cs),
(384,95,ls),
(384,37.806,o),
(346.195,4.63,o),
(289,1.163,cs),
(287,-1.163,ls),
(229.805,-4.63,o),
(192,37.806,o),
(192,95,cs),
(192,1441,ls),
(192,1498.19,o),
(229.805,1536,o),
(287,1536,cs),
(289,1536,ls)
);
}
);
width = 576;
}
);
unicode = 108;
},
{
glyphname = lslash;
layers = (
{
layerId = "5DBDC0A0-6414-4D3D-B0CB-A567F0B74D18";
shapes = (
{
closed = 1;
nodes = (
(-1.78,898.933,o),
(28.007,935.78,o),
(76.118,949.144,cs),
(499.882,1066.86,ls),
(542.436,1078.68,o),
(576,1053.17,o),
(576,1009,cs),
(576,1007,ls),
(576,957.067,o),
(547.993,920.22,o),
(499.882,906.856,cs),
(76.118,789.144,ls),
(33.564,777.323,o),
(2.133,802.835,o),
(4.837,847,cs),
(-4.837,849,ls)
);
},
{
closed = 1;
nodes = (
(128,1498.19,o),
(165.805,1536,o),
(223,1536,cs),
(225,1536,ls),
(282.195,1536,o),
(320,1498.19,o),
(320,1441,cs),
(320,95,ls),
(320,37.806,o),
(282.195,4.63,o),
(225,1.163,cs),
(223,-1.163,ls),
(165.805,-4.63,o),
(128,37.806,o),
(128,95,cs),
(128,1441,ls)
);
}
);
width = 512;
}
);
unicode = 322;
},
{
glyphname = m;
layers = (
{
layerId = "5DBDC0A0-6414-4D3D-B0CB-A567F0B74D18";
shapes = (
{
closed = 1;
nodes = (
(1145,955,o),
(1036,1024,o),
(776,1024,cs),
(436,1024,o),
(324,930,o),
(324,704,cs),
(324,95,ls),
(324,37.806,o),
(286.195,4.63,o),
(229,1.163,cs),
(227,-1.163,ls),
(169.805,-4.63,o),
(132,37.806,o),
(132,95,cs),
(132,1057,ls),
(132,1114.19,o),
(169.805,1152,o),
(227,1152,cs),
(229,1152,ls),
(286.195,1152,o),
(324,1114.19,o),
(324,1057,cs),
(324,950.182,ls),
(324,941.478,o),
(316.132,939.719,o),
(312.426,947.595,cs),
(311.185,950.231,ls),
(303.986,965.529,o),
(305.42,982.732,o),
(315.052,996.627,cs),
(401.056,1120.7,o),
(508.796,1184,o),
(810,1184,cs),
(1173,1184,o),
(1338,1054,o),
(1338,640,c),
(1337.15,95,ls),
(1337.06,37.785,o),
(1299.21,4.627,o),
(1242,1.163,cs),
(1240,-1.163,ls),
(1182.81,-4.63,o),
(1145,37.806,o),
(1145,95,cs),
(1145,640,ls)
);
},
{
closed = 1;
nodes = (
(2157,955,o),
(2048,1024,o),
(1788,1024,cs),
(1503.03,1024,o),
(1378.23,957.968,o),
(1345.3,803.53,cs),
(1338.38,771.095,o),
(1309.57,768.513,o),
(1296.99,799.201,cs),
(1283.78,831.442,ls),
(1263.61,880.669,o),
(1271.85,951.842,o),
(1302.75,995.154,cs),
(1396.99,1127.3,o),
(1536.7,1184,o),
(1822,1184,cs),
(2185,1184,o),
(2350,1054,o),
(2350,640,c),
(2349.15,95,ls),
(2349.06,37.785,o),
(2311.21,4.627,o),
(2254,1.163,cs),
(2252,-1.163,ls),
(2194.81,-4.63,o),
(2157,37.806,o),
(2157,95,cs),
(2157,640,ls)
);
}
);
width = 2474;
}
);
unicode = 109;
},
{
glyphname = n;
layers = (
{
layerId = "5DBDC0A0-6414-4D3D-B0CB-A567F0B74D18";
shapes = (
{
closed = 1;
nodes = (
(1284,955,o),
(1185,1024,o),
(836,1024,cs),
(436,1024,o),
(324,930,o),
(324,704,cs),
(324,95,ls),
(324,37.806,o),
(286.195,4.63,o),
(229,1.163,cs),
(227,-1.163,ls),
(169.805,-4.63,o),
(132,37.806,o),
(132,95,cs),
(132,1057,ls),
(132,1114.19,o),
(169.805,1152,o),
(227,1152,cs),
(229,1152,ls),
(286.195,1152,o),
(324,1114.19,o),
(324,1057,cs),
(324,950.182,ls),
(324,941.478,o),
(316.132,939.719,o),
(312.426,947.595,cs),
(311.175,950.253,ls),
(303.983,965.536,o),
(305.426,982.755,o),
(315.062,996.627,cs),
(401.242,1120.7,o),
(512.143,1184,o),
(870,1184,cs),
(1322,1184,o),
(1477,1054,o),
(1477,640,c),
(1476.15,95,ls),
(1476.06,37.785,o),
(1438.21,4.627,o),
(1381,1.163,cs),
(1379,-1.163,ls),
(1321.81,-4.63,o),
(1284,37.806,o),
(1284,95,cs),
(1284,640,ls)
);
}
);
width = 1601;
}
);
unicode = 110;
},
{
glyphname = o;
layers = (
{
layerId = "5DBDC0A0-6414-4D3D-B0CB-A567F0B74D18";
shapes = (
{
closed = 1;
nodes = (
(296,1176,o),
(721.987,1183.36,c),
(801,1183,l),
(801,1023,l),
(722.003,1023.41,l),
(358.171,1017.39,o),
(297.307,961.275,o),
(289.125,677.002,c),
(289,582,l),
(98,582,l),
(98.269,677.003,l),
(120,1098,o)
);
},
{
closed = 1;
nodes = (
(721.987,-21.396,l),
(295.489,-14.312,o),
(119.464,60.611,o),
(98.219,486.983,c),
(98,582,l),
(289,582,l),
(289.085,487.054,l),
(297.108,197.836,o),
(357.572,144.227,o),
(721.96,138.552,c),
(801,138,l),
(801,-22,l)
);
},
{
closed = 1;
nodes = (
(880.013,1183.36,l),
(1306.18,1175.95,o),
(1482.26,1098.25,o),
(1503.73,677.003,c),
(1504,582,l),
(1313,582,l),
(1312.88,676.95,l),
(1304.7,961.267,o),
(1243.85,1017.39,o),
(880.002,1023.41,c),
(801,1023,l),
(801,1183,l)
);
},
{
closed = 1;
nodes = (
(1307,-14,o),
(880.013,-21.396,c),
(801,-22,l),
(801,138,l),
(879.997,138.551,l),
(1244.42,144.222,o),
(1304.89,197.823,o),
(1312.91,487.038,c),
(1313,582,l),
(1504,582,l),
(1503.78,486.983,l),
(1483,61,o)
);
}
);
width = 1602;
}
);
unicode = 111;
},
{
glyphname = oinvertedbreve;
layers = (
{
layerId = "5DBDC0A0-6414-4D3D-B0CB-A567F0B74D18";
shapes = (
{
closed = 1;
nodes = (
(1045.75,1562,o),
(1180.58,1497,o),
(1209.94,1320.73,cs),
(1216.88,1279.06,o),
(1185.48,1242,o),
(1144.05,1242,c),
(1146.69,1242,l),
(1089.1,1242,o),
(1061.04,1264.45,o),
(1048.39,1320.63,cs),
(1038.8,1363.22,o),
(1020.09,1393.01,o),
(992,1410,cs),
(965,1426,o),
(912,1434,o),
(832,1434,cs),
(752,1434,o),
(700,1427,o),
(677,1413,cs),
(646.857,1394.65,o),
(626.591,1363.85,o),
(616.2,1320.6,cs),
(602.443,1263.34,o),
(575.37,1242,o),
(518.316,1242,c),
(520.738,1242,l),
(478.908,1242,o),
(447.186,1279.49,o),
(454.109,1320.74,cs),
(483.569,1496.3,o),
(618.366,1562,o),
(832,1562,cs)
);
},
{
pos = (32,0);
ref = o;
}
);
width = 1664;
}
);
unicode = 527;
},
{
glyphname = oslash;
layers = (
{
layerId = "5DBDC0A0-6414-4D3D-B0CB-A567F0B74D18";
shapes = (
{
closed = 1;
nodes = (
(128,870,o),
(236,1039,o),
(506,1093,cs),
(595,1111,o),
(685,1120,o),
(774,1120,cs),
(848.398,1120,o),
(907.423,1118.6,o),
(951.075,1116.39,cs),
(966.543,1115.61,o),
(978.32,1123.07,o),
(984.21,1137.4,cs),
(1023.61,1233.24,ls),
(1043.15,1280.76,o),
(1087.37,1299.45,o),
(1135.07,1280.37,cs),
(1139.51,1278.6,ls),
(1185.42,1260.23,o),
(1203.36,1217.59,o),
(1184.38,1171.92,cs),
(1152.69,1095.65,ls),
(1152.3,1094.72,o),
(1152.89,1093.56,o),
(1153.88,1093.32,c),
(1056.56,1116.32,l),
(1135.99,1097.55,o),
(1535.03,604.395,o),
(1535.66,575.462,cs),
(1535.89,565.139,o),
(1536,554.652,o),
(1536,544,cs),
(1536,218,o),
(1428,49,o),
(1158,-5,cs),
(1069,-23,o),
(979,-32,o),
(890,-32,cs),
(815.602,-32,o),
(756.577,-30.602,o),
(712.925,-28.391,cs),
(697.457,-27.608,o),
(685.68,-35.075,o),
(679.79,-49.399,cs),
(640.385,-145.235,ls),
(620.846,-192.757,o),
(576.635,-211.454,o),
(528.928,-192.371,cs),
(524.315,-190.526,ls),
(478.451,-172.18,o),
(460.418,-129.646,o),
(479.121,-83.925,cs),
(510.55,-7.101,ls),
(510.839,-6.394,o),
(510.391,-5.485,o),
(509.655,-5.283,c),
(606.09,-31.747,l),
(509.06,-5.119,o),
(128,494.6,o),
(128,644,c),
(128,544,l)
);
},
{
closed = 1;
nodes = (
(320,349,o),
(329,209,o),
(500,158,cs),
(514.684,153.105,o),
(530.834,149.189,o),
(548.451,145.566,cs),
(562.905,142.594,o),
(575.4,149.227,o),
(581.035,162.866,cs),
(900.911,937.004,ls),
(905.76,948.739,o),
(898.741,959.411,o),
(886.046,959.607,cs),
(860.628,960,o),
(825.41,960,o),
(780,960,cs),
(653,960,o),
(507,949,o),
(432,896,cs),
(348,837,o),
(320,718,o),
(320,572,cs)
);
},
{
closed = 1;
nodes = (
(1055,128,o),
(1171,149,o),
(1232,192,cs),
(1324,256,o),
(1344,375,o),
(1344,544,cs),
(1344,710,o),
(1324,832,o),
(1234,894,cs),
(1201.38,917.177,o),
(1161.39,932.985,o),
(1114.67,942.057,cs),
(1100.51,944.806,o),
(1087.65,937.884,o),
(1082.14,924.556,cs),
(762.165,150.181,ls),
(757.301,138.408,o),
(764.262,128,o),
(777,128,cs),
(884,128,ls)
);
}
);
width = 1664;
}
);
unicode = 248;
},
{
glyphname = oe;
layers = (
{
layerId = "5DBDC0A0-6414-4D3D-B0CB-A567F0B74D18";
shapes = (
{
closed = 1;
nodes = (
(1756,1099,o),
(1892,1120,o),
(2048,1120,cs),
(2221,1120,o),
(2358,1096,o),
(2458,1049,cs),
(2616.79,973.433,o),
(2682.24,838.393,o),
(2687.63,607.996,cs),
(2688.04,590.771,o),
(2685.11,564.425,o),
(2680.93,547.71,cs),
(2679.76,543.03,ls),
(2674.87,523.489,o),
(2660.16,512,o),
(2640.02,512,cs),
(1559.81,512,ls),
(1545.59,512,o),
(1535.95,502.177,o),
(1536.22,487.957,cs),
(1540.38,267.193,o),
(1604.19,159.243,o),
(1806,138,cs),
(1871,131,o),
(1972,128,o),
(2110,128,cs),
(2248,128,o),
(2346,140,o),
(2404,164,cs),
(2441,179.031,o),
(2465.97,200.079,o),
(2480.45,231.78,cs),
(2514.53,306.386,o),
(2535.72,320,o),
(2610.3,320,c),
(2602.87,320,l),
(2651.31,320,o),
(2688.97,272.679,o),
(2678.1,225.472,cs),
(2643.51,75.295,o),
(2520.84,13.088,o),
(2350,-13,cs),
(2269,-26,o),
(2177,-33,o),
(2083,-33,cs),
(1821.9,-33,o),
(1547.07,22.799,o),
(1451.88,171.142,cs),
(1445.02,181.831,o),
(1434.94,181.891,o),
(1427.93,171.253,cs),
(1391.17,115.446,o),
(1324.29,68.556,o),
(1228,32,cs),
(1103,-16,o),
(980,-32,o),
(794,-32,cs),
(691,-32,o),
(595,-23,o),
(506,-5,cs),
(236,49,o),
(128,218,o),
(128,544,cs),
(128,656,o),
(141,749,o),
(166,823,cs),
(253,1076,o),
(499,1120,o),
(851,1120,cs),
(1052.23,1120,o),
(1366.1,1055.13,o),
(1431.66,918.538,cs),
(1435.98,909.553,o),
(1443.83,909.626,o),
(1447.97,918.678,cs),
(1472.66,972.639,o),
(1536.11,1018.19,o),
(1639,1056,cs)
);
},
{
closed = 1;
nodes = (
(600,128,o),
(704,128,o),
(848,128,cs),
(933,128,o),
(1009,132,o),
(1074,139,cs),
(1292,163,o),
(1344,295,o),
(1344,544,cs),
(1344,640,o),
(1335,716,o),
(1318,771,cs),
(1260,955,o),
(1079,960,o),
(832,960,cs),
(825,960,ls),
(661,960,o),
(523,960,o),
(432,896,cs),
(348,837,o),
(320,718,o),
(320,572,cs),
(320,403,o),
(320,277,o),
(408,204,cs),
(431,185,o),
(462,169,o),
(500,158,cs)
);
},
{
closed = 1;
nodes = (
(1535.93,649.985,o),
(1545.63,640,o),
(1559.68,640,cs),
(2472.43,640,ls),
(2486.38,640,o),
(2496.08,650.084,o),
(2495.54,664.026,cs),
(2491.24,775.164,o),
(2456.45,853.032,o),
(2392,896,cs),
(2307,953,o),
(2190,960,o),
(2036,960,cs),
(1820,960,o),
(1623,960,o),
(1562,812,cs),
(1546.93,774.778,o),
(1538.15,724.99,o),
(1536.35,664.028,cs)
);
}
);
width = 2816;
}
);
unicode = 339;
},
{
glyphname = p;
layers = (
{
layerId = "5DBDC0A0-6414-4D3D-B0CB-A567F0B74D18";
shapes = (
{
closed = 1;
nodes = (
(169.805,-384,o),
(132,-346.195,o),
(132,-289,cs),
(132,1057,ls),
(132,1114.19,o),
(169.805,1152,o),
(227,1152,cs),
(229,1152,ls),
(286.195,1152,o),
(324,1114.19,o),
(324,1057,cs),
(324,-289,ls),
(324,-346.195,o),
(286.195,-384,o),
(229,-384,cs),
(227,-384,ls)
);
},
{
closed = 1;
nodes = (
(804.526,1184.29,o),
(837,1152.7,o),
(837,1106.19,cs),
(837,1103.89,ls),
(837,1055.55,o),
(806.329,1024.26,o),
(758.003,1023.29,cs),
(410.004,1016.3,o),
(330.997,953.266,o),
(324.462,630.541,cs),
(323.86,600.822,o),
(304.653,582,o),
(274.979,582,cs),
(272.866,582,ls),
(244.247,582,o),
(224.877,601.845,o),
(225.571,630.456,cs),
(236.619,1086.16,o),
(408.205,1173.29,o),
(758.021,1183,cs)
);
},
{
closed = 1;
nodes = (
(837,9.301,o),
(804.567,-22.282,o),
(758.021,-21.047,cs),
(408.073,-11.758,o),
(236.489,72.502,o),
(225.558,533.536,cs),
(224.88,562.164,o),
(244.251,582,o),
(272.887,582,cs),
(275.016,582,ls),
(304.663,582,o),
(323.866,563.169,o),
(324.446,533.529,cs),
(330.87,205.491,o),
(409.728,145.25,o),
(758.027,138.667,cs),
(806.294,137.755,o),
(837,106.463,o),
(837,58.188,cs),
(837,55.864,ls)
);
},
{
closed = 1;
nodes = (
(837,1152.63,o),
(869.103,1184.18,o),
(916.013,1183.36,cs),
(1342.18,1175.95,o),
(1518.26,1098.25,o),
(1539.73,677.003,cs),
(1542.53,622.056,o),
(1504.47,582,o),
(1449.57,582,cs),
(1446.6,582,ls),
(1388.09,582,o),
(1350.56,618.464,o),
(1348.88,676.95,cs),
(1340.7,961.267,o),
(1279.85,1017.39,o),
(916.002,1023.41,cs),
(867.803,1024.21,o),
(837,1055.52,o),
(837,1103.72,cs),
(837,1105.71,ls)
);
},
{
closed = 1;
nodes = (
(869.063,-22.176,o),
(837,9.359,o),
(837,56.291,cs),
(837,58.315,ls),
(837,106.474,o),
(867.844,137.802,o),
(915.997,138.551,cs),
(1280.42,144.222,o),
(1340.89,197.823,o),
(1348.91,487.038,cs),
(1350.54,545.485,o),
(1388.08,582,o),
(1446.55,582,cs),
(1449.38,582,ls),
(1504.4,582,o),
(1542.52,541.936,o),
(1539.78,486.983,cs),
(1518.54,60.611,o),
(1342.51,-14.312,o),
(916.013,-21.396,cs)
);
}
);
width = 1638;
}
);
unicode = 112;
},
{
glyphname = thorn;
layers = (
{
layerId = "5DBDC0A0-6414-4D3D-B0CB-A567F0B74D18";
shapes = (
{
closed = 1;
nodes = (
(1428,1039,o),
(1536,870,o),
(1536,544,cs),
(1536,329,o),
(1493,180,o),
(1376,88,cs),
(1269,4,o),
(1074,-32,o),
(886,-32,cs),
(794,-32,o),
(726,-30,o),
(682,-25,cs),
(502.7,-5.789,o),
(386.164,38.527,o),
(333.157,107.949,cs),
(327.615,115.208,o),
(320,112.633,o),
(320,103.5,cs),
(320,-289,ls),
(320,-346.195,o),
(282.195,-384,o),
(225,-384,cs),
(223,-384,ls),
(165.805,-384,o),
(128,-346.195,o),
(128,-289,cs),
(128,1441,ls),
(128,1498.19,o),
(165.805,1536,o),
(223,1536,cs),
(225,1536,ls),
(282.195,1536,o),
(320,1498.19,o),
(320,1441,cs),
(320,985.519,ls),
(320,976.327,o),
(327.694,973.72,o),
(333.282,981.018,cs),
(421.142,1095.77,o),
(655.814,1120,o),
(886,1120,cs),
(978,1120,o),
(1069,1111,o),
(1158,1093,cs)
);
},
{
closed = 1;
nodes = (
(336,766,o),
(320,673,o),
(320,547,cs),
(320,420,o),
(336,326,o),
(368,266,cs),
(437,137,o),
(590,128,o),
(786,128,cs),
(900,128,ls),
(1009,128,o),
(1097,138,o),
(1164,158,cs),
(1246,183,o),
(1285,216,o),
(1318,295,cs),
(1335,336,o),
(1344,419,o),
(1344,544,cs),
(1344,669,o),
(1334,756,o),
(1312,808,cs),
(1250,955,o),
(1053,960,o),
(840,960,cs),
(771,960,o),
(711,959,o),
(661,956,cs),
(510,948,o),
(412,904,o),
(368,824,cs)
);
}
);
width = 1600;
}
);
unicode = 254;
},
{
glyphname = q;
layers = (
{
layerId = "5DBDC0A0-6414-4D3D-B0CB-A567F0B74D18";
shapes = (
{
closed = 1;
nodes = (
(1506,-346.195,o),
(1468.19,-384,o),
(1411,-384,cs),
(1409,-384,ls),
(1351.81,-384,o),
(1314,-346.195,o),
(1314,-289,cs),
(1314,1057,ls),
(1314,1114.19,o),
(1351.81,1152,o),
(1409,1152,cs),
(1411,1152,ls),
(1468.19,1152,o),
(1506,1114.19,o),
(1506,1057,cs),
(1506,-289,ls)
);
},
{
closed = 1;
nodes = (
(801,1152.7,o),
(833.478,1184.29,o),
(879.979,1183,cs),
(1229.79,1173.29,o),
(1401.38,1086.16,o),
(1412.43,630.456,cs),
(1413.12,601.845,o),
(1393.75,582,o),
(1365.13,582,cs),
(1363.02,582,ls),
(1333.35,582,o),
(1314.14,600.823,o),
(1313.54,630.49,cs),
(1307.01,953.262,o),
(1228.01,1016.3,o),
(879.989,1023.29,cs),
(831.666,1024.26,o),
(801,1055.54,o),
(801,1103.87,cs),
(801,1106.18,ls)
);
},
{
closed = 1;
nodes = (
(833.43,-22.282,o),
(801,9.298,o),
(801,55.857,cs),
(801,58.163,ls),
(801,106.453,o),
(831.715,137.755,o),
(879.997,138.668,cs),
(1228.26,145.252,o),
(1307.12,205.494,o),
(1313.55,533.492,cs),
(1314.13,563.162,o),
(1333.35,582,o),
(1363,582,cs),
(1365.11,582,ls),
(1393.75,582,o),
(1413.12,562.164,o),
(1412.44,533.536,cs),
(1401.51,72.502,o),
(1229.93,-11.758,o),
(879.979,-21.047,cs)
);
},
{
closed = 1;
nodes = (
(768.908,1184.18,o),
(801,1152.64,o),
(801,1105.74,cs),
(801,1103.73,ls),
(801,1055.53,o),
(770.194,1024.21,o),
(722.003,1023.41,cs),
(358.171,1017.39,o),
(297.307,961.275,o),
(289.125,677.002,cs),
(287.44,618.467,o),
(249.909,582,o),
(191.391,582,cs),
(188.554,582,ls),
(133.588,582,o),
(95.471,622.109,o),
(98.269,677.003,cs),
(119.74,1098.25,o),
(295.823,1175.95,o),
(721.987,1183.36,cs)
);
},
{
closed = 1;
nodes = (
(801,9.368,o),
(768.927,-22.176,o),
(721.987,-21.396,cs),
(295.489,-14.312,o),
(119.464,60.611,o),
(98.219,486.983,cs),
(95.478,541.993,o),
(133.541,582,o),
(188.485,582,cs),
(191.469,582,ls),
(249.928,582,o),
(287.464,545.491,o),
(289.085,487.054,cs),
(297.108,197.836,o),
(357.572,144.227,o),
(721.96,138.552,cs),
(770.16,137.801,o),
(801,106.477,o),
(801,58.321,cs),
(801,56.316,ls)
);
}
);
width = 1638;
}
);
unicode = 113;
},
{
glyphname = r;
layers = (
{
layerId = "5DBDC0A0-6414-4D3D-B0CB-A567F0B74D18";
shapes = (
{
closed = 1;
nodes = (
(1013,1006,o),
(905,1024,o),
(736,1024,cs),
(505,1024,o),
(372,963,o),
(336,840,cs),
(325,802,o),
(320,760,o),
(320,713,cs),
(320,95,ls),
(320,37.806,o),
(282.195,4.63,o),
(225,1.163,cs),
(223,-1.163,ls),
(165.805,-4.63,o),
(128,37.806,o),
(128,95,cs),
(128,1057,ls),
(128,1114.19,o),
(165.805,1152,o),
(223,1152,cs),
(229.5,1152,ls),
(283.985,1152,o),
(320,1115.99,o),
(320,1061.5,cs),
(320,993.211,ls),
(320,986.393,o),
(325.846,985.136,o),
(328.65,991.351,cs),
(364.843,1071.59,o),
(449.036,1128.99,o),
(582,1162,cs),
(640,1177,o),
(716,1184,o),
(810,1184,cs),
(1044,1184,o),
(1218,1133,o),
(1262,952,cs),
(1268.97,922.391,o),
(1273.91,890.423,o),
(1276.83,855.899,cs),
(1280.59,811.467,o),
(1248.92,777,o),
(1204.51,777,c),
(1204.57,777,l),
(1152.72,777,o),
(1122.36,804.352,o),
(1116.97,855.915,cs),
(1111.58,907.45,o),
(1097.15,945.168,o),
(1060,972,cs)
);
}
);
width = 1280;
}
);
unicode = 114;
},
{
glyphname = rinvertedbreve;
layers = (
{
layerId = "5DBDC0A0-6414-4D3D-B0CB-A567F0B74D18";
shapes = (
{
closed = 1;
nodes = (
(917.752,1562,o),
(1052.58,1497,o),
(1081.94,1320.73,cs),
(1088.88,1279.06,o),
(1057.48,1242,o),
(1016.05,1242,c),
(1018.69,1242,l),
(961.102,1242,o),
(933.036,1264.45,o),
(920.387,1320.63,cs),
(910.795,1363.22,o),
(892.093,1393.01,o),
(864,1410,cs),
(837,1426,o),
(784,1434,o),
(704,1434,cs),
(624,1434,o),
(572,1427,o),
(549,1413,cs),
(518.857,1394.65,o),
(498.591,1363.85,o),
(488.2,1320.6,cs),
(474.443,1263.34,o),
(447.371,1242,o),
(390.316,1242,c),
(392.738,1242,l),
(350.908,1242,o),
(319.186,1279.49,o),
(326.109,1320.74,cs),
(355.569,1496.3,o),
(490.366,1562,o),
(704,1562,cs)
);
},
{
ref = r;
}
);
width = 1408;
}
);
unicode = 531;
},
{
glyphname = scedilla;
layers = (
{
layerId = "5DBDC0A0-6414-4D3D-B0CB-A567F0B74D18";
shapes = (
{
closed = 1;
nodes = (
(1088,-543.351,o),
(967.259,-604.509,o),
(782.975,-616.609,cs),
(737.823,-619.574,o),
(704,-587.899,o),
(704,-542.794,cs),
(704,-530.3,ls),
(704,-486.882,o),
(729.873,-459.685,o),
(773.237,-457.521,cs),
(808.363,-455.767,o),
(831.772,-452.505,o),
(844,-448,cs),
(879,-435,o),
(896,-407,o),
(896,-363,cs),
(896,-342,o),
(889,-327,o),
(875,-320,cs),
(857.073,-311.346,o),
(828.447,-305.366,o),
(789.121,-302.062,cs),
(734.275,-297.453,o),
(704,-264.528,o),
(704,-209.767,cs),
(704,-35.163,ls),
(704,-20.561,o),
(694.554,-10.84,o),
(679.958,-10.422,cs),
(487.623,-4.914,o),
(350.599,20.78,o),
(268,64,cs),
(201.202,99.195,o),
(158.135,152.962,o),
(139.17,225.672,cs),
(126.885,272.773,o),
(163.374,320,o),
(209.566,320,c),
(198.261,320,l),
(279.041,320,o),
(301.986,305.256,o),
(335.551,231.78,cs),
(350.032,200.079,o),
(375,179.031,o),
(412,164,cs),
(470,140,o),
(589,128,o),
(768,128,cs),
(926,128,o),
(1033,134,o),
(1088,146,cs),
(1204,170,o),
(1280,190,o),
(1280,315,cs),
(1280,410,o),
(1273,448,o),
(1208,475,cs),
(1187,484,o),
(1160,490,o),
(1124,496,cs),
(1059,506,o),
(966,512,o),
(845,512,cs),
(709,512,ls),
(586,512,o),
(494,514,o),
(384,532,cs),
(200,563,o),
(128,637,o),
(128,860,cs),
(128,979,o),
(181,1063,o),
(288,1112,cs),
(393,1160,o),
(575,1184,o),
(832,1184,cs),
(1077,1184,o),
(1247,1156,o),
(1342,1102,cs),
(1406,1065.64,o),
(1445.67,1016.58,o),
(1462.55,942.51,cs),
(1473.53,894.313,o),
(1436.58,848,o),
(1389.08,848,c),
(1399.58,848,l),
(1318.87,848,o),
(1301.15,858.653,o),
(1263.3,929.939,cs),
(1248.4,958.009,o),
(1223.42,976.289,o),
(1188,990,cs),
(1128,1013,o),
(1030,1024,o),
(893,1024,cs),
(756,1024,o),
(655,1023,o),
(590,1020,cs),
(449,1014,o),
(320,1003,o),
(320,866,cs),
(320,774,o),
(326,719,o),
(392,695,cs),
(413,688,o),
(440,682,o),
(476,678,cs),
(518,674,o),
(606,672,o),
(738,672,cs),
(870,672,o),
(970,670,o),
(1038,666,cs),
(1200,657,o),
(1345,635,o),
(1418,544,cs),
(1454,500,o),
(1472,434,o),
(1472,344,cs),
(1472,253,o),
(1454,183,o),
(1418,136,cs),
(1347.83,43.412,o),
(1159.87,-5.482,o),
(855.987,-10.682,cs),
(841.472,-10.931,o),
(832,-20.566,o),
(832,-35.083,cs),
(832,-178.648,ls),
(832,-193.441,o),
(841.172,-202.903,o),
(855.957,-203.364,cs),
(1010.94,-208.196,o),
(1088,-261.12,o),
(1088,-363,cs)
);
}
);
width = 1600;
}
);
unicode = 351;
},
{
glyphname = germandbls;
layers = (
{
layerId = "5DBDC0A0-6414-4D3D-B0CB-A567F0B74D18";
shapes = (
{
closed = 1;
nodes = (
(1465,1536,o),
(1599,1506,o),
(1680,1444,cs),
(1751,1390,o),
(1792,1302,o),
(1792,1186,cs),
(1792,1135,o),
(1790,1094,o),
(1784,1061,cs),
(1761.1,929.094,o),
(1707.15,854.245,o),
(1623.7,835.686,cs),
(1618.94,834.629,o),
(1619.17,830.64,o),
(1623.96,830.127,cs),
(1674.23,824.741,o),
(1719.36,810.483,o),
(1760,788,cs),
(1863,730,o),
(1920,632,o),
(1920,471,cs),
(1920,314,o),
(1898,195,o),
(1816,119,cs),
(1731,40,o),
(1552,0,o),
(1279,0,cs),
(591,-9.675,ls),
(543.438,-3.85,o),
(512,31.438,o),
(512,79,cs),
(512,81,ls),
(512,128.562,o),
(543.438,160,o),
(591,160,cs),
(1215,160,ls),
(1376,160,o),
(1487,166,o),
(1548,178,cs),
(1586,186,o),
(1617,198,o),
(1640,212,cs),
(1724,264,o),
(1728,358,o),
(1728,501,cs),
(1728,565,o),
(1716,613,o),
(1694,646,cs),
(1660,696,o),
(1612,707,o),
(1528,722,cs),
(1477,731,o),
(1372,736,o),
(1215,736,cs),
(591,736,ls),
(543.438,736,o),
(512,767.438,o),
(512,815,cs),
(512,817,ls),
(512,864.562,o),
(543.438,896,o),
(591,896,cs),
(1215,896,l),
(1223,896,ls),
(1354,896,o),
(1462,897,o),
(1530,946,cs),
(1587,987,o),
(1600,1063,o),
(1600,1162,cs),
(1600,1273,o),
(1568,1311,o),
(1487,1347,cs),
(1444,1366,o),
(1354,1376,o),
(1216,1376,cs),
(833,1376,ls),
(672,1376,o),
(561,1370,o),
(500,1358,cs),
(420,1342,o),
(381,1318,o),
(346,1255,cs),
(328,1223,o),
(320,1157,o),
(320,1058,cs),
(320,-33,ls),
(320,-90.195,o),
(282.195,-128,o),
(225,-128,cs),
(223,-128,ls),
(165.805,-128,o),
(128,-90.195,o),
(128,-33,cs),
(128,1058,ls),
(128,1220,o),
(148,1339,o),
(232,1417,cs),
(317,1496,o),
(496,1536,o),
(769,1536,cs),
(1280,1536,ls)
);
}
);
width = 2048;
}
);
unicode = 223;
},
{
glyphname = t;
layers = (
{
layerId = "5DBDC0A0-6414-4D3D-B0CB-A567F0B74D18";
shapes = (
{
closed = 1;
nodes = (
(327,0,o),
(196,88,o),
(196,416,cs),
(196,1372,ls),
(196,1429.19,o),
(233.805,1467,o),
(291,1467,cs),
(293,1467,ls),
(350.195,1467,o),
(388,1429.19,o),
(388,1372,cs),
(388,1176,ls),
(388,1161.59,o),
(397.593,1152,o),
(412,1152,cs),
(1019,1152,ls),
(1065.96,1152,o),
(1097,1120.96,o),
(1097,1074,cs),
(1097,1072,ls),
(1097,1025.04,o),
(1065.96,994,o),
(1019,994,cs),
(412,994,ls),
(397.593,994,o),
(388,984.407,o),
(388,970,cs),
(388,416,ls),
(388,191,o),
(428,160,o),
(679,160,cs),
(948.226,160,o),
(987.469,171.582,o),
(992.366,428.003,cs),
(993.346,479.353,o),
(1026.62,512,o),
(1077.97,512,cs),
(1080.45,512,ls),
(1129.74,512,o),
(1163.35,477.285,o),
(1161.75,428.027,cs),
(1149.85,60.077,o),
(1048.51,0,o),
(679,0,cs)
);
}
);
width = 1321;
}
);
unicode = 116;
},
{
glyphname = u;
layers = (
{
layerId = "5DBDC0A0-6414-4D3D-B0CB-A567F0B74D18";
shapes = (
{
closed = 1;
nodes = (
(1277,232,o),
(1165,138,o),
(765,138,cs),
(416,138,o),
(317,207,o),
(317,512,cs),
(317,1128,ls),
(317,1142.41,o),
(307.407,1152,o),
(293,1152,cs),
(149,1152,ls),
(134.589,1152,o),
(124.985,1142.41,o),
(124.963,1128,cs),
(124,512,ls),
(123,108,o),
(279,-22,o),
(731,-22,cs),
(1015,-22,o),
(1143.37,17.749,o),
(1227.26,96.141,cs),
(1251.19,118.502,o),
(1277,107.294,o),
(1277,74.543,cs),
(1277,24,ls),
(1277,9.593,o),
(1286.59,0,o),
(1301,0,cs),
(1445,0,ls),
(1459.41,0,o),
(1469,9.593,o),
(1469,24,cs),
(1469,1128,ls),
(1469,1142.41,o),
(1459.41,1152,o),
(1445,1152,cs),
(1301,1152,ls),
(1286.59,1152,o),
(1277,1142.41,o),
(1277,1128,cs),
(1277,458,ls)
);
}
);
width = 1601;
}
);
unicode = 117;
},
{
glyphname = uinvertedbreve;
layers = (
{
layerId = "5DBDC0A0-6414-4D3D-B0CB-A567F0B74D18";
shapes = (
{
closed = 1;
nodes = (
(1013.75,1562,o),
(1148.58,1497,o),
(1177.94,1320.73,cs),
(1184.88,1279.06,o),
(1153.48,1242,o),
(1112.05,1242,c),
(1114.69,1242,l),
(1057.1,1242,o),
(1029.04,1264.45,o),
(1016.39,1320.63,cs),
(1006.8,1363.22,o),
(988.093,1393.01,o),
(960,1410,cs),
(933,1426,o),
(880,1434,o),
(800,1434,cs),
(720,1434,o),
(668,1427,o),
(645,1413,cs),
(614.857,1394.65,o),
(594.591,1363.85,o),
(584.2,1320.6,cs),
(570.443,1263.34,o),
(543.37,1242,o),
(486.316,1242,c),
(488.738,1242,l),
(446.908,1242,o),
(415.186,1279.49,o),
(422.109,1320.74,cs),
(451.569,1496.3,o),
(586.366,1562,o),
(800,1562,cs)
);
},
{
ref = u;
}
);
width = 1602;
}
);
unicode = 535;
},
{
glyphname = v;
layers = (
{
layerId = "5DBDC0A0-6414-4D3D-B0CB-A567F0B74D18";
shapes = (
{
closed = 1;
nodes = (
(86.682,1109.02,o),
(112.594,1152,o),
(164,1152,cs),
(188,1152,ls),
(252.513,1152,o),
(303.87,1120.26,o),
(332.721,1062.56,cs),
(789.267,149.466,ls),
(794.431,139.139,o),
(805.569,139.139,o),
(810.733,149.466,cs),
(1267.28,1062.56,ls),
(1296.13,1120.26,o),
(1347.49,1152,o),
(1412,1152,cs),
(1436,1152,ls),
(1487.41,1152,o),
(1513.32,1109.02,o),
(1489.32,1063.56,cs),
(974.676,88.439,ls),
(944.517,31.294,o),
(892.614,4.333,o),
(828,1.225,cs),
(772,-1.225,ls),
(707.386,-4.333,o),
(655.483,31.294,o),
(625.324,88.439,cs),
(110.676,1063.56,ls)
);
}
);
width = 1600;
}
);
unicode = 118;
},
{
glyphname = w;
layers = (
{
layerId = "5DBDC0A0-6414-4D3D-B0CB-A567F0B74D18";
shapes = (
{
closed = 1;
nodes = (
(1741.06,33.576,o),
(1691.97,4.412,o),
(1628,1.225,cs),
(1572,-1.225,ls),
(1508.12,-4.424,o),
(1459.38,33.845,o),
(1437.06,93.698,cs),
(1128.39,921.512,ls),
(1124.88,930.924,o),
(1115.12,930.924,o),
(1111.61,921.512,cs),
(802.938,93.698,ls),
(780.62,33.845,o),
(731.879,4.424,o),
(668,1.225,cs),
(612,-1.225,ls),
(548.025,-4.412,o),
(498.943,33.576,o),
(475.755,93.201,cs),
(100.245,1058.8,ls),
(80.696,1109.07,o),
(110.066,1152,o),
(164,1152,cs),
(188,1152,ls),
(251.728,1152,o),
(299.958,1117.76,o),
(320.968,1057.59,cs),
(632.088,166.658,ls),
(635.365,157.272,o),
(645.005,157.137,o),
(648.544,166.428,cs),
(990.18,1063.22,ls),
(1011.8,1119.98,o),
(1058.27,1152,o),
(1119,1152,cs),
(1121,1152,ls),
(1181.71,1152,o),
(1228.1,1119.91,o),
(1249.51,1063.11,cs),
(1587.53,166.457,ls),
(1591.04,157.154,o),
(1600.68,157.255,o),
(1603.99,166.63,cs),
(1918.7,1057.71,ls),
(1939.93,1117.82,o),
(1988.25,1152,o),
(2052,1152,cs),
(2076,1152,ls),
(2129.93,1152,o),
(2159.3,1109.07,o),
(2139.76,1058.8,cs),
(1764.24,93.201,ls)
);
}
);
width = 2240;
}
);
unicode = 119;
},
{
glyphname = x;
layers = (
{
layerId = "5DBDC0A0-6414-4D3D-B0CB-A567F0B74D18";
shapes = (
{
closed = 1;
nodes = (
(820.733,474.976,o),
(807.267,474.976,o),
(797.393,464.674,cs),
(421.197,72.193,ls),
(376.269,25.32,o),
(316.928,4.295,o),
(252,1.225,cs),
(196,-1.225,ls),
(152.31,-6.896,o),
(135.952,39.681,o),
(166.951,70.47,cs),
(668.972,569.087,ls),
(679.194,579.24,o),
(679.241,592.807,o),
(669.09,603.031,cs),
(194.459,1081.04,ls),
(163.531,1112.19,o),
(180.105,1152,o),
(224,1152,cs),
(280,1152,ls),
(344.889,1152,o),
(404.658,1127.01,o),
(450.229,1080.81,cs),
(802.145,724.085,ls),
(812.207,713.886,o),
(825.714,713.964,o),
(835.657,724.278,cs),
(1178.6,1080.01,ls),
(1223.65,1126.75,o),
(1283.08,1152,o),
(1348,1152,cs),
(1404,1152,ls),
(1447.87,1152,o),
(1464.42,1112.2,o),
(1433.48,1081.1,cs),
(958.925,604.016,ls),
(948.765,593.801,o),
(948.801,580.234,o),
(959.014,570.073,cs),
(1461.11,70.53,ls),
(1492.1,39.697,o),
(1475.72,6.893,o),
(1432,1.225,cs),
(1376,-1.225,ls),
(1311.07,-4.295,o),
(1251.73,25.32,o),
(1206.8,72.193,cs),
(830.607,464.674,ls)
);
}
);
width = 1628;
}
);
unicode = 120;
},
{
glyphname = y;
layers = (
{
layerId = "5DBDC0A0-6414-4D3D-B0CB-A567F0B74D18";
shapes = (
{
closed = 1;
nodes = (
(86.682,1109.02,o),
(112.594,1152,o),
(164,1152,cs),
(188,1152,ls),
(252.513,1152,o),
(303.87,1120.26,o),
(332.721,1062.56,cs),
(789.267,149.466,ls),
(794.371,139.258,o),
(805.342,139.396,o),
(810.186,149.731,cs),
(1237.56,1061.45,ls),
(1264.88,1119.75,o),
(1315.62,1152,o),
(1380,1152,cs),
(1404,1152,ls),
(1455.92,1152,o),
(1482.5,1109,o),
(1459.28,1062.56,cs),
(896,-64,ls),
(880,-96,o),
(864,-126,o),
(848,-154,cs),
(815,-214,o),
(774,-262,o),
(724,-296,cs),
(649.495,-347.114,o),
(530.709,-375.711,o),
(366.992,-382.443,cs),
(320.959,-384.336,o),
(288,-352.705,o),
(288,-306.691,cs),
(288,-304.906,ls),
(288,-255.629,o),
(317.793,-224.523,o),
(367.024,-222.4,cs),
(449.381,-218.847,o),
(513.857,-209.381,o),
(560,-194,cs),
(590,-184,o),
(614,-173,o),
(632,-160,cs),
(679.751,-124.629,o),
(700.134,-75.965,o),
(725.647,-21.613,cs),
(730.986,-10.239,o),
(724.481,1.385,o),
(711.916,2.924,cs),
(703,-3.796,ls),
(682.97,-1.343,o),
(666.88,9.701,o),
(657.53,27.416,cs),
(110.676,1063.56,ls)
);
}
);
width = 1568;
}
);
unicode = 121;
},
{
glyphname = z;
layers = (
{
layerId = "5DBDC0A0-6414-4D3D-B0CB-A567F0B74D18";
shapes = (
{
closed = 1;
nodes = (
(1312.56,1152,o),
(1344,1120.56,o),
(1344,1073,cs),
(1344,1071,ls),
(1344,1019.65,o),
(1323.27,973.707,o),
(1284.77,939.726,cs),
(399.994,158.881,ls),
(392.412,152.189,o),
(395.887,143,o),
(406,143,cs),
(1273.5,143,ls),
(1315.94,143,o),
(1344,114.944,o),
(1344,72.5,cs),
(1344,70.5,ls),
(1344,28.056,o),
(1315.94,3.436,o),
(1273.5,8.634,cs),
(207,-9.675,ls),
(159.438,-3.85,o),
(128,31.438,o),
(128,79,cs),
(128,81,ls),
(128,132.36,o),
(148.833,178.165,o),
(187.544,211.918,cs),
(1085.91,995.227,ls),
(1093.5,1001.84,o),
(1090.07,1011,o),
(1080,1011,cs),
(261.5,1011,ls),
(219.658,1011,o),
(192,1038.66,o),
(192,1080.5,cs),
(192,1082.5,ls),
(192,1124.34,o),
(219.658,1152,o),
(261.5,1152,cs),
(1265,1152,ls)
);
}
);
width = 1472;
}
);
unicode = 122;
},
{
glyphname = ordmasculine;
layers = (
{
layerId = "5DBDC0A0-6414-4D3D-B0CB-A567F0B74D18";
shapes = (
{
closed = 1;
nodes = (
(595,1528,o),
(704,1537,o),
(832,1537,cs),
(1170,1537,o),
(1414,1486,o),
(1498,1240,cs),
(1523,1166,o),
(1536,1073,o),
(1536,961,cs),
(1536,635,o),
(1428,466,o),
(1158,412,cs),
(1069,394,o),
(960,385,o),
(832,385,cs),
(494,385,o),
(250,436,o),
(166,682,cs),
(141,756,o),
(128,849,o),
(128,961,cs),
(128,1287,o),
(236,1456,o),
(506,1510,cs)
);
},
{
closed = 1;
nodes = (
(329,1133,o),
(320,1066,o),
(320,989,cs),
(320,820,o),
(320,694,o),
(408,621,cs),
(431,602,o),
(462,586,o),
(500,575,cs),
(567,555,o),
(663,545,o),
(788,545,cs),
(913,545,o),
(1009,549,o),
(1074,556,cs),
(1291,580,o),
(1344,713,o),
(1344,961,cs),
(1344,1210,o),
(1292,1342,o),
(1074,1366,cs),
(1009,1373,o),
(928,1377,o),
(832,1377,cs),
(586,1377,o),
(403,1371,o),
(346,1188,cs)
);
}
);
width = 1664;
}
);
unicode = 186;
},
{
glyphname = Delta;
layers = (
{
layerId = "5DBDC0A0-6414-4D3D-B0CB-A567F0B74D18";
shapes = (
{
closed = 1;
nodes = (
(691.328,1502.19,o),
(740.11,1536,o),
(804,1536,cs),
(860,1536,ls),
(923.89,1536,o),
(972.672,1502.19,o),
(995.092,1442.36,cs),
(1500.91,92.64,ls),
(1519.92,41.907,o),
(1490.18,-1,o),
(1436,-1,cs),
(228,-1,ls),
(173.821,-1,o),
(144.08,41.907,o),
(163.092,92.64,cs),
(668.908,1442.36,ls)
);
},
{
closed = 1;
nodes = (
(836.775,1394.69,o),
(827.225,1394.69,o),
(823.897,1385.41,cs),
(392.103,181.591,ls),
(387.718,169.366,o),
(395.013,159,o),
(408,159,cs),
(1256,159,ls),
(1268.99,159,o),
(1276.28,169.366,o),
(1271.9,181.591,cs),
(840.103,1385.41,ls)
);
}
);
width = 1664;
}
);
unicode = 916;
},
{
glyphname = Omega;
layers = (
{
layerId = "5DBDC0A0-6414-4D3D-B0CB-A567F0B74D18";
shapes = (
{
closed = 1;
nodes = (
(1103.87,166.093,o),
(1105.15,160,o),
(1112.15,160,cs),
(1201,160,ls),
(1248.56,160,o),
(1280,128.562,o),
(1280,81,cs),
(1280,79,ls),
(1280,31.438,o),
(1248.56,3.85,o),
(1201,9.675,cs),
(996,-1.225,ls),
(935.795,-4.874,o),
(896,39.795,o),
(896,100,cs),
(896,108.871,ls),
(896,183.13,o),
(918.141,213.383,o),
(988.922,235.842,cs),
(1022.36,246.451,o),
(1049.06,264.902,o),
(1072,294,cs),
(1125,361,o),
(1152,487,o),
(1152,671,cs),
(1152,840,o),
(1140,960,o),
(1116,1031,cs),
(1092,1101,o),
(1049,1145,o),
(986,1164,cs),
(944,1177,o),
(861,1183,o),
(736,1183,cs),
(611,1183,o),
(530,1177,o),
(494,1166,cs),
(419,1143,o),
(381,1105,o),
(356,1031,cs),
(332,960,o),
(320,856,o),
(320,721,cs),
(320,586,o),
(327,488,o),
(342,429,cs),
(365.641,332.221,o),
(400.197,266.552,o),
(477.119,238.847,cs),
(554.613,210.935,o),
(576,180.5,o),
(576,98.132,c),
(576,100,l),
(576,39.795,o),
(536.205,4.874,o),
(476,1.225,cs),
(271,-9.675,ls),
(223.438,-3.85,o),
(192,31.438,o),
(192,79,cs),
(192,81,ls),
(192,128.562,o),
(223.438,160,o),
(271,160,cs),
(359.849,160,ls),
(366.854,160,o),
(368.13,166.093,o),
(361.715,168.904,cs),
(205.614,237.323,o),
(128,404.397,o),
(128,671,cs),
(128,932,o),
(170,1109,o),
(255,1202,cs),
(352,1309,o),
(522,1342,o),
(736,1342,cs),
(1039,1342,o),
(1213,1284,o),
(1291,1076,cs),
(1326,982,o),
(1344,847,o),
(1344,671,cs),
(1344,404.397,o),
(1266.39,237.323,o),
(1110.29,168.904,cs)
);
}
);
width = 1472;
}
);
unicode = 937;
},
{
glyphname = pi;
layers = (
{
layerId = "5DBDC0A0-6414-4D3D-B0CB-A567F0B74D18";
shapes = (
{
closed = 1;
nodes = (
(282.195,1088,o),
(320,1050.19,o),
(320,993,cs),
(320,95,ls),
(320,37.806,o),
(282.195,4.63,o),
(225,1.163,cs),
(223,-1.163,ls),
(165.805,-4.63,o),
(128,37.806,o),
(128,95,cs),
(128,993,ls),
(128,1050.19,o),
(165.805,1088,o),
(223,1088,cs),
(225,1088,ls)
);
},
{
closed = 1;
nodes = (
(165.805,1344,o),
(128,1381.81,o),
(128,1439,cs),
(128,1441,ls),
(128,1498.19,o),
(165.805,1536,o),
(223,1536,cs),
(225,1536,ls),
(282.195,1536,o),
(320,1498.19,o),
(320,1441,cs),
(320,1439,ls),
(320,1381.81,o),
(282.195,1344,o),
(225,1344,cs),
(223,1344,ls)
);
},
{
closed = 1;
nodes = (
(128,9.593,o),
(137.593,0,o),
(152,0,cs),
(296,0,ls),
(310.407,0,o),
(320,9.593,o),
(320,24,cs),
(320,1064,ls),
(320,1078.41,o),
(310.407,1088,o),
(296,1088,cs),
(152,1088,ls),
(137.593,1088,o),
(128,1078.41,o),
(128,1064,cs),
(128,24,ls)
);
},
{
closed = 1;
nodes = (
(320,1526.41,o),
(310.407,1536,o),
(296,1536,cs),
(152,1536,ls),
(137.593,1536,o),
(128,1526.41,o),
(128,1512,cs),
(128,1368,ls),
(128,1353.59,o),
(137.593,1344,o),
(152,1344,cs),
(296,1344,ls),
(310.407,1344,o),
(320,1353.59,o),
(320,1368,cs),
(320,1512,ls)
);
}
);
width = 448;
}
);
unicode = 960;
},
{
glyphname = zero;
layers = (
{
layerId = "5DBDC0A0-6414-4D3D-B0CB-A567F0B74D18";
shapes = (
{
closed = 1;
nodes = (
(1857,1401,o),
(1909,1239,o),
(1916,1016,cs),
(1918,941,o),
(1920,859,o),
(1920,768,cs),
(1920,712,ls),
(1920,495,o),
(1917,297,o),
(1832,164,cs),
(1804,120,o),
(1764,83,o),
(1712,54,cs),
(1609,-4,o),
(1444,-32,o),
(1217,-32,cs),
(832,-32,ls),
(605,-32,o),
(440,-4,o),
(337,54,cs),
(192,135,o),
(138,296,o),
(132,520,cs),
(130,595,o),
(129,677,o),
(129,768,cs),
(129,843,ls),
(129,1053,o),
(133,1243,o),
(216,1372,cs),
(244,1416,o),
(285,1453,o),
(337,1482,cs),
(440,1540,o),
(605,1568,o),
(832,1568,cs),
(1217,1568,ls),
(1444,1568,o),
(1609,1540,o),
(1712,1482,cs)
);
},
{
closed = 1;
nodes = (
(1654,198,o),
(1691,253,o),
(1709,346,cs),
(1722,410,o),
(1728,551,o),
(1728,768,cs),
(1728,985,o),
(1723,1121,o),
(1712,1177,cs),
(1692,1280,o),
(1659,1336,o),
(1576,1370,cs),
(1514,1395,o),
(1394,1408,o),
(1217,1408,cs),
(832,1408,ls),
(655,1408,o),
(535,1395,o),
(472,1370,cs),
(394,1338,o),
(357,1283,o),
(339,1190,cs),
(327,1129,o),
(321,988,o),
(321,768,cs),
(321,551,o),
(327,415,o),
(338,359,cs),
(358,255,o),
(388,200,o),
(472,166,cs),
(535,141,o),
(655,128,o),
(832,128,cs),
(1217,128,ls),
(1394,128,o),
(1513,141,o),
(1576,166,cs)
);
}
);
width = 2048;
}
);
unicode = 48;
},
{
glyphname = one;
layers = (
{
layerId = "5DBDC0A0-6414-4D3D-B0CB-A567F0B74D18";
shapes = (
{
closed = 1;
nodes = (
(824.205,1536,o),
(864,1496.2,o),
(864,1436,cs),
(864,95,ls),
(864,37.806,o),
(826.195,4.63,o),
(769,1.163,cs),
(767,-1.163,ls),
(709.805,-4.63,o),
(672,37.806,o),
(672,95,cs),
(672,1352,ls),
(672,1363.13,o),
(662.231,1367.63,o),
(653.778,1360.38,cs),
(283.981,1043.41,ls),
(248.418,1012.93,o),
(204.704,1017.73,o),
(176.6,1055.2,cs),
(175.4,1056.8,ls),
(146.433,1095.42,o),
(151.216,1140.12,o),
(187.699,1171.74,cs),
(532.431,1470.51,ls),
(581.23,1512.8,o),
(643.425,1536,o),
(708,1536,cs),
(764,1536,ls)
);
}
);
width = 992;
}
);
unicode = 49;
},
{
glyphname = two;
layers = (
{
layerId = "5DBDC0A0-6414-4D3D-B0CB-A567F0B74D18";
shapes = (
{
closed = 1;
nodes = (
(1472,800,ls),
(1536,805,o),
(1584,814,o),
(1616,852,cs),
(1648,890,o),
(1663,969,o),
(1663,1087,cs),
(1663,1301,o),
(1609,1372,o),
(1417,1396,cs),
(1354,1404,o),
(1243,1408,o),
(1085,1408,cs),
(927,1408,o),
(808,1406,o),
(728,1402,cs),
(554,1393,o),
(397,1377,o),
(346,1256,cs),
(321,1198,o),
(320,1127,o),
(320,1044,cs),
(320,1017,ls),
(320,1001.99,o),
(310.007,992,o),
(295,992,cs),
(219.592,992,ls),
(165.478,992,o),
(127.33,1032.92,o),
(131.124,1086.9,cs),
(150.981,1369.45,o),
(267.46,1503.6,o),
(536,1547,cs),
(623,1561,o),
(785,1568,o),
(1024,1568,cs),
(1242,1568,o),
(1390,1562,o),
(1469,1548,cs),
(1610,1524,o),
(1699,1495,o),
(1768,1412,cs),
(1826,1342,o),
(1856,1234,o),
(1856,1088,cs),
(1856,811,o),
(1779,663,o),
(1536,640,cs),
(512,544,ls),
(424,536,o),
(370,518,o),
(343,454,cs),
(331,425,o),
(324,386,o),
(322,339,cs),
(320.227,297.324,o),
(320.026,245.427,o),
(320.003,184.005,cs),
(319.998,169.6,o),
(329.594,160,o),
(343.999,160,cs),
(1745,160,ls),
(1792.56,160,o),
(1824,128.562,o),
(1824,81,cs),
(1824,79,ls),
(1824,31.438,o),
(1792.56,3.85,o),
(1745,9.675,cs),
(223,-1.163,ls),
(165.805,-4.63,o),
(128,37.806,o),
(128,95,cs),
(128,192,ls),
(128,501,o),
(182,679,o),
(448,704,cs)
);
}
);
width = 1984;
}
);
unicode = 50;
},
{
glyphname = three;
layers = (
{
layerId = "5DBDC0A0-6414-4D3D-B0CB-A567F0B74D18";
shapes = (
{
closed = 1;
nodes = (
(1856,234,o),
(1790,101,o),
(1656,40,cs),
(1611,19,o),
(1558,4,o),
(1496,-7,cs),
(1400,-24,o),
(1242,-32,o),
(1024,-32,cs),
(784,-32,o),
(626,-27,o),
(550,-16,cs),
(408,4,o),
(306,36,o),
(232,118,cs),
(176.27,179.303,o),
(143.358,268.495,o),
(132.256,385.072,cs),
(127.203,438.13,o),
(165.274,480,o),
(218.215,480,cs),
(220.012,480,ls),
(280.52,480,o),
(318.578,443.661,o),
(321.375,383.219,cs),
(325.5,294.062,o),
(342,228.25,o),
(408,190,cs),
(436,174,o),
(476,161,o),
(528,152,cs),
(618,136,o),
(745,128,o),
(908,128,cs),
(1071,128,o),
(1184,129,o),
(1249,130,cs),
(1401,132,o),
(1546,139,o),
(1611,223,cs),
(1646,268,o),
(1663,343,o),
(1663,449,cs),
(1663,554,o),
(1648,625,o),
(1616,661,cs),
(1591,690,o),
(1543,704,o),
(1472,704,cs),
(847,704,ls),
(799.438,704,o),
(768,735.438,o),
(768,783,cs),
(768,785,ls),
(768,832.562,o),
(799.438,864,o),
(847,864,cs),
(1472,864,ls),
(1628,864,o),
(1663,924,o),
(1663,1087,cs),
(1663,1301,o),
(1609,1372,o),
(1417,1396,cs),
(1354,1404,o),
(1243,1408,o),
(1085,1408,cs),
(927,1408,o),
(808,1407,o),
(728,1404,cs),
(599,1399,o),
(486,1393,o),
(408,1352,cs),
(344.76,1318.91,o),
(326.942,1262.57,o),
(321.94,1182.97,cs),
(318.161,1122.83,o),
(281.077,1088,o),
(220.972,1088,cs),
(218.064,1088,ls),
(165.307,1088,o),
(127.116,1130.37,o),
(132.571,1182.84,cs),
(157.464,1422.26,o),
(284.878,1520.83,o),
(536,1552,cs),
(624,1563,o),
(786,1568,o),
(1024,1568,cs),
(1242,1568,o),
(1390,1562,o),
(1469,1548,cs),
(1610,1524,o),
(1699,1495,o),
(1768,1412,cs),
(1826,1342,o),
(1856,1234,o),
(1856,1088,cs),
(1856,918.264,o),
(1814.25,842.463,o),
(1717.77,794.082,cs),
(1707.71,789.036,o),
(1707.58,779.011,o),
(1717.48,773.702,cs),
(1824.21,716.525,o),
(1856,601.844,o),
(1856,428,cs)
);
}
);
width = 1984;
}
);
unicode = 51;
},
{
glyphname = four;
layers = (
{
layerId = "5DBDC0A0-6414-4D3D-B0CB-A567F0B74D18";
shapes = (
{
closed = 1;
nodes = (
(1664,37.806,o),
(1626.19,4.63,o),
(1569,1.163,cs),
(1567,-1.163,ls),
(1509.81,-4.63,o),
(1472,37.806,o),
(1472,95,cs),
(1472,296,ls),
(1472,310.407,o),
(1462.41,320,o),
(1448,320,cs),
(223,320,ls),
(165.805,320,o),
(128,357.805,o),
(128,415,cs),
(128,417,ls),
(128,478.786,o),
(153.936,532.749,o),
(202.183,571.346,cs),
(1329.91,1473.53,ls),
(1380.16,1513.73,o),
(1443.66,1536,o),
(1508,1536,cs),
(1564,1536,ls),
(1624.2,1536,o),
(1664,1496.2,o),
(1664,1436,cs),
(1664,504,ls),
(1664,489.593,o),
(1673.59,480,o),
(1688,480,cs),
(1841,480,ls),
(1888.56,480,o),
(1920,448.562,o),
(1920,401,cs),
(1920,399,ls),
(1920,351.438,o),
(1888.56,320,o),
(1841,320,cs),
(1688,320,ls),
(1673.59,320,o),
(1664,310.407,o),
(1664,296,cs),
(1664,95,ls)
);
},
{
closed = 1;
nodes = (
(1472,1395.31,o),
(1462.12,1400.04,o),
(1453.31,1392.94,cs),
(338.69,495.056,ls),
(331.076,488.922,o),
(334.222,480,o),
(344,480,cs),
(1448,480,ls),
(1462.41,480,o),
(1472,489.593,o),
(1472,504,cs),
(1472,1384,ls)
);
}
);
width = 2048;
}
);
unicode = 52;
},
{
glyphname = five;
layers = (
{
layerId = "5DBDC0A0-6414-4D3D-B0CB-A567F0B74D18";
shapes = (
{
closed = 1;
nodes = (
(1843,834,o),
(1856,686,o),
(1856,498,cs),
(1856,281,o),
(1797,126,o),
(1656,52,cs),
(1611,28,o),
(1558,10,o),
(1496,-2,cs),
(1398,-22,o),
(1240,-32,o),
(1024,-32,cs),
(784,-32,o),
(626,-27,o),
(550,-16,cs),
(408,4,o),
(306,36,o),
(232,118,cs),
(176.27,179.303,o),
(143.358,268.495,o),
(132.256,385.072,cs),
(127.203,438.13,o),
(165.274,480,o),
(218.215,480,cs),
(220.012,480,ls),
(280.52,480,o),
(318.578,443.661,o),
(321.375,383.219,cs),
(325.5,294.062,o),
(342,228.25,o),
(408,190,cs),
(436,174,o),
(476,161,o),
(528,152,cs),
(618,136,o),
(745,128,o),
(908,128,cs),
(1071,128,o),
(1184,129,o),
(1249,130,cs),
(1411,133,o),
(1548,148,o),
(1612,244,cs),
(1647,297,o),
(1664,376,o),
(1664,482,cs),
(1664,711,o),
(1658,855,o),
(1475,884,cs),
(1425,892,o),
(1360,896,o),
(1280,896,cs),
(768,896,ls),
(539,896,o),
(401,865,o),
(354,802,cs),
(346.236,791.648,o),
(339.544,780.761,o),
(333.785,769.338,cs),
(321.621,745.212,o),
(306.661,736,o),
(280.855,736,cs),
(223,736,ls),
(165.805,736,o),
(128,773.805,o),
(128,831,cs),
(128,1436,ls),
(128,1496.2,o),
(167.795,1536,o),
(228,1536,cs),
(1713,1536,ls),
(1760.56,1536,o),
(1792,1504.56,o),
(1792,1457,cs),
(1792,1455,ls),
(1792,1407.44,o),
(1760.56,1376,o),
(1713,1376,cs),
(344,1376,ls),
(329.593,1376,o),
(320,1366.41,o),
(320,1352,cs),
(320,920.497,ls),
(320,911.84,o),
(327.329,909.548,o),
(332.261,916.661,cs),
(375.63,979.205,o),
(465.717,1021.4,o),
(604,1044,cs),
(650,1052,o),
(705,1056,o),
(768,1056,cs),
(1280,1056,ls),
(1524,1056,o),
(1684,1013,o),
(1760,928,cs)
);
}
);
width = 1984;
}
);
unicode = 53;
},
{
glyphname = six;
layers = (
{
layerId = "5DBDC0A0-6414-4D3D-B0CB-A567F0B74D18";
shapes = (
{
closed = 1;
nodes = (
(1153,928,ls),
(1428,928,o),
(1617,888,o),
(1720,808,cs),
(1819,731,o),
(1856,618,o),
(1856,448,cs),
(1856,278,o),
(1819,165,o),
(1720,88,cs),
(1617,8,o),
(1428,-32,o),
(1153,-32,cs),
(832,-32,ls),
(606,-32,o),
(440,-4,o),
(336,54,cs),
(191,134,o),
(139,297,o),
(132,520,cs),
(130,595,o),
(128,679,o),
(128,772,cs),
(128,824,ls),
(128,1052,o),
(132,1255,o),
(232,1384,cs),
(265,1427,o),
(312,1461,o),
(374,1488,cs),
(495,1541,o),
(691,1568,o),
(960,1568,cs),
(1293,1568,o),
(1520,1529,o),
(1640,1452,cs),
(1730.4,1393.95,o),
(1774.71,1316.63,o),
(1787.21,1198.38,cs),
(1791.8,1154.93,o),
(1760.36,1120,o),
(1716.99,1120,c),
(1719.82,1120,l),
(1664.8,1120,o),
(1635.93,1144.12,o),
(1626.14,1198.26,cs),
(1614.79,1261.07,o),
(1586.37,1293.63,o),
(1536,1324,cs),
(1507,1341,o),
(1468,1356,o),
(1418,1369,cs),
(1316,1395,o),
(1189,1408,o),
(1035,1408,cs),
(881,1408,o),
(770,1406,o),
(698,1403,cs),
(515,1394,o),
(391,1365,o),
(348,1223,cs),
(329.779,1163.54,o),
(320.755,1040.63,o),
(320.046,856.025,cs),
(319.999,843.867,o),
(329.798,837.923,o),
(340.553,843.581,cs),
(447.54,899.86,o),
(611.63,928,o),
(832,928,cs)
);
},
{
closed = 1;
nodes = (
(447,743,o),
(396,729,o),
(360,682,cs),
(334,647,o),
(320,597,o),
(320,531,cs),
(320,320,o),
(350,202,o),
(512,156,cs),
(578,137,o),
(685,128,o),
(832,128,cs),
(1153,128,ls),
(1304,128,o),
(1406,135,o),
(1460,148,cs),
(1620,188,o),
(1664,244,o),
(1664,448,cs),
(1664,538,o),
(1656,600,o),
(1638,632,cs),
(1603,696,o),
(1562,723,o),
(1484,742,cs),
(1413,759,o),
(1303,768,o),
(1153,768,cs),
(832,768,ls),
(678,768,o),
(576,764,o),
(528,756,cs)
);
}
);
width = 1984;
}
);
unicode = 54;
},
{
glyphname = seven;
layers = (
{
layerId = "5DBDC0A0-6414-4D3D-B0CB-A567F0B74D18";
shapes = (
{
closed = 1;
nodes = (
(502.078,-6.623,o),
(483.272,40.992,o),
(513.224,75.801,cs),
(1616.35,1357.81,ls),
(1623.6,1366.24,o),
(1619.12,1376,o),
(1608,1376,cs),
(207,1376,ls),
(159.438,1376,o),
(128,1407.44,o),
(128,1455,cs),
(128,1457,ls),
(128,1504.56,o),
(159.438,1536,o),
(207,1536,cs),
(1761,1536,ls),
(1818.19,1536,o),
(1856,1498.19,o),
(1856,1441,cs),
(1856,1439,ls),
(1856,1377.68,o),
(1834.08,1318.43,o),
(1794.17,1271.87,cs),
(769.079,75.926,ls),
(726.764,26.558,o),
(669.021,4.284,o),
(604,1.225,cs),
(548,-1.225,ls)
);
}
);
width = 1984;
}
);
unicode = 55;
},
{
glyphname = eight;
layers = (
{
layerId = "5DBDC0A0-6414-4D3D-B0CB-A567F0B74D18";
shapes = (
{
closed = 1;
nodes = (
(1856,198,o),
(1765,81,o),
(1591,22,cs),
(1486,-14,o),
(1340,-32,o),
(1152,-32,cs),
(831,-32,ls),
(558,-32,o),
(369,8,o),
(264,88,cs),
(175,156,o),
(128,265,o),
(128,408,cs),
(128,522,o),
(138,591,o),
(179,661,cs),
(215.816,723.588,o),
(277.2,772.621,o),
(361.592,807.32,cs),
(371.261,811.296,o),
(371.321,820.783,o),
(361.719,824.872,cs),
(254.132,870.697,o),
(189.677,943.74,o),
(170,1044,cs),
(163,1078,o),
(160,1121,o),
(160,1174,cs),
(160,1305,o),
(209,1403,o),
(296,1462,cs),
(401,1533,o),
(589,1568,o),
(863,1568,cs),
(1121,1568,ls),
(1395,1568,o),
(1583,1533,o),
(1688,1462,cs),
(1775,1403,o),
(1824,1305,o),
(1824,1174,cs),
(1824,977.158,o),
(1762.51,883.402,o),
(1622.33,824.801,cs),
(1612.7,820.776,o),
(1612.73,811.253,o),
(1622.39,807.29,cs),
(1785.44,740.331,o),
(1856,629.942,o),
(1856,427,cs)
);
},
{
closed = 1;
nodes = (
(1547,172,o),
(1595,190,o),
(1630,250,cs),
(1652,289,o),
(1664,338,o),
(1664,398,cs),
(1664,539,o),
(1657,613,o),
(1576,668,cs),
(1552,684,o),
(1522,697,o),
(1484,707,cs),
(1411,726,o),
(1300,736,o),
(1152,736,cs),
(831,736,ls),
(683,736,o),
(581,729,o),
(526,714,cs),
(436,690,o),
(387,671,o),
(352,610,cs),
(330,573,o),
(320,524,o),
(320,464,cs),
(320,324,o),
(327,246,o),
(408,193,cs),
(431,178,o),
(462,166,o),
(500,156,cs),
(572,138,o),
(682,128,o),
(831,128,cs),
(1152,128,ls),
(1302,128,o),
(1403,135,o),
(1458,149,cs)
);
},
{
closed = 1;
nodes = (
(1611,984,o),
(1632,1046,o),
(1632,1139,cs),
(1632,1253,o),
(1617,1316,o),
(1544,1355,cs),
(1520,1368,o),
(1490,1378,o),
(1452,1386,cs),
(1382,1401,o),
(1272,1408,o),
(1120,1408,cs),
(863,1408,ls),
(711,1408,o),
(608,1402,o),
(555,1391,cs),
(424,1363,o),
(352,1328,o),
(352,1180,cs),
(352,1053,o),
(361,989,o),
(440,946,cs),
(463,933,o),
(494,923,o),
(532,916,cs),
(601,903,o),
(711,896,o),
(863,896,cs),
(1152,896,ls),
(1356,896,o),
(1488,913,o),
(1548,948,cs)
);
}
);
width = 1984;
}
);
unicode = 56;
},
{
glyphname = nine;
layers = (
{
layerId = "5DBDC0A0-6414-4D3D-B0CB-A567F0B74D18";
shapes = (
{
closed = 1;
nodes = (
(831,608,ls),
(556,608,o),
(367,648,o),
(264,728,cs),
(165,805,o),
(128,918,o),
(128,1088,cs),
(128,1258,o),
(165,1371,o),
(264,1448,cs),
(367,1528,o),
(556,1568,o),
(831,1568,cs),
(1152,1568,ls),
(1378,1568,o),
(1544,1540,o),
(1648,1482,cs),
(1793,1402,o),
(1845,1239,o),
(1852,1016,cs),
(1854,941,o),
(1856,857,o),
(1856,764,cs),
(1856,712,ls),
(1856,484,o),
(1852,281,o),
(1752,152,cs),
(1719,109,o),
(1672,75,o),
(1610,48,cs),
(1489,-5,o),
(1293,-32,o),
(1024,-32,cs),
(691,-32,o),
(464,7,o),
(344,84,cs),
(253.601,142.054,o),
(209.286,219.367,o),
(196.794,337.616,cs),
(192.203,381.067,o),
(223.64,416,o),
(267.013,416,c),
(264.175,416,l),
(319.199,416,o),
(348.068,391.882,o),
(357.856,337.735,cs),
(369.209,274.934,o),
(397.631,242.37,o),
(448,212,cs),
(477,195,o),
(516,180,o),
(566,167,cs),
(668,141,o),
(795,128,o),
(949,128,cs),
(1103,128,o),
(1214,130,o),
(1286,133,cs),
(1469,142,o),
(1593,171,o),
(1636,313,cs),
(1654.22,372.457,o),
(1663.24,495.37,o),
(1663.95,679.975,cs),
(1664,692.133,o),
(1654.2,698.077,o),
(1643.45,692.419,cs),
(1536.46,636.14,o),
(1372.37,608,o),
(1152,608,cs)
);
},
{
closed = 1;
nodes = (
(1523,783,o),
(1610,806,o),
(1643,885,cs),
(1657,919,o),
(1664,971,o),
(1664,1040,cs),
(1664,1176,o),
(1643,1279,o),
(1566,1336,cs),
(1474,1404,o),
(1328,1408,o),
(1152,1408,cs),
(831,1408,ls),
(680,1408,o),
(578,1401,o),
(524,1388,cs),
(364,1348,o),
(320,1292,o),
(320,1088,cs),
(320,998,o),
(328,936,o),
(346,904,cs),
(381,840,o),
(422,813,o),
(500,794,cs),
(571,777,o),
(681,768,o),
(831,768,cs),
(1152,768,ls),
(1257,768,o),
(1342,770,o),
(1409,775,cs)
);
}
);
width = 1984;
}
);
unicode = 57;
},
{
glyphname = fraction;
layers = (
{
layerId = "5DBDC0A0-6414-4D3D-B0CB-A567F0B74D18";
shapes = (
{
closed = 1;
nodes = (
(753.884,1505.2,o),
(801.88,1536,o),
(863,1536,cs),
(865,1536,ls),
(915.048,1536,o),
(941.27,1495.14,o),
(920.418,1449.64,cs),
(295.582,86.361,ls),
(270.116,30.799,o),
(222.12,4.149,o),
(161,1.163,cs),
(159,-1.163,ls),
(108.952,-5.505,o),
(82.73,40.865,o),
(103.582,86.361,cs),
(728.418,1449.64,ls)
);
}
);
width = 1023;
}
);
unicode = 8260;
},
{
glyphname = onesuperior;
layers = (
{
layerId = "5DBDC0A0-6414-4D3D-B0CB-A567F0B74D18";
shapes = (
{
closed = 1;
nodes = (
(486.159,1512,o),
(547.264,1536,o),
(612,1536,cs),
(668,1536,ls),
(728.205,1536,o),
(768,1496.2,o),
(768,1436,cs),
(768,543,ls),
(768,485.805,o),
(730.195,448,o),
(673,448,cs),
(671,448,ls),
(613.805,448,o),
(576,485.805,o),
(576,543,cs),
(576,1352,ls),
(576,1362.86,o),
(566.344,1367.09,o),
(558.365,1359.72,cs),
(218.049,1045.58,ls),
(183.951,1014.11,o),
(140.443,1018.08,o),
(112.6,1055.2,cs),
(111.4,1056.8,ls),
(82.239,1095.68,o),
(86.276,1140.68,o),
(121.891,1173.76,cs),
(438.721,1467.95,ls)
);
}
);
width = 896;
}
);
unicode = 185;
},
{
glyphname = twosuperior;
layers = (
{
layerId = "5DBDC0A0-6414-4D3D-B0CB-A567F0B74D18";
shapes = (
{
closed = 1;
nodes = (
(128,753,o),
(144,812,o),
(178,849,cs),
(223,899,o),
(313,936,o),
(448,962,cs),
(834,1035,ls),
(971,1062,o),
(1024,1090,o),
(1024,1242,cs),
(1024,1369,o),
(964,1398,o),
(842,1404,cs),
(797,1406,o),
(727,1408,o),
(632,1408,cs),
(537,1408,o),
(467,1404,o),
(420,1396,cs),
(362.594,1386.87,o),
(337.529,1374.76,o),
(327.04,1336.07,cs),
(309.216,1270.33,o),
(280.029,1248,o),
(214.854,1248,c),
(215.251,1248,l),
(164.996,1248,o),
(126.845,1293.17,o),
(135.258,1342.72,cs),
(144.61,1397.81,o),
(162.954,1441,o),
(190,1472,cs),
(267,1560,o),
(408,1569,o),
(565,1569,cs),
(608,1569,o),
(652,1568,o),
(697,1568,cs),
(838,1568,o),
(989,1566,o),
(1082,1522,cs),
(1186,1473,o),
(1216,1386,o),
(1216,1220,cs),
(1216,1127,o),
(1194,1055,o),
(1150,1004,cs),
(1102,947,o),
(1018,907,o),
(898,884,cs),
(640,833,ls),
(520,809,o),
(446,792,o),
(416,782,cs),
(337.681,756.826,o),
(321.952,735.998,o),
(320.183,631.98,cs),
(319.942,617.777,o),
(329.554,608,o),
(343.759,608,cs),
(1107,608,ls),
(1154.56,608,o),
(1186,576.562,o),
(1186,529,cs),
(1186,527,ls),
(1186,479.438,o),
(1154.56,448,o),
(1107,448,cs),
(228,448,ls),
(167.795,448,o),
(128,487.795,o),
(128,548,cs),
(128,672,ls)
);
}
);
width = 1344;
}
);
unicode = 178;
},
{
glyphname = threesuperior;
layers = (
{
layerId = "5DBDC0A0-6414-4D3D-B0CB-A567F0B74D18";
shapes = (
{
closed = 1;
nodes = (
(586,1376,o),
(503,1374,o),
(455,1370,cs),
(422,1367,o),
(396,1362,o),
(378,1355,cs),
(343.824,1342.51,o),
(329.518,1326.57,o),
(323.726,1291.27,cs),
(315.464,1240.93,o),
(288.466,1218,o),
(238.316,1218,cs),
(215.28,1218,ls),
(164.987,1218,o),
(126.841,1263.1,o),
(135.18,1312.69,cs),
(145.81,1375.91,o),
(168.193,1423.57,o),
(202,1456,cs),
(274,1525,o),
(403,1537,o),
(544,1537,cs),
(628,1537,o),
(702,1536,o),
(839,1536,cs),
(955,1536,o),
(1040,1533,o),
(1093,1526,cs),
(1136,1521,o),
(1173,1512,o),
(1204,1499,cs),
(1312,1455,o),
(1343,1362,o),
(1343,1204,cs),
(1343,1079.75,o),
(1298.29,1019.12,o),
(1205.68,983.852,cs),
(1196.02,980.172,o),
(1195.79,970.799,o),
(1205.25,966.663,cs),
(1317.34,917.66,o),
(1343,871.559,o),
(1343,706,cs),
(1343,416,o),
(1083,416,o),
(791,416,cs),
(701,416,o),
(631,415,o),
(565,415,cs),
(380,415,o),
(259,441,o),
(202,490,cs),
(170.203,517.255,o),
(148.512,556.722,o),
(137.201,608.401,cs),
(126.622,656.733,o),
(163.858,703,o),
(211.496,703,c),
(158.805,703,l),
(269.701,703,o),
(270.8,702.469,o),
(339.723,615.592,cs),
(360.009,590.023,o),
(396.933,586.19,o),
(455,582,cs),
(525,577,o),
(593,576,o),
(671,576,cs),
(770,576,ls),
(845,576,o),
(908,577,o),
(957,578,cs),
(1006,579,o),
(1046,584,o),
(1074,594,cs),
(1136,615,o),
(1150,657,o),
(1150,746,cs),
(1150,794,o),
(1138,831,o),
(1115,857,cs),
(1082,895,o),
(1028,896,o),
(959,896,cs),
(847,896,ls),
(799.438,896,o),
(768,927.438,o),
(768,975,cs),
(768,977,ls),
(768,1024.56,o),
(799.438,1056,o),
(847,1056,cs),
(959,1056,ls),
(1100,1056,o),
(1150,1091,o),
(1150,1226,cs),
(1150,1349,o),
(1095,1377,o),
(971,1377,cs),
(909,1377,o),
(834,1376,o),
(705,1376,cs)
);
}
);
width = 1471;
}
);
unicode = 179;
},
{
glyphname = foursuperior;
layers = (
{
layerId = "5DBDC0A0-6414-4D3D-B0CB-A567F0B74D18";
shapes = (
{
closed = 1;
nodes = (
(1161.59,192,o),
(1152,182.407,o),
(1152,168,cs),
(1152,95,ls),
(1152,37.806,o),
(1114.19,4.63,o),
(1057,1.163,cs),
(1055,-1.163,ls),
(997.805,-4.63,o),
(960,37.806,o),
(960,95,cs),
(960,168,ls),
(960,182.407,o),
(950.407,192,o),
(936,192,cs),
(223,192,ls),
(165.805,192,o),
(128,229.805,o),
(128,287,cs),
(128,289,ls),
(128,350.727,o),
(152.528,406.484,o),
(198.03,448.194,cs),
(822.285,1020.43,ls),
(869.985,1064.15,o),
(931.292,1088,o),
(996,1088,cs),
(1052,1088,ls),
(1112.2,1088,o),
(1152,1048.2,o),
(1152,988,cs),
(1152,376,ls),
(1152,361.593,o),
(1161.59,352,o),
(1176,352,cs),
(1265,352,ls),
(1312.56,352,o),
(1344,320.562,o),
(1344,273,cs),
(1344,271,ls),
(1344,223.438,o),
(1312.56,192,o),
(1265,192,cs),
(1176,192,ls)
);
},
{
closed = 1;
nodes = (
(950.407,352,o),
(960,361.593,o),
(960,376,cs),
(960,936,ls),
(960,946.765,o),
(950.405,950.885,o),
(942.6,943.47,cs),
(337.4,368.53,ls),
(329.845,361.352,o),
(333.579,352,o),
(344,352,cs),
(936,352,ls)
);
}
);
width = 1472;
}
);
unicode = 8308;
},
{
glyphname = asterisk;
layers = (
{
layerId = "5DBDC0A0-6414-4D3D-B0CB-A567F0B74D18";
shapes = (
{
closed = 1;
nodes = (
(296.045,472.199,o),
(290.434,524.121,o),
(327.67,565.142,cs),
(611.869,878.229,ls),
(620.411,887.64,o),
(617.35,899.749,o),
(605.362,903.969,cs),
(222.327,1038.8,ls),
(167.99,1057.92,o),
(148.765,1108.96,o),
(176.98,1159.18,cs),
(179.02,1162.82,ls),
(208.331,1214.99,o),
(262.478,1229.41,o),
(313.854,1198.73,cs),
(639.395,1004.31,ls),
(649.422,998.318,o),
(658.917,1004.27,o),
(657.891,1015.91,cs),
(620.35,1441.37,ls),
(615.427,1497.16,o),
(650.996,1536,o),
(707,1536,cs),
(709,1536,ls),
(765.004,1536,o),
(800.573,1497.16,o),
(795.65,1441.37,cs),
(758.109,1015.91,ls),
(757.083,1004.28,o),
(766.576,998.331,o),
(776.592,1004.33,cs),
(1101.2,1198.64,ls),
(1152.53,1229.37,o),
(1206.68,1214.98,o),
(1235.98,1162.82,cs),
(1238.02,1159.18,ls),
(1266.24,1108.95,o),
(1247.03,1057.9,o),
(1192.69,1038.74,cs),
(810.633,903.983,ls),
(798.645,899.755,o),
(795.587,887.642,o),
(804.131,878.229,cs),
(1088.33,565.142,ls),
(1125.57,524.121,o),
(1119.96,472.199,o),
(1074.81,440.08,cs),
(1073.19,438.92,ls),
(1027.24,406.23,o),
(975.33,416.297,o),
(944.935,463.788,cs),
(720.937,813.785,ls),
(714.189,824.329,o),
(701.811,824.329,o),
(695.063,813.785,cs),
(471.065,463.788,ls),
(440.67,416.297,o),
(388.757,406.23,o),
(342.815,438.92,cs),
(341.185,440.08,ls)
);
}
);
width = 1415;
}
);
unicode = 42;
},
{
glyphname = backslash;
layers = (
{
layerId = "5DBDC0A0-6414-4D3D-B0CB-A567F0B74D18";
shapes = (
{
closed = 1;
nodes = (
(801.88,-4.149,o),
(753.884,30.799,o),
(728.418,86.361,cs),
(103.582,1449.64,ls),
(82.73,1495.14,o),
(108.952,1536,o),
(159,1536,cs),
(161,1536,ls),
(222.12,1536,o),
(270.116,1505.2,o),
(295.582,1449.64,cs),
(920.418,86.361,ls),
(941.27,40.865,o),
(915.048,5.505,o),
(865,1.163,cs),
(863,-1.163,ls)
);
}
);
width = 1023;
}
);
unicode = 92;
},
{
glyphname = bullet;
layers = (
{
layerId = "5DBDC0A0-6414-4D3D-B0CB-A567F0B74D18";
shapes = (
{
closed = 1;
nodes = (
(810,768,o),
(896,683,o),
(896,512,cs),
(896,342,o),
(805,256,o),
(640,256,cs),
(470,256,o),
(384,340,o),
(384,512,cs),
(384,683,o),
(469,768,o),
(640,768,cs)
);
}
);
width = 1280;
}
);
unicode = 8226;
},
{
glyphname = colon;
layers = (
{
layerId = "5DBDC0A0-6414-4D3D-B0CB-A567F0B74D18";
shapes = (
{
closed = 1;
nodes = (
(165.805,768,o),
(128,805.805,o),
(128,863,cs),
(128,865,ls),
(128,922.195,o),
(165.805,960,o),
(223,960,cs),
(225,960,ls),
(282.195,960,o),
(320,922.195,o),
(320,865,cs),
(320,863,ls),
(320,805.805,o),
(282.195,768,o),
(225,768,cs),
(223,768,ls)
);
},
{
closed = 1;
nodes = (
(165.805,192,o),
(128,229.805,o),
(128,287,cs),
(128,289,ls),
(128,346.195,o),
(165.805,384,o),
(223,384,cs),
(225,384,ls),
(282.195,384,o),
(320,346.195,o),
(320,289,cs),
(320,287,ls),
(320,229.805,o),
(282.195,192,o),
(225,192,cs),
(223,192,ls)
);
}
);
width = 448;
}
);
unicode = 58;
},
{
glyphname = comma;
layers = (
{
layerId = "5DBDC0A0-6414-4D3D-B0CB-A567F0B74D18";
shapes = (
{
closed = 1;
nodes = (
(277.203,128,o),
(306.466,87.399,o),
(289.958,37.875,cs),
(211.922,-196.233,ls),
(199.248,-234.257,o),
(169.081,-256,o),
(129,-256,cs),
(127,-256,ls),
(90.623,-256,o),
(68.377,-229.739,o),
(74.357,-193.857,cs),
(112.382,34.293,ls),
(122.095,92.569,o),
(163.92,128,o),
(223,128,cs),
(225,128,ls)
);
}
);
width = 448;
}
);
unicode = 44;
},
{
glyphname = exclam;
layers = (
{
layerId = "5DBDC0A0-6414-4D3D-B0CB-A567F0B74D18";
shapes = (
{
closed = 1;
nodes = (
(281.614,1536,o),
(318.308,1497.65,o),
(315.813,1441.09,cs),
(274.072,494.954,ls),
(272.812,466.415,o),
(253.567,448,o),
(225,448,cs),
(223,448,ls),
(194.433,448,o),
(175.188,466.415,o),
(173.928,494.954,cs),
(132.187,1441.09,ls),
(129.692,1497.65,o),
(166.386,1536,o),
(223,1536,cs),
(225,1536,ls)
);
},
{
closed = 1;
nodes = (
(165.805,-4.63,o),
(128,37.806,o),
(128,95,cs),
(128,97,ls),
(128,154.195,o),
(165.805,192,o),
(223,192,cs),
(225,192,ls),
(282.195,192,o),
(320,154.195,o),
(320,97,cs),
(320,95,ls),
(320,37.806,o),
(282.195,4.63,o),
(225,1.163,cs),
(223,-1.163,ls)
);
}
);
width = 448;
}
);
unicode = 33;
},
{
glyphname = exclamdown;
layers = (
{
layerId = "5DBDC0A0-6414-4D3D-B0CB-A567F0B74D18";
shapes = (
{
closed = 1;
nodes = (
(175.188,1069.59,o),
(194.433,1088,o),
(223,1088,cs),
(225,1088,ls),
(253.567,1088,o),
(272.812,1069.59,o),
(274.072,1041.05,cs),
(315.813,94.908,ls),
(318.308,38.348,o),
(281.614,4.701,o),
(225,1.163,cs),
(223,-1.163,ls),
(166.386,-4.701,o),
(129.692,38.348,o),
(132.187,94.908,cs),
(173.928,1041.05,ls)
);
},
{
closed = 1;
nodes = (
(320,1381.81,o),
(282.195,1344,o),
(225,1344,cs),
(223,1344,ls),
(165.805,1344,o),
(128,1381.81,o),
(128,1439,cs),
(128,1441,ls),
(128,1498.19,o),
(165.805,1536,o),
(223,1536,cs),
(225,1536,ls),
(282.195,1536,o),
(320,1498.19,o),
(320,1441,cs),
(320,1439,ls)
);
}
);
width = 448;
}
);
unicode = 161;
},
{
glyphname = numbersign;
layers = (
{
layerId = "5DBDC0A0-6414-4D3D-B0CB-A567F0B74D18";
shapes = (
{
closed = 1;
nodes = (
(534.891,320,o),
(523.862,311.37,o),
(520.228,296.704,cs),
(434.846,-47.9,ls),
(423.032,-95.583,o),
(383.012,-118.403,o),
(335.958,-104.287,cs),
(334.042,-103.713,ls),
(285.952,-89.285,o),
(262.764,-48.632,o),
(274.826,0.105,cs),
(348.234,296.703,ls),
(351.466,309.76,o),
(343.451,320,o),
(330,320,cs),
(207,320,ls),
(159.438,320,o),
(128,351.438,o),
(128,399,cs),
(128,401,ls),
(128,448.562,o),
(159.438,480,o),
(207,480,cs),
(369,480,ls),
(384.114,480,o),
(395.155,488.621,o),
(398.821,503.283,cs),
(483.179,840.717,ls),
(486.439,853.757,o),
(478.442,864,o),
(465,864,cs),
(271,864,ls),
(223.438,864,o),
(192,895.438,o),
(192,943,cs),
(192,945,ls),
(192,992.562,o),
(223.438,1024,o),
(271,1024,cs),
(504,1024,ls),
(519.114,1024,o),
(530.155,1032.62,o),
(533.821,1047.28,cs),
(619.985,1391.94,ls),
(631.906,1439.62,o),
(671.965,1462.41,o),
(719.042,1448.29,cs),
(720.958,1447.71,ls),
(769.025,1433.29,o),
(792.157,1392.63,o),
(779.985,1343.94,cs),
(705.821,1047.28,ls),
(702.561,1034.24,o),
(710.558,1024,o),
(724,1024,cs),
(985,1024,ls),
(1000.11,1024,o),
(1011.16,1032.62,o),
(1014.82,1047.28,cs),
(1100.99,1391.94,ls),
(1112.91,1439.62,o),
(1152.96,1462.41,o),
(1200.04,1448.29,cs),
(1201.96,1447.71,ls),
(1250.02,1433.29,o),
(1273.16,1392.63,o),
(1260.99,1343.94,cs),
(1186.82,1047.28,ls),
(1183.56,1034.24,o),
(1191.56,1024,o),
(1205,1024,cs),
(1329,1024,ls),
(1376.56,1024,o),
(1408,992.562,o),
(1408,945,cs),
(1408,943,ls),
(1408,895.438,o),
(1376.56,864,o),
(1329,864,cs),
(1166,864,ls),
(1150.89,864,o),
(1139.84,855.379,o),
(1136.18,840.717,cs),
(1051.82,503.283,ls),
(1048.56,490.243,o),
(1056.56,480,o),
(1070,480,cs),
(1265,480,ls),
(1312.56,480,o),
(1344,448.562,o),
(1344,401,cs),
(1344,399,ls),
(1344,351.438,o),
(1312.56,320,o),
(1265,320,cs),
(1031,320,ls),
(1015.89,320,o),
(1004.86,311.37,o),
(1001.23,296.704,cs),
(915.846,-47.9,ls),
(904.032,-95.583,o),
(864.012,-118.403,o),
(816.958,-104.287,cs),
(815.042,-103.713,ls),
(766.952,-89.285,o),
(743.764,-48.632,o),
(755.826,0.105,cs),
(829.234,296.703,ls),
(832.466,309.76,o),
(824.451,320,o),
(811,320,cs),
(550,320,ls)
);
},
{
closed = 1;
nodes = (
(865.114,480,o),
(876.155,488.621,o),
(879.821,503.283,cs),
(964.179,840.717,ls),
(967.439,853.757,o),
(959.442,864,o),
(946,864,cs),
(685,864,ls),
(669.886,864,o),
(658.845,855.379,o),
(655.179,840.717,cs),
(570.821,503.283,ls),
(567.561,490.243,o),
(575.558,480,o),
(589,480,cs),
(850,480,ls)
);
}
);
width = 1536;
}
);
unicode = 35;
},
{
glyphname = period;
layers = (
{
layerId = "5DBDC0A0-6414-4D3D-B0CB-A567F0B74D18";
shapes = (
{
closed = 1;
nodes = (
(165.805,-4.63,o),
(128,37.806,o),
(128,95,cs),
(128,97,ls),
(128,154.195,o),
(165.805,192,o),
(223,192,cs),
(225,192,ls),
(282.195,192,o),
(320,154.195,o),
(320,97,cs),
(320,95,ls),
(320,37.806,o),
(282.195,4.63,o),
(225,1.163,cs),
(223,-1.163,ls)
);
}
);
width = 448;
}
);
unicode = 46;
},
{
glyphname = periodcentered;
layers = (
{
layerId = "5DBDC0A0-6414-4D3D-B0CB-A567F0B74D18";
shapes = (
{
closed = 1;
nodes = (
(320,741.805,o),
(282.195,704,o),
(225,704,cs),
(223,704,ls),
(165.805,704,o),
(128,741.805,o),
(128,799,cs),
(128,801,ls),
(128,858.195,o),
(165.805,896,o),
(223,896,cs),
(225,896,ls),
(282.195,896,o),
(320,858.195,o),
(320,801,cs),
(320,799,ls)
);
}
);
width = 448;
}
);
unicode = 183;
},
{
glyphname = question;
layers = (
{
layerId = "5DBDC0A0-6414-4D3D-B0CB-A567F0B74D18";
shapes = (
{
closed = 1;
nodes = (
(1093,736,o),
(946,728,o),
(910,571,cs),
(902.81,540.802,o),
(898.722,488.892,o),
(896.992,416.014,cs),
(895.608,357.704,o),
(858.022,321,o),
(799.737,321,cs),
(736,321,ls),
(716.734,321,o),
(704,333.734,o),
(704,353,cs),
(704,387,ls),
(704,496,o),
(709,572,o),
(720,616,cs),
(772,826,o),
(940,896,o),
(1216,896,cs),
(1438,896,o),
(1535,943,o),
(1535,1152,cs),
(1535,1273,o),
(1507,1340,o),
(1424,1374,cs),
(1384,1390,o),
(1331,1401,o),
(1266,1404,cs),
(1201,1407,o),
(1115,1408,o),
(1008,1408,cs),
(831,1408,o),
(667,1408,o),
(528,1388,cs),
(411,1371,o),
(333,1343,o),
(324,1228,cs),
(322.904,1211.56,o),
(321.809,1193.63,o),
(321.042,1174.03,cs),
(319.777,1141.71,o),
(299.286,1122,o),
(266.969,1122,cs),
(217.016,1122,ls),
(165.257,1122,o),
(127.066,1165.5,o),
(133.771,1216.83,cs),
(146.164,1311.69,o),
(178.611,1384.9,o),
(232,1436,cs),
(318,1519,o),
(494,1562,o),
(758,1566,cs),
(840,1567,o),
(923,1568,o),
(1008,1568,cs),
(1034,1568,ls),
(1288,1568,o),
(1526,1566,o),
(1645,1432,cs),
(1700,1370,o),
(1728,1277,o),
(1728,1153,cs),
(1728,890,o),
(1572,736,o),
(1292,736,cs)
);
},
{
closed = 1;
nodes = (
(741.805,-4.63,o),
(704,37.806,o),
(704,95,cs),
(704,97,ls),
(704,154.195,o),
(741.805,192,o),
(799,192,cs),
(801,192,ls),
(858.195,192,o),
(896,154.195,o),
(896,97,cs),
(896,95,ls),
(896,37.806,o),
(858.195,4.63,o),
(801,1.163,cs),
(799,-1.163,ls)
);
}
);
width = 1856;
}
);
unicode = 63;
},
{
glyphname = quotedbl;
layers = (
{
layerId = "5DBDC0A0-6414-4D3D-B0CB-A567F0B74D18";
shapes = (
{
closed = 1;
nodes = (
(281.073,1536,o),
(316.767,1497.21,o),
(312.111,1441.33,cs),
(293.232,1214.78,ls),
(290.027,1176.32,o),
(263.596,1152,o),
(225,1152,cs),
(223,1152,ls),
(184.404,1152,o),
(157.973,1176.32,o),
(154.768,1214.78,cs),
(135.889,1441.33,ls),
(131.233,1497.21,o),
(166.927,1536,o),
(223,1536,cs),
(225,1536,ls)
);
},
{
closed = 1;
nodes = (
(601.073,1536,o),
(636.767,1497.21,o),
(632.111,1441.33,cs),
(613.232,1214.78,ls),
(610.027,1176.32,o),
(583.596,1152,o),
(545,1152,cs),
(543,1152,ls),
(504.404,1152,o),
(477.973,1176.32,o),
(474.768,1214.78,cs),
(455.889,1441.33,ls),
(451.233,1497.21,o),
(486.927,1536,o),
(543,1536,cs),
(545,1536,ls)
);
}
);
width = 768;
}
);
unicode = 34;
},
{
glyphname = quotesingle;
layers = (
{
layerId = "5DBDC0A0-6414-4D3D-B0CB-A567F0B74D18";
shapes = (
{
closed = 1;
nodes = (
(281.073,1536,o),
(316.767,1497.21,o),
(312.111,1441.33,cs),
(293.232,1214.78,ls),
(290.027,1176.32,o),
(263.596,1152,o),
(225,1152,cs),
(223,1152,ls),
(184.404,1152,o),
(157.973,1176.32,o),
(154.768,1214.78,cs),
(135.889,1441.33,ls),
(131.233,1497.21,o),
(166.927,1536,o),
(223,1536,cs),
(225,1536,ls)
);
}
);
width = 448;
}
);
unicode = 39;
},
{
glyphname = semicolon;
layers = (
{
layerId = "5DBDC0A0-6414-4D3D-B0CB-A567F0B74D18";
shapes = (
{
closed = 1;
nodes = (
(277.203,512,o),
(306.466,471.399,o),
(289.958,421.875,cs),
(211.922,187.767,ls),
(199.248,149.743,o),
(169.081,128,o),
(129,128,cs),
(127,128,ls),
(90.623,128,o),
(68.377,154.261,o),
(74.357,190.143,cs),
(112.382,418.293,ls),
(122.095,476.569,o),
(163.92,512,o),
(223,512,cs),
(225,512,ls)
);
},
{
closed = 1;
nodes = (
(165.805,768,o),
(128,805.805,o),
(128,863,cs),
(128,865,ls),
(128,922.195,o),
(165.805,960,o),
(223,960,cs),
(225,960,ls),
(282.195,960,o),
(320,922.195,o),
(320,865,cs),
(320,863,ls),
(320,805.805,o),
(282.195,768,o),
(225,768,cs),
(223,768,ls)
);
}
);
width = 448;
}
);
unicode = 59;
},
{
glyphname = slash;
layers = (
{
layerId = "5DBDC0A0-6414-4D3D-B0CB-A567F0B74D18";
shapes = (
{
closed = 1;
nodes = (
(915.048,1536,o),
(941.27,1495.14,o),
(920.418,1449.64,cs),
(295.582,86.361,ls),
(270.116,30.799,o),
(222.12,4.149,o),
(161,1.163,cs),
(159,-1.163,ls),
(108.952,-5.505,o),
(82.73,40.865,o),
(103.582,86.361,cs),
(728.418,1449.64,ls),
(753.884,1505.2,o),
(801.88,1536,o),
(863,1536,cs),
(865,1536,ls)
);
}
);
width = 1023;
}
);
unicode = 47;
},
{
glyphname = underscore;
layers = (
{
layerId = "5DBDC0A0-6414-4D3D-B0CB-A567F0B74D18";
shapes = (
{
closed = 1;
nodes = (
(1056.56,0,o),
(1088,-31.438,o),
(1088,-79,cs),
(1088,-81,ls),
(1088,-128.562,o),
(1056.56,-160,o),
(1009,-160,cs),
(79,-160,ls),
(31.438,-160,o),
(1.925,-128.562,o),
(4.837,-81,cs),
(-4.837,-79,ls),
(-1.925,-31.438,o),
(31.438,0,o),
(79,0,cs),
(1009,0,ls)
);
}
);
width = 1088;
}
);
unicode = 95;
},
{
glyphname = braceleft;
layers = (
{
layerId = "5DBDC0A0-6414-4D3D-B0CB-A567F0B74D18";
shapes = (
{
closed = 1;
nodes = (
(128,815.281,o),
(155.068,845.549,o),
(206.937,851.355,cs),
(288.083,860.439,o),
(320,891.337,o),
(320,983,cs),
(320,1014,ls),
(320,1048,o),
(320,1088,o),
(322,1135,cs),
(332.125,1427.69,o),
(462.545,1575.52,o),
(753.028,1597.19,cs),
(797.87,1600.54,o),
(832,1568.86,o),
(832,1524.09,cs),
(832,1524.06,ls),
(832,1471.99,o),
(804.847,1441.7,o),
(753.087,1436.03,cs),
(690.266,1429.14,o),
(641.362,1413.26,o),
(606,1388,cs),
(516,1323,o),
(512,1176,o),
(512,1020,cs),
(512,987,o),
(511,961,o),
(510,940,cs),
(505.464,871.958,o),
(470.475,818.731,o),
(405.032,779.573,cs),
(394.617,773.341,o),
(394.67,762.652,o),
(405.133,756.533,cs),
(480.772,712.296,o),
(512,655,o),
(512,542,cs),
(512,516,ls),
(512,483,o),
(512,436,o),
(514,374,cs),
(518.368,202.787,o),
(586.07,118.563,o),
(753.1,100,cs),
(805.045,94.226,o),
(832,64.109,o),
(832,12.23,cs),
(832,12.008,ls),
(832,-32.778,o),
(797.693,-64.534,o),
(753.04,-61.08,cs),
(574.117,-47.239,o),
(447.964,16.205,o),
(384,138,cs),
(332,237,o),
(320,374,o),
(320,522,cs),
(320,556,ls),
(320,646.738,o),
(287.57,676.289,o),
(206.917,684.856,cs),
(151.673,690.724,o),
(128,717.045,o),
(128,762.088,cs),
(128,763.088,ls)
);
}
);
width = 960;
}
);
unicode = 123;
},
{
glyphname = braceright;
layers = (
{
layerId = "5DBDC0A0-6414-4D3D-B0CB-A567F0B74D18";
shapes = (
{
closed = 1;
nodes = (
(448,1053,o),
(448,1100,o),
(446,1162,cs),
(441.632,1333.21,o),
(373.93,1417.44,o),
(206.9,1436,cs),
(154.955,1441.77,o),
(128,1471.89,o),
(128,1523.77,cs),
(128,1523.98,ls),
(128,1568.79,o),
(162.285,1600.54,o),
(206.958,1597.11,cs),
(440.804,1579.15,o),
(578.573,1476.92,o),
(621,1272,cs),
(636,1198,o),
(640,1097,o),
(640,1014,cs),
(640,980,o),
(641,955,o),
(643,936,cs),
(648.902,880.666,o),
(688.009,859.08,o),
(753.092,851.565,cs),
(805.228,845.544,o),
(832,815.503,o),
(832,763.453,c),
(832,772.55,l),
(832,720.675,o),
(804.655,690.31,o),
(753.063,684.896,cs),
(671.917,676.381,o),
(640,646.88,o),
(640,556,cs),
(640,522,ls),
(640,488,o),
(640,448,o),
(638,401,cs),
(627.875,108.31,o),
(497.455,-39.517,o),
(206.972,-61.194,cs),
(162.13,-64.541,o),
(128,-32.863,o),
(128,11.912,cs),
(128,11.938,ls),
(128,64.008,o),
(155.153,94.299,o),
(206.913,99.972,cs),
(269.734,106.857,o),
(318.638,122.741,o),
(354,148,cs),
(444,213,o),
(448,360,o),
(448,516,cs),
(448,549,o),
(449,575,o),
(450,596,cs),
(454.536,664.042,o),
(489.525,717.269,o),
(554.968,756.427,cs),
(565.383,762.659,o),
(565.33,773.348,o),
(554.867,779.467,cs),
(479.228,823.704,o),
(448,881,o),
(448,994,cs),
(448,1020,ls)
);
}
);
width = 960;
}
);
unicode = 125;
},
{
glyphname = bracketleft;
layers = (
{
layerId = "5DBDC0A0-6414-4D3D-B0CB-A567F0B74D18";
shapes = (
{
closed = 1;
nodes = (
(672.562,1536,o),
(704,1504.56,o),
(704,1457,cs),
(704,1455,ls),
(704,1407.44,o),
(672.562,1376,o),
(625,1376,cs),
(344,1376,ls),
(329.593,1376,o),
(320,1366.41,o),
(320,1352,cs),
(320,184,ls),
(320,169.593,o),
(329.593,160,o),
(344,160,cs),
(625,160,ls),
(672.562,160,o),
(704,128.562,o),
(704,81,cs),
(704,79,ls),
(704,31.438,o),
(672.562,3.85,o),
(625,9.675,cs),
(228,-1.225,ls),
(167.795,-4.874,o),
(128,39.795,o),
(128,100,cs),
(128,1436,ls),
(128,1496.2,o),
(167.795,1536,o),
(228,1536,cs),
(625,1536,ls)
);
}
);
width = 832;
}
);
unicode = 91;
},
{
glyphname = bracketright;
layers = (
{
layerId = "5DBDC0A0-6414-4D3D-B0CB-A567F0B74D18";
shapes = (
{
closed = 1;
nodes = (
(159.438,-3.85,o),
(128,31.438,o),
(128,79,cs),
(128,81,ls),
(128,128.562,o),
(159.438,160,o),
(207,160,cs),
(488,160,ls),
(502.407,160,o),
(512,169.593,o),
(512,184,cs),
(512,1352,ls),
(512,1366.41,o),
(502.407,1376,o),
(488,1376,cs),
(207,1376,ls),
(159.438,1376,o),
(128,1407.44,o),
(128,1455,cs),
(128,1457,ls),
(128,1504.56,o),
(159.438,1536,o),
(207,1536,cs),
(604,1536,ls),
(664.205,1536,o),
(704,1496.2,o),
(704,1436,cs),
(704,100,ls),
(704,39.795,o),
(664.205,4.874,o),
(604,1.225,cs),
(207,-9.675,ls)
);
}
);
width = 832;
}
);
unicode = 93;
},
{
glyphname = parenleft;
layers = (
{
layerId = "5DBDC0A0-6414-4D3D-B0CB-A567F0B74D18";
shapes = (
{
closed = 1;
nodes = (
(155,306,o),
(134,427,o),
(130,573,cs),
(128,639,o),
(128,704,o),
(128,768,cs),
(128,942,o),
(133,1065,o),
(144,1138,cs),
(166,1280,o),
(202,1387,o),
(280,1470,cs),
(347.746,1541.88,o),
(441.429,1583.72,o),
(561.05,1596.1,cs),
(604.915,1600.64,o),
(640,1568.99,o),
(640,1525.26,c),
(640,1526.15,l),
(640,1472.23,o),
(614.498,1442.6,o),
(561.172,1434.58,cs),
(497.078,1424.93,o),
(448.148,1402.33,o),
(414,1366,cs),
(356,1305,o),
(325,1174,o),
(322,974,cs),
(321,912,o),
(320,843,o),
(320,768,cs),
(320,586,o),
(323,466,o),
(330,408,cs),
(350.035,232.91,o),
(400.422,126.113,o),
(561.142,101.488,cs),
(614.845,93.26,o),
(640,63.958,o),
(640,10.406,c),
(640,11.094,l),
(640,-32.825,o),
(604.74,-64.614,o),
(561.056,-60.079,cs),
(376.202,-40.89,o),
(252.729,48.697,o),
(192,208,cs)
);
}
);
width = 768;
}
);
unicode = 40;
},
{
glyphname = parenright;
layers = (
{
layerId = "5DBDC0A0-6414-4D3D-B0CB-A567F0B74D18";
shapes = (
{
closed = 1;
nodes = (
(412,231,o),
(443,362,o),
(446,562,cs),
(447,624,o),
(448,693,o),
(448,768,cs),
(448,950,o),
(445,1070,o),
(438,1128,cs),
(417.965,1303.09,o),
(367.578,1409.89,o),
(206.858,1434.51,cs),
(153.155,1442.74,o),
(128,1472.04,o),
(128,1525.59,c),
(128,1524.91,l),
(128,1568.82,o),
(163.26,1600.61,o),
(206.944,1596.08,cs),
(391.798,1576.89,o),
(515.271,1487.3,o),
(576,1328,cs),
(613,1230,o),
(634,1109,o),
(638,963,cs),
(640,897,o),
(640,832,o),
(640,768,cs),
(640,594,o),
(635,471,o),
(624,398,cs),
(602,256,o),
(566,149,o),
(488,66,cs),
(420.254,-5.877,o),
(326.571,-47.721,o),
(206.95,-60.097,cs),
(163.085,-64.635,o),
(128,-32.993,o),
(128,10.735,c),
(128,9.847,l),
(128,63.773,o),
(153.502,93.4,o),
(206.828,101.424,cs),
(270.922,111.069,o),
(319.852,133.672,o),
(354,170,cs)
);
}
);
width = 768;
}
);
unicode = 41;
},
{
glyphname = emdash;
layers = (
{
layerId = "5DBDC0A0-6414-4D3D-B0CB-A567F0B74D18";
shapes = (
{
closed = 1;
nodes = (
(-1.925,640.562,o),
(31.438,672,o),
(79,672,cs),
(1009,672,ls),
(1056.56,672,o),
(1088,640.562,o),
(1088,593,cs),
(1088,591,ls),
(1088,543.438,o),
(1056.56,512,o),
(1009,512,cs),
(79,512,ls),
(31.438,512,o),
(1.925,543.438,o),
(4.837,591,cs),
(-4.837,593,ls)
);
}
);
width = 1088;
}
);
unicode = 8212;
},
{
glyphname = endash;
layers = (
{
layerId = "5DBDC0A0-6414-4D3D-B0CB-A567F0B74D18";
shapes = (
{
closed = 1;
nodes = (
(128,640.562,o),
(159.438,672,o),
(207,672,cs),
(881,672,ls),
(928.562,672,o),
(960,640.562,o),
(960,593,cs),
(960,591,ls),
(960,543.438,o),
(928.562,512,o),
(881,512,cs),
(207,512,ls),
(159.438,512,o),
(128,543.438,o),
(128,591,cs),
(128,593,ls)
);
}
);
width = 1088;
}
);
unicode = 8211;
},
{
glyphname = hyphen;
layers = (
{
layerId = "5DBDC0A0-6414-4D3D-B0CB-A567F0B74D18";
shapes = (
{
closed = 1;
nodes = (
(864.562,672,o),
(896,640.562,o),
(896,593,cs),
(896,591,ls),
(896,543.438,o),
(864.562,512,o),
(817,512,cs),
(207,512,ls),
(159.438,512,o),
(128,543.438,o),
(128,591,cs),
(128,593,ls),
(128,640.562,o),
(159.438,672,o),
(207,672,cs),
(817,672,ls)
);
}
);
width = 1024;
}
);
unicode = 45;
},
{
glyphname = softhyphen;
layers = (
{
layerId = "5DBDC0A0-6414-4D3D-B0CB-A567F0B74D18";
shapes = (
{
closed = 1;
nodes = (
(864.562,672,o),
(896,640.562,o),
(896,593,cs),
(896,591,ls),
(896,543.438,o),
(864.562,512,o),
(817,512,cs),
(207,512,ls),
(159.438,512,o),
(128,543.438,o),
(128,591,cs),
(128,593,ls),
(128,640.562,o),
(159.438,672,o),
(207,672,cs),
(817,672,ls)
);
}
);
width = 1024;
}
);
unicode = 173;
},
{
glyphname = guillemotleft;
layers = (
{
layerId = "5DBDC0A0-6414-4D3D-B0CB-A567F0B74D18";
shapes = (
{
closed = 1;
nodes = (
(690.682,152.91,o),
(646.562,145.956,o),
(607.46,173.558,cs),
(205.612,457.215,ls),
(155.168,492.822,o),
(128,545.255,o),
(128,607,cs),
(128,609,ls),
(128,670.745,o),
(155.168,723.178,o),
(205.612,758.785,cs),
(607.46,1042.44,ls),
(646.562,1070.04,o),
(690.682,1063.09,o),
(719.4,1024.8,cs),
(720.6,1023.2,ls),
(748.867,985.511,o),
(741.723,941.934,o),
(702.901,915.244,cs),
(275.777,621.597,ls),
(265.192,614.32,o),
(265.192,601.68,o),
(275.777,594.403,cs),
(702.901,300.756,ls),
(741.723,274.066,o),
(748.867,230.489,o),
(720.6,192.8,cs),
(719.4,191.2,ls)
);
},
{
closed = 1;
nodes = (
(1138.68,152.91,o),
(1094.56,145.956,o),
(1055.46,173.558,cs),
(653.612,457.215,ls),
(603.168,492.822,o),
(576,545.255,o),
(576,607,cs),
(576,609,ls),
(576,670.745,o),
(603.168,723.178,o),
(653.612,758.785,cs),
(1055.46,1042.44,ls),
(1094.56,1070.04,o),
(1138.68,1063.09,o),
(1167.4,1024.8,cs),
(1168.6,1023.2,ls),
(1196.87,985.511,o),
(1189.72,941.934,o),
(1150.9,915.244,cs),
(723.777,621.597,ls),
(713.192,614.32,o),
(713.192,601.68,o),
(723.777,594.403,cs),
(1150.9,300.756,ls),
(1189.72,274.066,o),
(1196.87,230.489,o),
(1168.6,192.8,cs),
(1167.4,191.2,ls)
);
}
);
width = 1344;
}
);
unicode = 171;
},
{
glyphname = guillemotright;
layers = (
{
layerId = "5DBDC0A0-6414-4D3D-B0CB-A567F0B74D18";
shapes = (
{
closed = 1;
nodes = (
(154.277,941.934,o),
(147.133,985.511,o),
(175.4,1023.2,cs),
(176.6,1024.8,ls),
(205.318,1063.09,o),
(249.438,1070.04,o),
(288.54,1042.44,cs),
(690.388,758.785,ls),
(740.832,723.178,o),
(768,670.745,o),
(768,609,cs),
(768,607,ls),
(768,545.255,o),
(740.832,492.822,o),
(690.388,457.215,cs),
(288.54,173.558,ls),
(249.438,145.956,o),
(205.318,152.91,o),
(176.6,191.2,cs),
(175.4,192.8,ls),
(147.133,230.489,o),
(154.277,274.066,o),
(193.099,300.756,cs),
(620.223,594.403,ls),
(630.808,601.68,o),
(630.808,614.32,o),
(620.223,621.597,cs),
(193.099,915.244,ls)
);
},
{
closed = 1;
nodes = (
(602.277,941.934,o),
(595.133,985.511,o),
(623.4,1023.2,cs),
(624.6,1024.8,ls),
(653.318,1063.09,o),
(697.438,1070.04,o),
(736.54,1042.44,cs),
(1138.39,758.785,ls),
(1188.83,723.178,o),
(1216,670.745,o),
(1216,609,cs),
(1216,607,ls),
(1216,545.255,o),
(1188.83,492.822,o),
(1138.39,457.215,cs),
(736.54,173.558,ls),
(697.438,145.956,o),
(653.318,152.91,o),
(624.6,191.2,cs),
(623.4,192.8,ls),
(595.133,230.489,o),
(602.277,274.066,o),
(641.099,300.756,cs),
(1068.22,594.403,ls),
(1078.81,601.68,o),
(1078.81,614.32,o),
(1068.22,621.597,cs),
(641.099,915.244,ls)
);
}
);
width = 1344;
}
);
unicode = 187;
},
{
glyphname = guilsinglleft;
layers = (
{
layerId = "5DBDC0A0-6414-4D3D-B0CB-A567F0B74D18";
shapes = (
{
closed = 1;
nodes = (
(741.723,274.066,o),
(748.867,230.489,o),
(720.6,192.8,cs),
(719.4,191.2,ls),
(690.682,152.91,o),
(646.562,145.956,o),
(607.46,173.558,cs),
(205.612,457.215,ls),
(155.168,492.822,o),
(128,545.255,o),
(128,607,cs),
(128,609,ls),
(128,670.745,o),
(155.168,723.178,o),
(205.612,758.785,cs),
(607.46,1042.44,ls),
(646.562,1070.04,o),
(690.682,1063.09,o),
(719.4,1024.8,cs),
(720.6,1023.2,ls),
(748.867,985.511,o),
(741.723,941.934,o),
(702.901,915.244,cs),
(275.777,621.597,ls),
(265.192,614.32,o),
(265.192,601.68,o),
(275.777,594.403,cs),
(702.901,300.756,ls)
);
}
);
width = 896;
}
);
unicode = 8249;
},
{
glyphname = guilsinglright;
layers = (
{
layerId = "5DBDC0A0-6414-4D3D-B0CB-A567F0B74D18";
shapes = (
{
closed = 1;
nodes = (
(630.808,601.68,o),
(630.808,614.32,o),
(620.223,621.597,cs),
(193.099,915.244,ls),
(154.277,941.934,o),
(147.133,985.511,o),
(175.4,1023.2,cs),
(176.6,1024.8,ls),
(205.318,1063.09,o),
(249.438,1070.04,o),
(288.54,1042.44,cs),
(690.388,758.785,ls),
(740.832,723.178,o),
(768,670.745,o),
(768,609,cs),
(768,607,ls),
(768,545.255,o),
(740.832,492.822,o),
(690.388,457.215,cs),
(288.54,173.558,ls),
(249.438,145.956,o),
(205.318,152.91,o),
(176.6,191.2,cs),
(175.4,192.8,ls),
(147.133,230.489,o),
(154.277,274.066,o),
(193.099,300.756,cs),
(620.223,594.403,ls)
);
}
);
width = 896;
}
);
unicode = 8250;
},
{
glyphname = quotedblbase;
layers = (
{
layerId = "5DBDC0A0-6414-4D3D-B0CB-A567F0B74D18";
shapes = (
{
closed = 1;
nodes = (
(186.095,156.569,o),
(227.92,192,o),
(287,192,cs),
(289,192,ls),
(341.203,192,o),
(370.466,151.399,o),
(353.958,101.875,cs),
(275.922,-132.233,ls),
(263.248,-170.257,o),
(233.081,-192,o),
(193,-192,cs),
(191,-192,ls),
(154.623,-192,o),
(132.377,-165.739,o),
(138.357,-129.857,cs),
(176.382,98.293,ls)
);
},
{
closed = 1;
nodes = (
(506.095,156.569,o),
(547.92,192,o),
(607,192,cs),
(609,192,ls),
(661.203,192,o),
(690.466,151.399,o),
(673.958,101.875,cs),
(595.922,-132.233,ls),
(583.248,-170.257,o),
(553.081,-192,o),
(513,-192,cs),
(511,-192,ls),
(474.623,-192,o),
(452.377,-165.739,o),
(458.357,-129.857,cs),
(496.382,98.293,ls)
);
}
);
width = 832;
}
);
unicode = 8222;
},
{
glyphname = quotedblleft;
layers = (
{
layerId = "5DBDC0A0-6414-4D3D-B0CB-A567F0B74D18";
shapes = (
{
closed = 1;
nodes = (
(442.095,1500.57,o),
(483.92,1536,o),
(543,1536,cs),
(545,1536,ls),
(597.203,1536,o),
(626.466,1495.4,o),
(609.958,1445.88,cs),
(531.922,1211.77,ls),
(519.248,1173.74,o),
(489.081,1152,o),
(449,1152,cs),
(447,1152,ls),
(410.623,1152,o),
(388.377,1178.26,o),
(394.357,1214.14,cs),
(432.382,1442.29,ls)
);
},
{
closed = 1;
nodes = (
(186.095,1500.57,o),
(227.92,1536,o),
(287,1536,cs),
(289,1536,ls),
(341.203,1536,o),
(370.466,1495.4,o),
(353.958,1445.88,cs),
(275.922,1211.77,ls),
(263.248,1173.74,o),
(233.081,1152,o),
(193,1152,cs),
(191,1152,ls),
(154.623,1152,o),
(132.377,1178.26,o),
(138.357,1214.14,cs),
(176.382,1442.29,ls)
);
}
);
width = 768;
}
);
unicode = 8220;
},
{
glyphname = quotedblright;
layers = (
{
layerId = "5DBDC0A0-6414-4D3D-B0CB-A567F0B74D18";
shapes = (
{
closed = 1;
nodes = (
(186.095,1500.57,o),
(227.92,1536,o),
(287,1536,cs),
(289,1536,ls),
(341.203,1536,o),
(370.466,1495.4,o),
(353.958,1445.88,cs),
(275.922,1211.77,ls),
(263.248,1173.74,o),
(233.081,1152,o),
(193,1152,cs),
(191,1152,ls),
(154.623,1152,o),
(132.377,1178.26,o),
(138.357,1214.14,cs),
(176.382,1442.29,ls)
);
},
{
closed = 1;
nodes = (
(506.095,1500.57,o),
(547.92,1536,o),
(607,1536,cs),
(609,1536,ls),
(661.203,1536,o),
(690.466,1495.4,o),
(673.958,1445.88,cs),
(595.922,1211.77,ls),
(583.248,1173.74,o),
(553.081,1152,o),
(513,1152,cs),
(511,1152,ls),
(474.623,1152,o),
(452.377,1178.26,o),
(458.357,1214.14,cs),
(496.382,1442.29,ls)
);
}
);
width = 832;
}
);
unicode = 8221;
},
{
glyphname = quoteleft;
layers = (
{
layerId = "5DBDC0A0-6414-4D3D-B0CB-A567F0B74D18";
shapes = (
{
closed = 1;
nodes = (
(186.095,1500.57,o),
(227.92,1536,o),
(287,1536,cs),
(289,1536,ls),
(341.203,1536,o),
(370.466,1495.4,o),
(353.958,1445.88,cs),
(275.922,1211.77,ls),
(263.248,1173.74,o),
(233.081,1152,o),
(193,1152,cs),
(191,1152,ls),
(154.623,1152,o),
(132.377,1178.26,o),
(138.357,1214.14,cs),
(176.382,1442.29,ls)
);
}
);
width = 512;
}
);
unicode = 8216;
},
{
glyphname = quoteright;
layers = (
{
layerId = "5DBDC0A0-6414-4D3D-B0CB-A567F0B74D18";
shapes = (
{
closed = 1;
nodes = (
(186.095,1500.57,o),
(227.92,1536,o),
(287,1536,cs),
(289,1536,ls),
(341.203,1536,o),
(370.466,1495.4,o),
(353.958,1445.88,cs),
(275.922,1211.77,ls),
(263.248,1173.74,o),
(233.081,1152,o),
(193,1152,cs),
(191,1152,ls),
(154.623,1152,o),
(132.377,1178.26,o),
(138.357,1214.14,cs),
(176.382,1442.29,ls)
);
}
);
width = 512;
}
);
unicode = 8217;
},
{
glyphname = quotesinglbase;
layers = (
{
layerId = "5DBDC0A0-6414-4D3D-B0CB-A567F0B74D18";
shapes = (
{
closed = 1;
nodes = (
(122.095,92.569,o),
(163.92,128,o),
(223,128,cs),
(225,128,ls),
(277.203,128,o),
(306.466,87.399,o),
(289.958,37.875,cs),
(211.922,-196.233,ls),
(199.248,-234.257,o),
(169.081,-256,o),
(129,-256,cs),
(127,-256,ls),
(90.623,-256,o),
(68.377,-229.739,o),
(74.357,-193.857,cs),
(112.382,34.293,ls)
);
}
);
width = 448;
}
);
unicode = 8218;
},
{
glyphname = florin;
layers = (
{
layerId = "5DBDC0A0-6414-4D3D-B0CB-A567F0B74D18";
shapes = (
{
closed = 1;
nodes = (
(153.071,960,o),
(128,985.071,o),
(128,1023,cs),
(128,1025,ls),
(128,1062.93,o),
(153.071,1088,o),
(191,1088,cs),
(296,1088,ls),
(310.407,1088,o),
(320,1097.59,o),
(320,1112,cs),
(320,1152,ls),
(320,1311,o),
(357,1420,o),
(432,1480,cs),
(505,1539,o),
(639,1568,o),
(833,1568,cs),
(897.5,1568,ls),
(935.128,1568,o),
(960,1543.13,o),
(960,1505.5,cs),
(960,1487,ls),
(960,1439.44,o),
(928.562,1408,o),
(881,1408,cs),
(832,1408,l),
(777,1408,ls),
(652,1408,o),
(559,1402,o),
(528,1300,cs),
(517,1265,o),
(512,1216,o),
(512,1152,cs),
(512,1112,ls),
(512,1097.59,o),
(521.593,1088,o),
(536,1088,cs),
(897,1088,ls),
(934.929,1088,o),
(960,1062.93,o),
(960,1025,cs),
(960,1023,ls),
(960,985.071,o),
(934.929,960,o),
(897,960,cs),
(536,960,ls),
(521.593,960,o),
(512,950.407,o),
(512,936,cs),
(512,128,ls),
(512,-31,o),
(475,-140,o),
(400,-200,cs),
(337.364,-250.624,o),
(229.818,-279.161,o),
(77.995,-286.244,cs),
(32.21,-288.379,o),
(-0.804,-256.671,o),
(-0.518,-210.929,cs),
(-0.166,-154.499,ls),
(-0.066,-138.571,o),
(10.571,-128,o),
(26.5,-128,cs),
(55,-128,ls),
(180,-128,o),
(273,-122,o),
(304,-20,cs),
(315,15,o),
(320,64,o),
(320,128,cs),
(320,936,ls),
(320,950.407,o),
(310.407,960,o),
(296,960,cs),
(191,960,ls)
);
}
);
width = 1184;
}
);
unicode = 402;
},
{
glyphname = cent;
layers = (
{
layerId = "5DBDC0A0-6414-4D3D-B0CB-A567F0B74D18";
shapes = (
{
closed = 1;
nodes = (
(222,977,o),
(293,1036,o),
(394,1070,cs),
(492,1103,o),
(638,1120,o),
(833,1120,cs),
(1080,1120,o),
(1251,1087,o),
(1345,1020,cs),
(1416.29,969.631,o),
(1453.96,898.847,o),
(1467.3,798.805,cs),
(1474.17,747.317,o),
(1436.24,704,o),
(1384.95,704,c),
(1386.72,704,l),
(1321.12,704,o),
(1285.73,734.101,o),
(1275.2,798.85,cs),
(1261.43,883.535,o),
(1220.18,907.017,o),
(1121,937,cs),
(1070,952,o),
(974,960,o),
(833,960,cs),
(664,960,o),
(544,948,o),
(473,924,cs),
(399,899,o),
(361,861,o),
(338,786,cs),
(327,750,o),
(321,669,o),
(321,544,cs),
(321,419,o),
(327,336,o),
(340,294,cs),
(374,181,o),
(477,150,o),
(618,136,cs),
(676,130,o),
(762,128,o),
(875,128,cs),
(988,128,o),
(1079,138,o),
(1148,159,cs),
(1181,169,o),
(1207,181,o),
(1225,196,cs),
(1256.79,222.065,o),
(1270.79,246.514,o),
(1276.78,289.131,cs),
(1285.76,353.087,o),
(1321.31,384,o),
(1385.1,384,cs),
(1386.07,384,ls),
(1436.59,384,o),
(1473.97,341.24,o),
(1467.22,291.179,cs),
(1462.63,257.193,o),
(1455.28,226.133,o),
(1445,198,cs),
(1402,79,o),
(1295,21,o),
(1149,-8,cs),
(1066,-24,o),
(944,-32,o),
(783,-32,cs),
(491,-32,o),
(271,10,o),
(182,196,cs),
(146,272,o),
(128,388,o),
(128,544,cs),
(128,700,o),
(146,816,o),
(182,892,cs)
);
}
);
width = 1601;
}
);
unicode = 162;
},
{
glyphname = currency;
layers = (
{
layerId = "5DBDC0A0-6414-4D3D-B0CB-A567F0B74D18";
shapes = (
{
closed = 1;
nodes = (
(1064.97,960.631,o),
(1100.43,958.022,o),
(1125.35,929.256,cs),
(1126.65,927.744,ls),
(1151.51,899.04,o),
(1148.86,863.63,o),
(1120,838.952,cs),
(1041.99,772.242,ls),
(1030.03,762.016,o),
(1027.79,749.211,o),
(1035.56,735.53,cs),
(1070.28,674.415,o),
(1088,601.054,o),
(1088,514,cs),
(1088,426.709,o),
(1070.18,351.566,o),
(1035.28,288.57,cs),
(1027.67,274.841,o),
(1029.99,262.024,o),
(1041.92,251.823,cs),
(1120,185.048,ls),
(1148.86,160.37,o),
(1151.51,124.96,o),
(1126.65,96.256,cs),
(1125.35,94.744,ls),
(1100.4,65.933,o),
(1064.9,63.194,o),
(1035.82,87.839,cs),
(952.134,158.78,ls),
(939.845,169.198,o),
(926.681,170.209,o),
(912.944,161.792,cs),
(840.95,117.677,o),
(750.396,96,o),
(639,96,cs),
(527.663,96,o),
(437.147,118.487,o),
(365.932,162.7,cs),
(352.302,171.161,o),
(339.192,170.145,o),
(327.029,159.685,cs),
(243.885,88.181,ls),
(215.034,63.369,o),
(179.566,65.978,o),
(154.655,94.744,cs),
(153.345,96.256,ls),
(128.469,124.982,o),
(131.064,160.416,o),
(159.859,185.212,cs),
(237.037,251.671,ls),
(249.001,261.973,o),
(251.272,274.788,o),
(243.578,288.575,cs),
(208.951,350.618,o),
(192,424.852,o),
(192,512,cs),
(192,599.148,o),
(208.951,673.382,o),
(243.578,735.425,cs),
(251.272,749.212,o),
(249.001,762.027,o),
(237.037,772.329,cs),
(159.859,838.788,ls),
(131.064,863.584,o),
(128.469,899.018,o),
(153.345,927.744,cs),
(154.655,929.256,ls),
(179.566,958.022,o),
(215.034,960.631,o),
(243.885,935.818,cs),
(327.028,864.316,ls),
(339.205,853.844,o),
(352.442,852.729,o),
(366.199,861.016,cs),
(439.901,905.417,o),
(531.168,928,o),
(640,928,cs),
(748.832,928,o),
(840.099,905.417,o),
(913.801,861.016,cs),
(927.558,852.729,o),
(940.795,853.844,o),
(952.972,864.316,cs),
(1036.11,935.818,ls)
);
},
{
closed = 1;
nodes = (
(470,768,o),
(384,684,o),
(384,512,cs),
(384,341,o),
(469,256,o),
(640,256,cs),
(810,256,o),
(896,341,o),
(896,512,cs),
(896,682,o),
(805,768,o),
(640,768,cs)
);
}
);
width = 1280;
}
);
unicode = 164;
},
{
glyphname = dollar;
layers = (
{
layerId = "5DBDC0A0-6414-4D3D-B0CB-A567F0B74D18";
shapes = (
{
closed = 1;
nodes = (
(554,-36,o),
(365,-2,o),
(265,66,cs),
(187.874,118.197,o),
(148.377,187.387,o),
(134.688,289.174,cs),
(127.767,340.643,o),
(165.683,384,o),
(216.936,384,c),
(210.903,384,l),
(280.735,384,o),
(314.211,357.467,o),
(330.157,289.48,cs),
(344.378,228.849,o),
(376.225,190.233,o),
(433,166,cs),
(473,149,o),
(525,138,o),
(590,134,cs),
(655,130,o),
(736,128,o),
(832,128,cs),
(889,128,ls),
(903.407,128,o),
(913,137.593,o),
(913,152,cs),
(913,696.5,ls),
(913,700.88,o),
(909.88,704,o),
(905.5,704,cs),
(896,704,ls),
(568,704,o),
(352,742,o),
(248,816,cs),
(152,884,o),
(128,978,o),
(128,1130,cs),
(128,1291,o),
(170,1382,o),
(280,1453,cs),
(389.088,1523.13,o),
(592.095,1561.95,o),
(889.02,1567.62,cs),
(903.524,1567.89,o),
(913,1577.55,o),
(913,1592.06,cs),
(913,1617,ls),
(913,1645.3,o),
(931.704,1664,o),
(960,1664,cs),
(1058,1664,ls),
(1086.3,1664,o),
(1105,1645.3,o),
(1105,1617,cs),
(1105,1590.5,ls),
(1105,1576.99,o),
(1113.99,1568,o),
(1127.5,1568,cs),
(1152,1568,ls),
(1428,1568,o),
(1618,1534,o),
(1720,1468,cs),
(1797.03,1417.43,o),
(1836.52,1348.08,o),
(1850.26,1246.78,cs),
(1857.23,1195.4,o),
(1819.32,1152,o),
(1768.11,1152,c),
(1774.1,1152,l),
(1704.27,1152,o),
(1670.79,1178.53,o),
(1654.84,1246.52,cs),
(1640.62,1307.15,o),
(1608.78,1345.77,o),
(1552,1370,cs),
(1512,1387,o),
(1459,1398,o),
(1394,1402,cs),
(1329,1406,o),
(1248,1408,o),
(1152,1408,cs),
(1127.5,1408,ls),
(1113.99,1408,o),
(1105,1399.01,o),
(1105,1385.5,cs),
(1105,888,ls),
(1105,873.593,o),
(1114.59,864,o),
(1129,864,cs),
(1160,864,ls),
(1457,864,o),
(1652,826,o),
(1745,749,cs),
(1834,675,o),
(1856,577,o),
(1856,424,cs),
(1856,322,o),
(1837,241,o),
(1799,180,cs),
(1731,72,o),
(1587,5,o),
(1367,-21,cs),
(1298.12,-29.266,o),
(1218.27,-34.158,o),
(1129,-35.676,cs),
(1114.48,-35.922,o),
(1105,-45.568,o),
(1105,-60.085,cs),
(1105,-83,ls),
(1105,-110.092,o),
(1087.09,-128,o),
(1060,-128,cs),
(958,-128,ls),
(930.908,-128,o),
(913,-110.092,o),
(913,-83,cs),
(913,-60,ls),
(913,-45.593,o),
(903.407,-36,o),
(889,-36,cs),
(832,-36,ls)
);
},
{
closed = 1;
nodes = (
(913,1398.36,o),
(903.296,1407.89,o),
(888.979,1407.62,cs),
(674.08,1403.63,o),
(527.087,1384.69,o),
(448,1349,cs),
(363,1311,o),
(320,1243,o),
(320,1144,cs),
(320,1061,o),
(329,1006,o),
(348,980,cs),
(395,916,o),
(441,903,o),
(546,882,cs),
(607,870,o),
(723,864,o),
(896,864,cs),
(905.5,864,ls),
(909.88,864,o),
(913,867.12,o),
(913,871.5,cs),
(913,1384.04,ls)
);
},
{
closed = 1;
nodes = (
(1105,137.592,o),
(1114.69,128.026,o),
(1128.98,128.212,cs),
(1327.1,130.793,o),
(1465.14,153.648,o),
(1544,195,cs),
(1626,238,o),
(1664,306,o),
(1664,424,cs),
(1664,535,o),
(1644,603,o),
(1572,645,cs),
(1505,684,o),
(1368,704,o),
(1160,704,cs),
(1129,704,ls),
(1114.59,704,o),
(1105,694.407,o),
(1105,680,cs),
(1105,151.878,ls)
);
}
);
width = 2018;
}
);
unicode = 36;
},
{
glyphname = Euro;
layers = (
{
layerId = "5DBDC0A0-6414-4D3D-B0CB-A567F0B74D18";
shapes = (
{
closed = 1;
nodes = (
(765,0,o),
(662,7,o),
(600,9,cs),
(429,15,o),
(315,55,o),
(237,165,cs),
(134,310,o),
(129,552,o),
(129,800,cs),
(129,927,ls),
(129,1065,o),
(141,1180,o),
(166,1272,cs),
(207,1423,o),
(327,1519,o),
(497,1547,cs),
(585,1562,o),
(650,1563,o),
(732,1563,cs),
(800,1563,l),
(920,1563,ls),
(995,1563,o),
(1069,1564,o),
(1133,1569,c),
(1208.65,1569,ls),
(1239.51,1569,o),
(1297.59,1567.16,o),
(1328.39,1565.21,cs),
(1394.06,1561.06,o),
(1434.48,1557.43,o),
(1502,1552,cs),
(1655,1539,o),
(1751,1497,o),
(1820,1385,cs),
(1882,1285,o),
(1913,1130,o),
(1913,919,cs),
(1913,632,ls),
(1913,574,o),
(1908,499,o),
(1899,408,cs),
(1868,130,o),
(1750,22,o),
(1459,6,cs),
(1133,0,l),
(816,0,ls)
);
},
{
closed = 1;
nodes = (
(1704,313,o),
(1721,393,o),
(1721,504,cs),
(1721,1071,ls),
(1721,1258,o),
(1644,1390,o),
(1471,1395,cs),
(1289,1404,o),
(1144,1409,o),
(1037,1409,cs),
(981,1409,l),
(801,1403,ls),
(774,1402,o),
(734,1401,o),
(681,1401,cs),
(628,1401,o),
(575,1394,o),
(520,1382,cs),
(412,1358,o),
(352,1298,o),
(338,1202,cs),
(325,1102,o),
(318,1037,o),
(318,1008,cs),
(318,664,ls),
(318,634,o),
(325,534,o),
(328,488,cs),
(336,359,o),
(366,265,o),
(439,213,cs),
(477,186,o),
(564,170,o),
(700,164,cs),
(784,160,o),
(845,158,o),
(928,158,cs),
(1120,158,ls),
(1242,158,o),
(1256,160,o),
(1412,169,cs),
(1543,176,o),
(1629,208,o),
(1670,266,cs)
);
},
{
closed = 1;
nodes = (
(1010,1434,o),
(1011,1435,o),
(1011,1437,cs),
(1011,1439,o),
(1010,1440,o),
(1008,1440,cs),
(1006,1440,o),
(1006,1439,o),
(1006,1437,cs),
(1006,1435,o),
(1006,1434,o),
(1008,1434,cs)
);
}
);
width = 2042;
}
);
unicode = 8364;
},
{
glyphname = sterling;
layers = (
{
layerId = "5DBDC0A0-6414-4D3D-B0CB-A567F0B74D18";
shapes = (
{
closed = 1;
nodes = (
(246.407,800,o),
(256,809.593,o),
(256,824,cs),
(256,958,ls),
(256,1272,o),
(304,1439,o),
(522,1517,cs),
(619,1552,o),
(765,1569,o),
(960,1569,cs),
(1181,1569,o),
(1334,1538,o),
(1419,1474,cs),
(1478.36,1429.86,o),
(1515.13,1360.82,o),
(1529.32,1267.77,cs),
(1537.05,1217.04,o),
(1499.21,1173,o),
(1448.76,1173,cs),
(1442.97,1173,ls),
(1382.19,1173,o),
(1348.75,1201.82,o),
(1339.77,1261.93,cs),
(1334.14,1299.63,o),
(1321.48,1321.64,o),
(1294,1346,cs),
(1278,1360,o),
(1256,1372,o),
(1228,1381,cs),
(1171,1400,o),
(1091,1409,o),
(987,1409,cs),
(883,1409,o),
(802,1406,o),
(744,1400,cs),
(599,1385,o),
(501,1351,o),
(467,1231,cs),
(454,1186,o),
(448,1095,o),
(448,958,cs),
(448,824,ls),
(448,809.593,o),
(457.593,800,o),
(472,800,cs),
(1201,800,ls),
(1248.56,800,o),
(1280,768.562,o),
(1280,721,cs),
(1280,719,ls),
(1280,671.438,o),
(1248.56,640,o),
(1201,640,cs),
(472,640,ls),
(457.593,640,o),
(448,630.407,o),
(448,616,cs),
(448,184,ls),
(448,169.593,o),
(457.593,160,o),
(472,160,cs),
(1393,160,ls),
(1440.56,160,o),
(1472,128.562,o),
(1472,81,cs),
(1472,79,ls),
(1472,31.438,o),
(1440.56,3.85,o),
(1393,9.675,cs),
(356,-1.225,ls),
(295.795,-4.874,o),
(256,39.795,o),
(256,100,cs),
(256,616,ls),
(256,630.407,o),
(246.407,640,o),
(232,640,cs),
(143,640,ls),
(95.438,640,o),
(64,671.438,o),
(64,719,cs),
(64,721,ls),
(64,768.562,o),
(95.438,800,o),
(143,800,cs),
(232,800,ls)
);
}
);
width = 1663;
}
);
unicode = 163;
},
{
glyphname = yen;
layers = (
{
layerId = "5DBDC0A0-6414-4D3D-B0CB-A567F0B74D18";
shapes = (
{
closed = 1;
nodes = (
(918.407,416,o),
(928,425.593,o),
(928,440,cs),
(928,616,ls),
(928,630.407,o),
(918.407,640,o),
(904,640,cs),
(495,640,ls),
(447.438,640,o),
(416,671.438,o),
(416,719,cs),
(416,721,ls),
(416,768.562,o),
(447.438,800,o),
(495,800,cs),
(749,800,ls),
(759.72,800,o),
(763.786,809.565,o),
(756.349,817.285,cs),
(133.377,1463.98,ls),
(102.618,1495.91,o),
(119.664,1536,o),
(164,1536,cs),
(220,1536,ls),
(284.975,1536,o),
(343.667,1510.18,o),
(387.572,1462.28,cs),
(1007.78,785.692,ls),
(1017.29,775.318,o),
(1030.71,775.318,o),
(1040.22,785.692,cs),
(1660.43,1462.28,ls),
(1704.33,1510.18,o),
(1763.02,1536,o),
(1828,1536,cs),
(1884,1536,ls),
(1928.32,1536,o),
(1945.34,1495.92,o),
(1914.57,1464.03,cs),
(1290.66,817.273,ls),
(1283.22,809.561,o),
(1287.29,800,o),
(1298,800,cs),
(1553,800,ls),
(1600.56,800,o),
(1632,768.562,o),
(1632,721,cs),
(1632,719,ls),
(1632,671.438,o),
(1600.56,640,o),
(1553,640,cs),
(1144,640,ls),
(1129.59,640,o),
(1120,630.407,o),
(1120,616,cs),
(1120,440,ls),
(1120,425.593,o),
(1129.59,416,o),
(1144,416,cs),
(1553,416,ls),
(1600.56,416,o),
(1632,384.562,o),
(1632,337,cs),
(1632,335,ls),
(1632,287.438,o),
(1600.56,256,o),
(1553,256,cs),
(1144,256,ls),
(1129.59,256,o),
(1120,246.407,o),
(1120,232,cs),
(1120,95,ls),
(1120,37.806,o),
(1082.19,4.63,o),
(1025,1.163,cs),
(1023,-1.163,ls),
(965.805,-4.63,o),
(928,37.806,o),
(928,95,cs),
(928,232,ls),
(928,246.407,o),
(918.407,256,o),
(904,256,cs),
(495,256,ls),
(447.438,256,o),
(416,287.438,o),
(416,335,cs),
(416,337,ls),
(416,384.562,o),
(447.438,416,o),
(495,416,cs),
(904,416,ls)
);
}
);
width = 2048;
}
);
unicode = 165;
},
{
glyphname = approxequal;
layers = (
{
layerId = "5DBDC0A0-6414-4D3D-B0CB-A567F0B74D18";
shapes = (
{
closed = 1;
nodes = (
(841.253,689.338,o),
(860.004,703,o),
(906.498,703,cs),
(942.338,703,ls),
(987.438,703,o),
(1024.18,651.791,o),
(1009.73,609.069,cs),
(995.037,565.631,o),
(969.053,529.941,o),
(932,502,cs),
(884,466,o),
(833,447,o),
(778,447,cs),
(638,447,o),
(565,490,o),
(468,528,cs),
(442,538,o),
(418,543,o),
(398,543,cs),
(353.527,543,o),
(333.98,533.861,o),
(325.702,507.55,cs),
(311.029,460.91,o),
(292.071,447,o),
(245.807,447,cs),
(210.25,447,ls),
(164.453,447,o),
(127.482,497.394,o),
(141.229,541.079,cs),
(155.717,587.113,o),
(182.054,624.007,o),
(220,652,cs),
(267,686,o),
(318,703,o),
(373,703,cs),
(513,703,o),
(587,660,o),
(684,622,cs),
(710,612,o),
(734,607,o),
(754,607,cs),
(798.203,607,o),
(817.782,616.439,o),
(826.146,642.416,cs)
);
},
{
closed = 1;
nodes = (
(841.253,1074.34,o),
(860.004,1088,o),
(906.498,1088,cs),
(942.185,1088,ls),
(987.388,1088,o),
(1024.17,1036.91,o),
(1009.83,994.044,cs),
(995.162,950.174,o),
(969.142,914.009,o),
(932,886,cs),
(884,850,o),
(833,832,o),
(778,832,cs),
(638,832,o),
(565,875,o),
(468,913,cs),
(442,923,o),
(418,928,o),
(398,928,cs),
(353.527,928,o),
(333.98,918.861,o),
(325.702,892.55,cs),
(311.029,845.91,o),
(292.071,832,o),
(245.807,832,cs),
(210.122,832,ls),
(164.412,832,o),
(127.47,882.524,o),
(141.332,926.081,cs),
(155.841,971.672,o),
(182.143,1008.07,o),
(220,1036,cs),
(267,1070,o),
(318,1088,o),
(373,1088,cs),
(513,1088,o),
(587,1045,o),
(684,1007,cs),
(710,997,o),
(734,992,o),
(754,992,cs),
(798.203,992,o),
(817.782,1001.44,o),
(826.146,1027.42,cs)
);
}
);
width = 1152;
}
);
unicode = 8776;
},
{
glyphname = asciitilde;
layers = (
{
layerId = "5DBDC0A0-6414-4D3D-B0CB-A567F0B74D18";
shapes = (
{
closed = 1;
nodes = (
(164.736,832,o),
(127.848,882.543,o),
(141.758,925.987,cs),
(175.447,1031.2,o),
(267.864,1088,o),
(384,1088,cs),
(454,1088,o),
(527,1072,o),
(603,1040,cs),
(647,1021,o),
(701,992,o),
(754,992,cs),
(796.375,992,o),
(816.831,999.453,o),
(825.816,1027.42,cs),
(840.883,1074.32,o),
(859.653,1088,o),
(906.127,1088,cs),
(942.185,1088,ls),
(987.388,1088,o),
(1024.17,1036.91,o),
(1009.83,994.044,cs),
(995.162,950.174,o),
(969.142,914.009,o),
(932,886,cs),
(884,850,o),
(829,832,o),
(768,832,cs),
(698,832,o),
(625,848,o),
(549,880,cs),
(505,899,o),
(451,928,o),
(398,928,cs),
(353.242,928,o),
(333.612,920.202,o),
(325.421,892.629,cs),
(311.72,846.504,o),
(292.282,832,o),
(246.565,832,cs),
(210.352,832,ls)
);
}
);
width = 1152;
}
);
unicode = 126;
},
{
glyphname = divide;
layers = (
{
layerId = "5DBDC0A0-6414-4D3D-B0CB-A567F0B74D18";
shapes = (
{
closed = 1;
nodes = (
(128,640.562,o),
(159.438,672,o),
(207,672,cs),
(1073,672,ls),
(1120.56,672,o),
(1152,640.562,o),
(1152,593,cs),
(1152,591,ls),
(1152,543.438,o),
(1120.56,512,o),
(1073,512,cs),
(207,512,ls),
(159.438,512,o),
(128,543.438,o),
(128,591,cs),
(128,593,ls)
);
},
{
closed = 1;
nodes = (
(768,805.805,o),
(730.195,768,o),
(673,768,cs),
(671,768,ls),
(613.805,768,o),
(576,805.805,o),
(576,863,cs),
(576,865,ls),
(576,922.195,o),
(613.805,960,o),
(671,960,cs),
(673,960,ls),
(730.195,960,o),
(768,922.195,o),
(768,865,cs),
(768,863,ls)
);
},
{
closed = 1;
nodes = (
(768,229.805,o),
(730.195,192,o),
(673,192,cs),
(671,192,ls),
(613.805,192,o),
(576,229.805,o),
(576,287,cs),
(576,289,ls),
(576,346.195,o),
(613.805,384,o),
(671,384,cs),
(673,384,ls),
(730.195,384,o),
(768,346.195,o),
(768,289,cs),
(768,287,ls)
);
}
);
width = 1280;
}
);
unicode = 247;
},
{
glyphname = equal;
layers = (
{
layerId = "5DBDC0A0-6414-4D3D-B0CB-A567F0B74D18";
shapes = (
{
closed = 1;
nodes = (
(1312.56,1024,o),
(1344,992.562,o),
(1344,945,cs),
(1344,943,ls),
(1344,895.438,o),
(1312.56,864,o),
(1265,864,cs),
(207,864,ls),
(159.438,864,o),
(128,895.438,o),
(128,943,cs),
(128,945,ls),
(128,992.562,o),
(159.438,1024,o),
(207,1024,cs),
(1265,1024,ls)
);
},
{
closed = 1;
nodes = (
(1312.56,480,o),
(1344,448.562,o),
(1344,401,cs),
(1344,399,ls),
(1344,351.438,o),
(1312.56,320,o),
(1265,320,cs),
(207,320,ls),
(159.438,320,o),
(128,351.438,o),
(128,399,cs),
(128,401,ls),
(128,448.562,o),
(159.438,480,o),
(207,480,cs),
(1265,480,ls)
);
}
);
width = 1472;
}
);
unicode = 61;
},
{
glyphname = greater;
layers = (
{
layerId = "5DBDC0A0-6414-4D3D-B0CB-A567F0B74D18";
shapes = (
{
closed = 1;
nodes = (
(1024,769.404,o),
(995.447,718.664,o),
(942.795,686.697,cs),
(213.479,243.898,ls),
(170.739,217.949,o),
(128,242,o),
(128,292,cs),
(128,348,ls),
(128,412.553,o),
(159.569,464.12,o),
(217.061,493.478,cs),
(858.625,821.085,ls),
(869.026,826.396,o),
(869.026,837.604,o),
(858.625,842.915,cs),
(217.061,1170.52,ls),
(159.569,1199.88,o),
(128,1251.45,o),
(128,1316,cs),
(128,1372,ls),
(128,1422,o),
(170.739,1446.05,o),
(213.479,1420.1,cs),
(942.795,977.303,ls),
(995.447,945.336,o),
(1024,894.596,o),
(1024,833,cs),
(1024,831,ls)
);
}
);
width = 1152;
}
);
unicode = 62;
},
{
glyphname = greaterequal;
layers = (
{
layerId = "5DBDC0A0-6414-4D3D-B0CB-A567F0B74D18";
shapes = (
{
closed = 1;
nodes = (
(1024,769.404,o),
(995.447,718.664,o),
(942.795,686.697,cs),
(213.479,243.898,ls),
(170.739,217.949,o),
(128,242,o),
(128,292,cs),
(128,348,ls),
(128,412.553,o),
(159.569,464.12,o),
(217.061,493.478,cs),
(858.625,821.085,ls),
(869.026,826.396,o),
(869.026,837.604,o),
(858.625,842.915,cs),
(217.061,1170.52,ls),
(159.569,1199.88,o),
(128,1251.45,o),
(128,1316,cs),
(128,1372,ls),
(128,1422,o),
(170.739,1446.05,o),
(213.479,1420.1,cs),
(942.795,977.303,ls),
(995.447,945.336,o),
(1024,894.596,o),
(1024,833,cs),
(1024,831,ls)
);
},
{
closed = 1;
nodes = (
(990.562,128,o),
(1022,96.562,o),
(1022,49,cs),
(1022,47,ls),
(1022,-0.562,o),
(990.562,-32,o),
(943,-32,cs),
(207,-32,ls),
(159.438,-32,o),
(128,-0.562,o),
(128,47,cs),
(128,49,ls),
(128,96.562,o),
(159.438,128,o),
(207,128,cs),
(943,128,ls)
);
}
);
width = 1152;
}
);
unicode = 8805;
},
{
glyphname = infinity;
layers = (
{
layerId = "5DBDC0A0-6414-4D3D-B0CB-A567F0B74D18";
shapes = (
{
closed = 1;
nodes = (
(821,1120,o),
(987,1028,o),
(1139,844,cs),
(1176.69,798.424,o),
(1212.07,752.848,o),
(1245.15,706.598,cs),
(1252.74,695.992,o),
(1265.18,696.049,o),
(1272.67,706.72,cs),
(1466.16,982.551,o),
(1660.56,1120,o),
(1854,1120,cs),
(2213,1120,o),
(2368,913,o),
(2368,544,cs),
(2368,174,o),
(2213,-32,o),
(1854,-32,cs),
(1656.7,-32,o),
(1460.35,103.473,o),
(1264.95,373.486,cs),
(1257.26,384.123,o),
(1244.72,384.138,o),
(1237.01,373.536,cs),
(1040.58,103.489,o),
(842.245,-32,o),
(642,-32,cs),
(283,-32,o),
(128,175,o),
(128,544,cs),
(128,914,o),
(283,1120,o),
(642,1120,cs)
);
},
{
closed = 1;
nodes = (
(688,128,o),
(732,140,o),
(778,164,cs),
(824,188,o),
(869,220,o),
(914,259,cs),
(985.788,321.342,o),
(1062.04,406.883,o),
(1141.9,515.621,cs),
(1150.87,527.825,o),
(1151.17,542.315,o),
(1142.73,554.85,cs),
(1063.59,672.446,o),
(997.113,756.729,o),
(945,806,cs),
(890,858,o),
(838,897,o),
(791,922,cs),
(744,947,o),
(700,960,o),
(661,960,cs),
(506,960,o),
(419,928,o),
(368,822,cs),
(336,757,o),
(320,672,o),
(320,568,cs),
(320,296,o),
(390,128,o),
(646,128,cs)
);
},
{
closed = 1;
nodes = (
(2176,720,o),
(2142,837,o),
(2075,896,cs),
(2013,950,o),
(1949,960,o),
(1842,960,cs),
(1807,960,o),
(1767,948,o),
(1722,923,cs),
(1677,898,o),
(1633,866,o),
(1590,827,cs),
(1517.42,761.016,o),
(1443.06,674.596,o),
(1368.6,567.739,cs),
(1359.95,555.327,o),
(1360.02,540.783,o),
(1368.8,528.443,cs),
(1558.81,261.481,o),
(1720.23,128,o),
(1854,128,cs),
(2097,128,o),
(2176,285,o),
(2176,544,cs)
);
}
);
width = 2496;
}
);
unicode = 8734;
},
{
glyphname = integral;
layers = (
{
layerId = "5DBDC0A0-6414-4D3D-B0CB-A567F0B74D18";
shapes = (
{
closed = 1;
nodes = (
(623.592,1530.59,o),
(731.029,1559.12,o),
(882.051,1566.23,cs),
(927.829,1568.38,o),
(961,1536.74,o),
(961,1490.94,cs),
(961,1434.5,ls),
(961,1418.59,o),
(950.407,1408,o),
(934.5,1408,cs),
(906,1408,ls),
(781,1408,o),
(688,1402,o),
(657,1300,cs),
(646,1265,o),
(641,1216,o),
(641,1152,cs),
(641,128,ls),
(641,-31,o),
(604,-140,o),
(529,-200,cs),
(466.364,-250.624,o),
(358.818,-279.161,o),
(206.995,-286.244,cs),
(161.21,-288.379,o),
(128.196,-256.671,o),
(128.482,-210.929,cs),
(128.834,-154.499,ls),
(128.934,-138.571,o),
(139.571,-128,o),
(155.5,-128,cs),
(184,-128,ls),
(309,-128,o),
(402,-122,o),
(433,-20,cs),
(444,15,o),
(449,64,o),
(449,128,cs),
(449,1152,ls),
(449,1311,o),
(486,1420,o),
(561,1480,cs)
);
}
);
width = 1089;
}
);
unicode = 8747;
},
{
glyphname = less;
layers = (
{
layerId = "5DBDC0A0-6414-4D3D-B0CB-A567F0B74D18";
shapes = (
{
closed = 1;
nodes = (
(1024,1251.45,o),
(992.431,1199.88,o),
(934.939,1170.52,cs),
(293.375,842.915,ls),
(282.974,837.604,o),
(282.974,826.396,o),
(293.375,821.085,cs),
(934.939,493.478,ls),
(992.431,464.12,o),
(1024,412.553,o),
(1024,348,cs),
(1024,292,ls),
(1024,242,o),
(981.261,217.949,o),
(938.521,243.898,cs),
(209.205,686.697,ls),
(156.553,718.664,o),
(128,769.404,o),
(128,831,cs),
(128,833,ls),
(128,894.596,o),
(156.553,945.336,o),
(209.205,977.303,cs),
(938.521,1420.1,ls),
(981.261,1446.05,o),
(1024,1422,o),
(1024,1372,cs),
(1024,1316,ls)
);
}
);
width = 1152;
}
);
unicode = 60;
},
{
glyphname = lessequal;
layers = (
{
layerId = "5DBDC0A0-6414-4D3D-B0CB-A567F0B74D18";
shapes = (
{
closed = 1;
nodes = (
(1024,1251.45,o),
(992.431,1199.88,o),
(934.939,1170.52,cs),
(293.375,842.915,ls),
(282.974,837.604,o),
(282.974,826.396,o),
(293.375,821.085,cs),
(934.939,493.478,ls),
(992.431,464.12,o),
(1024,412.553,o),
(1024,348,cs),
(1024,292,ls),
(1024,242,o),
(981.261,217.949,o),
(938.521,243.898,cs),
(209.205,686.697,ls),
(156.553,718.664,o),
(128,769.404,o),
(128,831,cs),
(128,833,ls),
(128,894.596,o),
(156.553,945.336,o),
(209.205,977.303,cs),
(938.521,1420.1,ls),
(981.261,1446.05,o),
(1024,1422,o),
(1024,1372,cs),
(1024,1316,ls)
);
},
{
closed = 1;
nodes = (
(990.562,128,o),
(1022,96.562,o),
(1022,49,cs),
(1022,47,ls),
(1022,-0.562,o),
(990.562,-32,o),
(943,-32,cs),
(207,-32,ls),
(159.438,-32,o),
(128,-0.562,o),
(128,47,cs),
(128,49,ls),
(128,96.562,o),
(159.438,128,o),
(207,128,cs),
(943,128,ls)
);
}
);
width = 1152;
}
);
unicode = 8804;
},
{
glyphname = logicalnot;
layers = (
{
layerId = "5DBDC0A0-6414-4D3D-B0CB-A567F0B74D18";
shapes = (
{
closed = 1;
nodes = (
(933.805,640,o),
(896,677.805,o),
(896,735,cs),
(896,904,ls),
(896,918.407,o),
(886.407,928,o),
(872,928,cs),
(207,928,ls),
(159.438,928,o),
(128,959.438,o),
(128,1007,cs),
(128,1009,ls),
(128,1056.56,o),
(159.438,1088,o),
(207,1088,cs),
(988,1088,ls),
(1048.2,1088,o),
(1088,1048.2,o),
(1088,988,cs),
(1088,735,ls),
(1088,677.805,o),
(1050.19,640,o),
(993,640,cs),
(991,640,ls)
);
}
);
width = 1216;
}
);
unicode = 172;
},
{
glyphname = minus;
layers = (
{
layerId = "5DBDC0A0-6414-4D3D-B0CB-A567F0B74D18";
shapes = (
{
closed = 1;
nodes = (
(128,640.562,o),
(159.438,672,o),
(207,672,cs),
(1265,672,ls),
(1312.56,672,o),
(1344,640.562,o),
(1344,593,cs),
(1344,591,ls),
(1344,543.438,o),
(1312.56,512,o),
(1265,512,cs),
(207,512,ls),
(159.438,512,o),
(128,543.438,o),
(128,591,cs),
(128,593,ls)
);
}
);
width = 1472;
}
);
unicode = 8722;
},
{
glyphname = multiply;
layers = (
{
layerId = "5DBDC0A0-6414-4D3D-B0CB-A567F0B74D18";
shapes = (
{
closed = 1;
nodes = (
(814.784,870.784,o),
(814.784,857.216,o),
(824.971,847.029,cs),
(1057.71,614.293,ls),
(1098.22,573.779,o),
(1098.22,520.221,o),
(1057.71,479.707,cs),
(1056.29,478.293,ls),
(1015.78,437.779,o),
(962.221,437.779,o),
(921.707,478.293,cs),
(688.971,711.029,ls),
(678.784,721.216,o),
(665.216,721.216,o),
(655.029,711.029,cs),
(422.293,478.293,ls),
(381.779,437.779,o),
(328.221,437.779,o),
(287.707,478.293,cs),
(286.293,479.707,ls),
(245.779,520.221,o),
(245.779,573.779,o),
(286.293,614.293,cs),
(519.029,847.029,ls),
(529.216,857.216,o),
(529.216,870.784,o),
(519.029,880.971,cs),
(286.293,1113.71,ls),
(245.779,1154.22,o),
(245.779,1207.78,o),
(286.293,1248.29,cs),
(287.707,1249.71,ls),
(328.221,1290.22,o),
(381.779,1290.22,o),
(422.293,1249.71,cs),
(655.029,1016.97,ls),
(665.216,1006.78,o),
(678.784,1006.78,o),
(688.971,1016.97,cs),
(921.707,1249.71,ls),
(962.221,1290.22,o),
(1015.78,1290.22,o),
(1056.29,1249.71,cs),
(1057.71,1248.29,ls),
(1098.22,1207.78,o),
(1098.22,1154.22,o),
(1057.71,1113.71,cs),
(824.971,880.971,ls)
);
}
);
width = 1344;
}
);
unicode = 215;
},
{
glyphname = notequal;
layers = (
{
layerId = "5DBDC0A0-6414-4D3D-B0CB-A567F0B74D18";
shapes = (
{
closed = 1;
nodes = (
(979.511,1440.45,o),
(1023.51,1459.4,o),
(1071.07,1440.37,cs),
(1072.93,1439.63,ls),
(1120.57,1420.57,o),
(1139.54,1376.53,o),
(1120.66,1328.82,cs),
(575.344,-48.815,ls),
(556.489,-96.45,o),
(512.495,-115.398,o),
(464.928,-96.371,cs),
(463.072,-95.629,ls),
(415.428,-76.571,o),
(396.458,-32.526,o),
(415.344,15.185,cs),
(960.656,1392.82,ls)
);
},
{
closed = 1;
nodes = (
(128,992.562,o),
(159.438,1024,o),
(207,1024,cs),
(1265,1024,ls),
(1312.56,1024,o),
(1344,992.562,o),
(1344,945,cs),
(1344,943,ls),
(1344,895.438,o),
(1312.56,864,o),
(1265,864,cs),
(207,864,ls),
(159.438,864,o),
(128,895.438,o),
(128,943,cs),
(128,945,ls)
);
},
{
closed = 1;
nodes = (
(128,448.562,o),
(159.438,480,o),
(207,480,cs),
(1265,480,ls),
(1312.56,480,o),
(1344,448.562,o),
(1344,401,cs),
(1344,399,ls),
(1344,351.438,o),
(1312.56,320,o),
(1265,320,cs),
(207,320,ls),
(159.438,320,o),
(128,351.438,o),
(128,399,cs),
(128,401,ls)
);
}
);
width = 1472;
}
);
unicode = 8800;
},
{
glyphname = partialdiff;
layers = (
{
layerId = "5DBDC0A0-6414-4D3D-B0CB-A567F0B74D18";
shapes = (
{
closed = 1;
nodes = (
(1654.04,838.02,o),
(1664,844.085,o),
(1663.92,856.383,cs),
(1662.79,1025.29,o),
(1649.78,1143.08,o),
(1624,1208,cs),
(1592,1290,o),
(1526,1345,o),
(1427,1372,cs),
(1341,1396,o),
(1185,1408,o),
(960,1408,cs),
(670,1408,o),
(489,1379,o),
(416,1322,cs),
(371.531,1287.26,o),
(357.96,1251.07,o),
(353.819,1199.01,cs),
(349.783,1148.28,o),
(319.169,1120,o),
(268.534,1120,cs),
(268.216,1120,ls),
(223.127,1120,o),
(191.403,1153.95,o),
(194.457,1198.94,cs),
(199.049,1266.59,o),
(210.031,1316.27,o),
(227,1348,cs),
(276,1439,o),
(338,1481,o),
(448,1515,cs),
(564,1550,o),
(713,1568,o),
(895,1568,cs),
(1077,1568,o),
(1218,1561,o),
(1316,1548,cs),
(1569,1515,o),
(1737,1437,o),
(1808,1231,cs),
(1840,1139,o),
(1856,984,o),
(1856,768,cs),
(1856,712,ls),
(1856,495,o),
(1853,297,o),
(1768,164,cs),
(1740,120,o),
(1700,83,o),
(1648,54,cs),
(1544,-4,o),
(1378,-32,o),
(1152,-32,cs),
(831,-32,ls),
(556,-32,o),
(367,8,o),
(264,88,cs),
(165,165,o),
(128,278,o),
(128,448,cs),
(128,618,o),
(165,731,o),
(264,808,cs),
(367,888,o),
(556,928,o),
(831,928,cs),
(1152,928,ls),
(1372.14,928,o),
(1536.12,899.919,o),
(1643.11,843.757,cs)
);
},
{
closed = 1;
nodes = (
(434,726,o),
(388,706,o),
(354,644,cs),
(332,603,o),
(320,538,o),
(320,448,cs),
(320,356,o),
(329,295,o),
(346,263,cs),
(381,200,o),
(423,173,o),
(500,154,cs),
(570,137,o),
(680,128,o),
(831,128,cs),
(1152,128,ls),
(1394,128,o),
(1593,137,o),
(1643,317,cs),
(1657,367,o),
(1664,427,o),
(1664,496,cs),
(1664,624,o),
(1649,690,o),
(1566,728,cs),
(1528,745,o),
(1476,756,o),
(1409,761,cs),
(1342,766,o),
(1257,768,o),
(1152,768,cs),
(831,768,ls),
(681,768,o),
(578,761,o),
(524,748,cs)
);
}
);
width = 1984;
}
);
unicode = 8706;
},
{
glyphname = plus;
layers = (
{
layerId = "5DBDC0A0-6414-4D3D-B0CB-A567F0B74D18";
shapes = (
{
closed = 1;
nodes = (
(566.407,960,o),
(576,969.593,o),
(576,984,cs),
(576,1313,ls),
(576,1370.19,o),
(613.805,1408,o),
(671,1408,cs),
(673,1408,ls),
(730.195,1408,o),
(768,1370.19,o),
(768,1313,cs),
(768,984,ls),
(768,969.593,o),
(777.593,960,o),
(792,960,cs),
(1137,960,ls),
(1184.56,960,o),
(1216,928.562,o),
(1216,881,cs),
(1216,879,ls),
(1216,831.438,o),
(1184.56,800,o),
(1137,800,cs),
(792,800,ls),
(777.593,800,o),
(768,790.407,o),
(768,776,cs),
(768,415,ls),
(768,357.805,o),
(730.195,320,o),
(673,320,cs),
(671,320,ls),
(613.805,320,o),
(576,357.805,o),
(576,415,cs),
(576,776,ls),
(576,790.407,o),
(566.407,800,o),
(552,800,cs),
(207,800,ls),
(159.438,800,o),
(128,831.438,o),
(128,879,cs),
(128,881,ls),
(128,928.562,o),
(159.438,960,o),
(207,960,cs),
(552,960,ls)
);
}
);
width = 1344;
}
);
unicode = 43;
},
{
glyphname = plusminus;
layers = (
{
layerId = "5DBDC0A0-6414-4D3D-B0CB-A567F0B74D18";
shapes = (
{
closed = 1;
nodes = (
(566.407,960,o),
(576,969.593,o),
(576,984,cs),
(576,1313,ls),
(576,1370.19,o),
(613.805,1408,o),
(671,1408,cs),
(673,1408,ls),
(730.195,1408,o),
(768,1370.19,o),
(768,1313,cs),
(768,984,ls),
(768,969.593,o),
(777.593,960,o),
(792,960,cs),
(1137,960,ls),
(1184.56,960,o),
(1216,928.562,o),
(1216,881,cs),
(1216,879,ls),
(1216,831.438,o),
(1184.56,800,o),
(1137,800,cs),
(792,800,ls),
(777.593,800,o),
(768,790.407,o),
(768,776,cs),
(768,415,ls),
(768,357.805,o),
(730.195,320,o),
(673,320,cs),
(671,320,ls),
(613.805,320,o),
(576,357.805,o),
(576,415,cs),
(576,776,ls),
(576,790.407,o),
(566.407,800,o),
(552,800,cs),
(207,800,ls),
(159.438,800,o),
(128,831.438,o),
(128,879,cs),
(128,881,ls),
(128,928.562,o),
(159.438,960,o),
(207,960,cs),
(552,960,ls)
);
}
);
width = 1344;
}
);
unicode = 177;
},
{
glyphname = product;
layers = (
{
layerId = "5DBDC0A0-6414-4D3D-B0CB-A567F0B74D18";
shapes = (
{
closed = 1;
nodes = (
(1509.81,-4.63,o),
(1472,37.806,o),
(1472,95,cs),
(1472,1352,ls),
(1472,1366.41,o),
(1462.41,1376,o),
(1448,1376,cs),
(344,1376,ls),
(329.593,1376,o),
(320,1366.41,o),
(320,1352,cs),
(320,95,ls),
(320,37.806,o),
(282.195,4.63,o),
(225,1.163,cs),
(223,-1.163,ls),
(165.805,-4.63,o),
(128,37.806,o),
(128,95,cs),
(128,1436,ls),
(128,1496.2,o),
(167.795,1536,o),
(228,1536,cs),
(1564,1536,ls),
(1624.2,1536,o),
(1664,1496.2,o),
(1664,1436,cs),
(1664,95,ls),
(1664,37.806,o),
(1626.19,4.63,o),
(1569,1.163,cs),
(1567,-1.163,ls)
);
}
);
width = 1792;
}
);
unicode = 8719;
},
{
glyphname = radical;
layers = (
{
layerId = "5DBDC0A0-6414-4D3D-B0CB-A567F0B74D18";
shapes = (
{
closed = 1;
nodes = (
(316.66,896,o),
(368.832,864.926,o),
(399.628,808.071,cs),
(756.569,149.103,ls),
(761.823,139.403,o),
(772.432,140.187,o),
(776.202,150.555,cs),
(1245.83,1442.02,ls),
(1267.64,1502,o),
(1316.18,1536,o),
(1380,1536,cs),
(1404,1536,ls),
(1457.81,1536,o),
(1487,1493.06,o),
(1467.2,1443.02,cs),
(932.805,92.981,ls),
(909.244,33.459,o),
(860.015,4.407,o),
(796,1.225,cs),
(740,-1.225,ls),
(675.251,-4.317,o),
(622.511,30.606,o),
(590.386,86.824,cs),
(177.614,809.176,ls),
(152.478,853.164,o),
(177.336,896,o),
(228,896,cs),
(252,896,ls)
);
}
);
width = 1632;
}
);
unicode = 8730;
},
{
glyphname = summation;
layers = (
{
layerId = "5DBDC0A0-6414-4D3D-B0CB-A567F0B74D18";
shapes = (
{
closed = 1;
nodes = (
(329.074,169.608,o),
(333.216,160,o),
(344,160,cs),
(1457,160,ls),
(1504.56,160,o),
(1536,128.562,o),
(1536,81,cs),
(1536,79,ls),
(1536,31.438,o),
(1504.56,3.85,o),
(1457,9.675,cs),
(215,-1.065,ls),
(162.622,-4.24,o),
(128,34.622,o),
(128,87,cs),
(128,89,ls),
(128,145.355,o),
(149.076,198.247,o),
(187.834,239.158,cs),
(687.494,766.577,ls),
(697.459,777.096,o),
(697.275,790.725,o),
(687.029,800.971,cs),
(189.518,1298.48,ls),
(149.612,1338.39,o),
(128,1390.56,o),
(128,1447,cs),
(128,1449,ls),
(128,1501.38,o),
(162.622,1536,o),
(215,1536,cs),
(1457,1536,ls),
(1504.56,1536,o),
(1536,1504.56,o),
(1536,1457,cs),
(1536,1455,ls),
(1536,1407.44,o),
(1504.56,1376,o),
(1457,1376,cs),
(344,1376,ls),
(333.405,1376,o),
(329.479,1366.52,o),
(336.971,1359.03,cs),
(830.766,865.234,ls),
(852.325,843.675,o),
(864,815.489,o),
(864,785,cs),
(864,783,ls),
(864,752.558,o),
(852.631,723.962,o),
(831.729,701.83,cs),
(336.479,177.448,ls)
);
}
);
width = 1664;
}
);
unicode = 8721;
},
{
glyphname = lozenge;
layers = (
{
layerId = "5DBDC0A0-6414-4D3D-B0CB-A567F0B74D18";
shapes = (
{
closed = 1;
nodes = (
(715.18,19.166,o),
(681.812,2.717,o),
(641,7.715,cs),
(639,-7.715,ls),
(598.188,-2.717,o),
(564.82,19.166,o),
(544.256,54.418,cs),
(178.387,681.622,ls),
(145.77,737.537,o),
(145.77,798.463,o),
(178.387,854.378,cs),
(544.256,1481.58,ls),
(564.82,1516.83,o),
(598.188,1536,o),
(639,1536,cs),
(641,1536,ls),
(681.812,1536,o),
(715.18,1516.83,o),
(735.744,1481.58,cs),
(1101.61,854.378,ls),
(1134.23,798.463,o),
(1134.23,737.537,o),
(1101.61,681.622,cs),
(735.744,54.418,ls)
);
},
{
closed = 1;
nodes = (
(634.117,266.459,o),
(645.883,266.459,o),
(651.766,276.918,cs),
(916.234,747.082,ls),
(923.863,760.645,o),
(923.863,775.355,o),
(916.234,788.918,cs),
(651.766,1259.08,ls),
(645.883,1269.54,o),
(634.117,1269.54,o),
(628.234,1259.08,cs),
(363.766,788.918,ls),
(356.137,775.355,o),
(356.137,760.645,o),
(363.766,747.082,cs),
(628.234,276.918,ls)
);
}
);
width = 1280;
}
);
unicode = 9674;
},
{
glyphname = ampersand;
layers = (
{
layerId = "5DBDC0A0-6414-4D3D-B0CB-A567F0B74D18";
shapes = (
{
closed = 1;
nodes = (
(1160,1568,ls),
(1397,1568,o),
(1646,1560,o),
(1735,1421,cs),
(1763.84,1376.22,o),
(1781.74,1307.24,o),
(1788.69,1214.93,cs),
(1792.75,1161.07,o),
(1754.65,1120,o),
(1700.84,1120,c),
(1701.13,1120,l),
(1638.94,1120,o),
(1602.36,1153.06,o),
(1596.09,1214.94,cs),
(1583.13,1342.97,o),
(1534.52,1380.52,o),
(1401,1397,cs),
(1342,1404,o),
(1240,1408,o),
(1096,1408,cs),
(952,1408,o),
(847,1407,o),
(782,1405,cs),
(637,1401,o),
(512,1378,o),
(512,1239,cs),
(512,1175,o),
(519,1152,o),
(546,1117,cs),
(571,1084,o),
(614,1053,o),
(672,1024,cs),
(2228.13,230.68,ls),
(2274.68,206.947,o),
(2291.78,161.445,o),
(2272.37,112.928,cs),
(2271.63,111.072,ls),
(2252.96,64.406,o),
(2208.79,47.624,o),
(2163.85,70.124,cs),
(659.661,823.157,ls),
(647.393,829.299,o),
(629.734,833.082,o),
(616.027,832.504,cs),
(424.291,824.428,o),
(320,717.706,o),
(320,515,cs),
(320,360,o),
(350,271,o),
(464,232,cs),
(501,219,o),
(547,210,o),
(604,204,cs),
(680,196,o),
(801,192,o),
(967,192,cs),
(1133,192,o),
(1250,193,o),
(1316,194,cs),
(1476,196,o),
(1624,203,o),
(1699,286,cs),
(1740,331,o),
(1760,406,o),
(1760,512,cs),
(1760,673,ls),
(1760,730.195,o),
(1797.81,768,o),
(1855,768,cs),
(1921,768,ls),
(1939.66,768,o),
(1952,755.663,o),
(1952,737,cs),
(1952,704,ls),
(1952,486,o),
(1934,334,o),
(1899,248,cs),
(1858,148,o),
(1776,81,o),
(1653,46,cs),
(1544,15,o),
(1356,0,o),
(1088,0,cs),
(810,0,o),
(630,5,o),
(546,16,cs),
(395,36,o),
(293,65,o),
(220,152,cs),
(159,225,o),
(128,345,o),
(128,512,cs),
(128,720,o),
(214,862,o),
(360,929,cs),
(395.046,945.355,o),
(427.06,955.038,o),
(456.041,958.521,cs),
(465.774,959.691,o),
(467.87,968.088,o),
(459.803,973.712,cs),
(373.56,1033.84,o),
(320,1094.45,o),
(320,1219,cs),
(320,1511,o),
(564,1569,o),
(854,1569,cs),
(916,1569,o),
(980,1568,o),
(1066,1568,cs)
);
}
);
width = 2432;
}
);
unicode = 38;
},
{
glyphname = asciicircum;
layers = (
{
layerId = "5DBDC0A0-6414-4D3D-B0CB-A567F0B74D18";
shapes = (
{
closed = 1;
nodes = (
(210.066,922.277,o),
(166.489,915.133,o),
(128.8,943.4,cs),
(127.2,944.6,ls),
(88.91,973.318,o),
(81.956,1017.44,o),
(109.558,1056.54,cs),
(393.215,1458.39,ls),
(428.822,1508.83,o),
(481.255,1536,o),
(543,1536,cs),
(545,1536,ls),
(606.745,1536,o),
(659.178,1508.83,o),
(694.785,1458.39,cs),
(978.442,1056.54,ls),
(1006.04,1017.44,o),
(999.09,973.318,o),
(960.8,944.6,cs),
(959.2,943.4,ls),
(921.511,915.133,o),
(877.934,922.277,o),
(851.244,961.099,cs),
(557.597,1388.22,ls),
(550.32,1398.81,o),
(537.68,1398.81,o),
(530.403,1388.22,cs),
(236.756,961.099,ls)
);
}
);
width = 1088;
}
);
unicode = 94;
},
{
glyphname = at;
layers = (
{
layerId = "5DBDC0A0-6414-4D3D-B0CB-A567F0B74D18";
shapes = (
{
closed = 1;
nodes = (
(1123,288,ls),
(1242,288,o),
(1349,289,o),
(1418,332,cs),
(1476,368,o),
(1504,448,o),
(1504,573,cs),
(1504,762,o),
(1451,840,o),
(1298,856,cs),
(1249,861,o),
(1190,864,o),
(1123,864,cs),
(1080,864,ls),
(987,864,o),
(911,862,o),
(840,846,cs),
(717,818,o),
(704,747,o),
(704,576,cs),
(704,484,o),
(710,424,o),
(722,397,cs),
(746,343,o),
(777,320,o),
(840,306,cs),
(911,290,o),
(989,288,o),
(1082,288,cs)
);
},
{
closed = 1;
nodes = (
(1920,768,ls),
(1920,1037,o),
(1857,1138,o),
(1635,1185,cs),
(1537,1206,o),
(1403,1216,o),
(1232,1216,cs),
(1061,1216,o),
(933,1214,o),
(846,1211,cs),
(621,1202,o),
(453,1167,o),
(380,1012,cs),
(341,929,o),
(321,784,o),
(321,576,cs),
(321,379,o),
(340,238,o),
(380,154,cs),
(451,4,o),
(623,-43,o),
(846,-56,cs),
(928.694,-60.752,o),
(1217.37,-63.698,o),
(1712.04,-63.978,cs),
(1759.6,-64.005,o),
(1791,-95.423,o),
(1791,-142.982,cs),
(1791,-145,ls),
(1791,-192.562,o),
(1759.56,-224,o),
(1712,-224,cs),
(1152,-224,ls),
(860,-224,o),
(638,-196,o),
(488,-138,cs),
(345,-83,o),
(247,6,o),
(194,127,cs),
(150,227,o),
(128,377,o),
(128,576,cs),
(128,804,o),
(150,968,o),
(194,1068,cs),
(245,1184,o),
(343,1265,o),
(488,1310,cs),
(628,1354,o),
(849,1376,o),
(1152,1376,cs),
(1530,1376,o),
(1786,1331,o),
(1920,1240,cs),
(1967,1208,o),
(2006,1169,o),
(2034,1124,cs),
(2062,1079,o),
(2088,865,o),
(2112,480,c),
(2112,346,o),
(2092,255,o),
(2053,208,cs),
(2009,155,o),
(1921,128,o),
(1791,128,cs),
(1662.46,128,o),
(1577.94,179.056,o),
(1567.99,296.035,cs),
(1567.27,304.459,o),
(1560.18,306.095,o),
(1555.86,298.864,cs),
(1525.37,247.814,o),
(1477.46,213.616,o),
(1428,188,cs),
(1349,147,o),
(1241,128,o),
(1120,128,cs),
(865,128,o),
(639,141,o),
(556,307,cs),
(527,366,o),
(512,455,o),
(512,576,cs),
(512,815,o),
(559,929,o),
(734,984,cs),
(819,1011,o),
(947,1024,o),
(1117,1024,cs),
(1254,1024,o),
(1360,997,o),
(1435,944,cs),
(1459.34,926.503,o),
(1478.48,906.691,o),
(1492.41,885.004,cs),
(1496.91,877.996,o),
(1504,880.078,o),
(1504,888.407,cs),
(1504,929,ls),
(1504,966.929,o),
(1529.07,992,o),
(1567,992,cs),
(1601,992,ls),
(1658.19,992,o),
(1696,954.195,o),
(1696,897,cs),
(1696,480,ls),
(1696,397,o),
(1700,347,o),
(1708,329,cs),
(1725,293,o),
(1745,288,o),
(1796,288,cs),
(1915,288,o),
(1920,338,o),
(1920,480,cs)
);
}
);
width = 2240;
}
);
unicode = 64;
},
{
glyphname = bar;
layers = (
{
layerId = "5DBDC0A0-6414-4D3D-B0CB-A567F0B74D18";
shapes = (
{
closed = 1;
nodes = (
(128,1562.19,o),
(165.805,1600,o),
(223,1600,cs),
(225,1600,ls),
(282.195,1600,o),
(320,1562.19,o),
(320,1505,cs),
(320,-33,ls),
(320,-90.195,o),
(282.195,-128,o),
(225,-128,cs),
(223,-128,ls),
(165.805,-128,o),
(128,-90.195,o),
(128,-33,cs),
(128,1505,ls)
);
}
);
width = 448;
}
);
unicode = 124;
},
